<svg width="20" height="21" viewBox="0 0 20 21" fill="none" xmlns="http://www.w3.org/2000/svg">
<path d="M18.3082 15.775C18.3082 16.075 18.2415 16.3833 18.0998 16.6833C17.9582 16.9833 17.7748 17.2667 17.5332 17.5333C17.1248 17.9833 16.6748 18.3083 16.1665 18.5167C15.6665 18.725 15.1248 18.8333 14.5415 18.8333C13.6915 18.8333 12.7832 18.6333 11.8248 18.225C10.8665 17.8167 9.90817 17.2667 8.95817 16.575C7.98993 15.8668 7.07625 15.0868 6.22484 14.2417C5.38214 13.3933 4.60492 12.4824 3.89984 11.5167C3.2165 10.5667 2.6665 9.61667 2.2665 8.675C1.8665 7.725 1.6665 6.81667 1.6665 5.95C1.6665 5.38333 1.7665 4.84167 1.9665 4.34167C2.1665 3.83333 2.48317 3.36667 2.92484 2.95C3.45817 2.425 4.0415 2.16667 4.65817 2.16667C4.8915 2.16667 5.12484 2.21667 5.33317 2.31667C5.54984 2.41667 5.7415 2.56667 5.8915 2.78333L7.82484 5.50833C7.97484 5.71667 8.08317 5.90833 8.15817 6.09167C8.23317 6.26667 8.27484 6.44167 8.27484 6.6C8.27484 6.8 8.2165 7 8.09984 7.19167C7.9915 7.38333 7.83317 7.58333 7.63317 7.78333L6.99984 8.44167C6.90817 8.53333 6.8665 8.64167 6.8665 8.775C6.8665 8.84167 6.87484 8.9 6.8915 8.96667C6.9165 9.03333 6.9415 9.08333 6.95817 9.13333C7.10817 9.40833 7.3665 9.76667 7.73317 10.2C8.10817 10.6333 8.50817 11.075 8.9415 11.5167C9.3915 11.9583 9.82484 12.3667 10.2665 12.7417C10.6998 13.1083 11.0582 13.3583 11.3415 13.5083C11.3832 13.525 11.4332 13.55 11.4915 13.575C11.5582 13.6 11.6248 13.6083 11.6998 13.6083C11.8415 13.6083 11.9498 13.5583 12.0415 13.4667L12.6748 12.8417C12.8832 12.6333 13.0832 12.475 13.2748 12.375C13.4665 12.2583 13.6582 12.2 13.8665 12.2C14.0248 12.2 14.1915 12.2333 14.3748 12.3083C14.5582 12.3833 14.7498 12.4917 14.9582 12.6333L17.7165 14.5917C17.9332 14.7417 18.0832 14.9167 18.1748 15.125C18.2582 15.3333 18.3082 15.5417 18.3082 15.775Z" stroke="black" stroke-width="1.5" stroke-miterlimit="10"/>
<path d="M15.4167 8C15.4167 7.5 15.025 6.73333 14.4417 6.10833C13.9083 5.53333 13.2 5.08333 12.5 5.08333M18.3333 8C18.3333 4.775 15.725 2.16667 12.5 2.16667" stroke="black" stroke-width="1.5" stroke-linecap="round" stroke-linejoin="round"/>
</svg>
