<svg width="20" height="20" viewBox="0 0 20 20" fill="none" xmlns="http://www.w3.org/2000/svg">
<path d="M8.75006 6.66667H11.2501M5.63339 18.3333H14.3667C16.6667 18.3333 17.5834 16.925 17.6917 15.2083L18.1251 8.325C18.1521 7.8982 18.0913 7.47039 17.9464 7.06802C17.8015 6.66564 17.5756 6.29726 17.2828 5.98563C16.9899 5.674 16.6362 5.42575 16.2436 5.25622C15.8509 5.0867 15.4277 4.99949 15.0001 5.00001C14.4917 5.00001 14.0251 4.70834 13.7917 4.25834L13.1917 3.05001C12.8084 2.29167 11.8084 1.66667 10.9584 1.66667H9.05006C8.19172 1.66667 7.19172 2.29167 6.80839 3.05001L6.20839 4.25834C5.97506 4.70834 5.50839 5.00001 5.00006 5.00001C3.19172 5.00001 1.75839 6.525 1.87506 8.325L2.30839 15.2083C2.40839 16.925 3.33339 18.3333 5.63339 18.3333Z" stroke="black" stroke-width="1.5" stroke-linecap="round" stroke-linejoin="round"/>
<path d="M9.99996 15C11.4916 15 12.7083 13.7833 12.7083 12.2917C12.7083 10.8 11.4916 9.58333 9.99996 9.58333C8.50829 9.58333 7.29163 10.8 7.29163 12.2917C7.29163 13.7833 8.50829 15 9.99996 15Z" stroke="black" stroke-width="1.5" stroke-linecap="round" stroke-linejoin="round"/>
</svg>
