<svg width="20" height="20" viewBox="0 0 20 20" fill="none" xmlns="http://www.w3.org/2000/svg">
<g clip-path="url(#clip0_91_1353)">
<path d="M1.65002 10.8333H4.80836C5.11843 10.8335 5.4223 10.9201 5.68582 11.0836C5.94934 11.247 6.16204 11.4806 6.30002 11.7583L7.04169 13.25C7.50002 14.1667 8.33336 14.1667 8.53336 14.1667H11.475C11.7851 14.1665 12.089 14.0798 12.3525 13.9164C12.616 13.753 12.8287 13.5193 12.9667 13.2417L13.7084 11.75C13.8463 11.4723 14.059 11.2386 14.3226 11.0752C14.5861 10.9118 14.89 10.8252 15.2 10.825H18.3167M15.8334 6.66666C16.4964 6.66666 17.1323 6.40326 17.6011 5.93442C18.07 5.46558 18.3334 4.8297 18.3334 4.16666C18.3334 3.50362 18.07 2.86773 17.6011 2.39889C17.1323 1.93005 16.4964 1.66666 15.8334 1.66666C15.1703 1.66666 14.5344 1.93005 14.0656 2.39889C13.5968 2.86773 13.3334 3.50362 13.3334 4.16666C13.3334 4.8297 13.5968 5.46558 14.0656 5.93442C14.5344 6.40326 15.1703 6.66666 15.8334 6.66666Z" stroke="black" stroke-width="1.5" stroke-linecap="round" stroke-linejoin="round"/>
<path d="M11.6666 1.66666H7.49996C3.33329 1.66666 1.66663 3.33332 1.66663 7.49999V12.5C1.66663 16.6667 3.33329 18.3333 7.49996 18.3333H12.5C16.6666 18.3333 18.3333 16.6667 18.3333 12.5V8.33332" stroke="black" stroke-width="1.5" stroke-linecap="round" stroke-linejoin="round"/>
</g>
<defs>
<clipPath id="clip0_91_1353">
<rect width="20" height="20" fill="white"/>
</clipPath>
</defs>
</svg>
