<svg width="20" height="21" viewBox="0 0 20 21" fill="none" xmlns="http://www.w3.org/2000/svg">
<path d="M14.1665 11.6667V14.1667C14.1665 17.5 12.8332 18.8333 9.49984 18.8333H6.33317C2.99984 18.8333 1.6665 17.5 1.6665 14.1667V11C1.6665 7.66666 2.99984 6.33333 6.33317 6.33333H8.83317" stroke="black" stroke-width="1.5" stroke-linecap="round" stroke-linejoin="round"/>
<path d="M9.66683 2.16667H13.0002M5.8335 4.66667C5.8335 3.28334 6.95016 2.16667 8.3335 2.16667H10.5168M18.3335 7.16667V12.325C18.3335 13.6167 17.2835 14.6667 15.9918 14.6667M18.3335 7.16667H15.8335C13.9585 7.16667 13.3335 6.54167 13.3335 4.66667V2.16667L18.3335 7.16667ZM14.1668 11.6667H11.5002C9.50016 11.6667 8.8335 11 8.8335 9V6.33334L14.1668 11.6667Z" stroke="black" stroke-width="1.5" stroke-linecap="round" stroke-linejoin="round"/>
</svg>
