<svg width="290" height="290" viewBox="0 0 290 290" fill="none" xmlns="http://www.w3.org/2000/svg">
<path d="M153.151 0.32288C149.077 1.07324 145.915 2.30598 142.86 4.39628L140.127 6.27219L137.393 4.93225C133.963 3.16354 130.05 3.05634 126.834 4.66426C124.744 5.62902 116.437 13.7222 116.437 14.7406C116.437 14.955 117.509 15.0086 118.848 14.7942C120.188 14.5798 121.26 14.5262 121.26 14.687C121.26 14.7942 120.51 15.7589 119.599 16.8309C117.991 18.6532 117.08 20.4219 116.169 23.2625C115.793 24.4953 115.847 24.4953 118.366 24.1201C120.724 23.7985 120.885 23.8521 120.51 24.7633C119.706 26.8536 119.063 30.8734 119.277 32.3205C119.438 33.6068 119.492 33.4996 119.599 31.8381C119.599 30.7662 120.135 28.3543 120.724 26.532C121.26 24.6561 121.689 23.1017 121.636 22.9946C121.582 22.941 120.456 23.1553 119.17 23.4233C117.884 23.6913 116.758 23.8521 116.651 23.7449C116.115 23.2089 119.974 16.7237 121.689 15.2765L123.672 13.6686L120.456 14.0438L117.294 14.419L119.599 11.6855C125.334 4.77146 130.64 2.62757 136.107 4.87865C139.537 6.32578 139.644 6.54017 137.554 9.38083C136.589 10.828 135.249 13.079 134.66 14.4726C133.963 15.9733 131.819 18.6532 129.086 21.3866C126.406 24.0665 123.726 27.3895 122.279 29.8014C120.992 31.9989 119.76 33.8748 119.545 33.982C119.277 34.0892 119.116 34.6788 119.116 35.3219C119.116 36.0723 120.081 34.8932 121.689 32.0525C124.851 26.4784 127.96 22.5122 130.801 20.2611L132.998 18.4924V22.9946C132.945 35.2683 140.716 44.4871 152.883 46.4702C161.351 47.8637 170.57 43.8439 175.93 36.3939C177.752 33.8212 178.074 33.6068 178.502 34.4644C179.735 36.7155 180.807 42.5576 181.129 48.4533L181.45 54.7242L183.004 51.5083C183.808 49.7396 184.773 46.899 185.095 45.2375L185.738 42.1288L187.614 43.7903C189.061 45.0767 189.597 45.291 189.919 44.7015C190.562 43.7367 190.508 37.1443 189.865 35.4827C189.222 33.7676 189.49 33.7676 191.687 35.4291C193.778 37.0371 194.099 37.0907 193.831 35.8043C191.205 23.4233 188.257 19.0284 182.201 18.2244C180.807 18.01 179.681 17.5812 179.681 17.2596C179.681 15.9197 176.412 9.91681 174.536 7.82651C169.176 1.8772 160.815 -1.01706 153.151 0.32288ZM164.996 1.9844C170.945 4.23549 175.501 8.57687 178.127 14.5262C179.896 18.546 180.11 25.3528 178.609 29.7478C176.787 35.1612 173.303 39.5025 168.426 42.504C162.852 45.9342 154.169 46.2558 147.898 43.3079C138.84 39.0738 133.32 28.9439 135.088 19.6179C137.715 5.36103 151.811 -2.89296 164.996 1.9844ZM184.398 19.3499C188.311 21.0115 190.133 23.6377 192.009 30.391C193.51 35.8579 193.456 36.0723 190.83 34.1428C189.597 33.2316 188.418 32.4813 188.203 32.4813C187.989 32.4813 188.311 33.3924 188.847 34.4644C189.597 35.8579 189.865 37.573 189.865 40.3601C189.865 42.504 189.704 44.2727 189.543 44.2727C189.383 44.2727 188.311 43.5759 187.239 42.7184L185.256 41.1105L184.666 44.4335C184.344 46.2558 183.594 48.8285 183.058 50.1684L181.986 52.5803L181.611 47.2206C181.236 41.8072 180.164 36.5011 178.931 34.1428C178.342 33.0709 178.395 32.3205 179.199 29.6942C179.789 27.7647 180.217 24.8705 180.217 22.5122C180.217 18.01 180.539 17.7956 184.398 19.3499Z" fill="black"/>
<path d="M152.348 4.34272C149.132 5.25388 145.434 7.23698 144.255 8.68411C143.397 9.75606 143.665 9.64886 147.256 7.18338C150.258 5.14668 155.564 3.86035 159.316 4.28913C163.068 4.71791 168.106 7.18338 170.678 9.80965C171.75 10.9352 173.412 13.2935 174.323 15.0622C175.234 16.8309 175.824 17.6885 175.609 16.9381C174.966 14.4726 173.68 12.4895 171 9.64886C166.283 4.61071 158.887 2.52042 152.348 4.34272Z" fill="black"/>
<path d="M157.866 11.0423C157.652 12.2751 157.223 12.5967 155.722 12.9183C151.113 13.7758 149.612 18.9212 153.043 22.137C153.954 22.9946 155.562 24.2273 156.526 24.7633C158.242 25.7816 159.206 27.6039 158.51 28.6759C157.974 29.587 154.329 29.3726 152.185 28.2471L150.202 27.2287L149.398 28.7295C148.969 29.587 148.594 30.391 148.594 30.4982C148.594 30.659 149.773 31.2485 151.22 31.8917C153.579 32.8565 153.9 33.178 153.793 34.518C153.686 35.6971 153.9 36.0187 155.133 36.1259C156.312 36.2867 156.58 36.0723 156.741 34.8396C156.848 33.6604 157.277 33.2852 158.938 32.8029C162.154 31.8917 163.601 30.1766 163.601 27.1751C163.601 24.3881 162.744 23.3161 158.349 20.4755C156.58 19.4035 156.098 18.7604 156.205 17.8492C156.312 16.9381 156.794 16.6165 158.349 16.5093C159.421 16.4021 161.029 16.7237 161.94 17.206C163.548 18.01 163.601 18.01 164.405 16.4021L165.263 14.7406L163.119 13.8294C161.35 13.079 160.921 12.6503 160.921 11.5247C160.921 10.3992 160.6 10.024 159.528 9.80961C158.402 9.59522 158.134 9.80961 157.866 11.0423Z" fill="black"/>
<path d="M140.608 13.2398C138.464 17.0452 137.66 20.6362 138.035 24.7632C138.678 31.4093 143.02 37.6802 148.755 40.2529C152.506 41.9144 154.168 42.3968 153.739 41.6464C153.525 41.3248 152.935 41.0568 152.453 41.0568C150.684 41.0032 146.986 38.9665 144.36 36.5011C138.035 30.6053 136.642 20.529 141.144 13.4006C142.055 12.0607 142.645 10.8279 142.484 10.6671C142.377 10.5063 141.519 11.6855 140.608 13.2398Z" fill="black"/>
<path d="M173.358 32.5885C172.983 33.2852 172.34 34.4108 171.857 35.1611C171.214 36.1795 171.321 36.1259 172.393 34.8931C174.162 32.91 175.02 31.4093 174.43 31.4093C174.162 31.4093 173.68 31.9453 173.358 32.5885Z" fill="black"/>
<path d="M270.047 6.4865C269.833 7.34406 269.19 10.0239 268.6 12.3822C267.153 18.4923 264.527 23.6376 260.882 27.5503L257.774 30.8733L255.147 28.4078C253.7 27.0679 251.181 25.3528 249.466 24.5488C246.786 23.2625 245.768 23.1017 240.783 23.1017C235.584 23.1017 234.888 23.2089 231.511 24.8168C224.758 28.0326 219.344 34.7859 218.487 41.0568C218.112 43.8974 217.576 44.2726 213.77 44.2726C209.054 44.2726 205.409 41.164 202.14 34.3571C199.996 29.8549 200.103 29.5334 203.265 31.1413C204.766 31.8916 205.945 32.374 205.945 32.2668C205.945 32.106 205.355 31.0877 204.605 30.0157C203.104 27.8182 202.193 24.9776 202.193 22.4049C202.193 20.4218 202.461 20.3146 204.605 21.7617C205.516 22.3513 206.374 22.8337 206.535 22.8337C206.695 22.8337 206.803 21.2258 206.803 19.1891C206.803 15.5444 207.392 11.2567 207.874 11.739C208.035 11.8462 208.732 14.2045 209.482 16.938C210.179 19.6714 211.626 23.5304 212.645 25.46C214.574 29.1046 218.969 34.6251 219.987 34.6251C220.309 34.6251 219.184 33.178 217.522 31.4093C213.824 27.3895 211.198 22.0297 209.643 15.3301C209 12.543 208.357 9.86313 208.196 9.43435C207.767 8.04082 206.481 13.8293 206.32 17.8491C206.267 19.993 206.159 21.7617 206.052 21.7617C205.999 21.7617 204.927 21.2794 203.694 20.6362L201.55 19.5107L201.764 22.9409C201.872 24.924 202.408 27.2823 203.104 28.6222C203.694 29.8549 204.123 30.8733 203.962 30.8733C203.855 30.8733 202.783 30.3909 201.657 29.8013C198.924 28.4078 198.924 28.8902 201.604 34.4107C205.409 42.2895 208.946 45.0766 214.789 44.7014L218.165 44.487L218.433 47.5957C219.237 56.7608 226.848 64.586 236.603 66.2475C248.984 68.3914 261.365 58.2615 262.115 45.2374L262.383 41.0568H264.58C267.582 41.0032 270.691 39.5025 272.888 36.9834C274.55 35.1075 279.588 25.5135 279.105 25.0848C278.998 24.9776 277.98 25.4064 276.747 26.0495C275.514 26.6391 274.55 27.0679 274.55 27.0143C274.55 26.9071 274.978 25.6207 275.568 24.1736C276.586 21.4402 277.497 15.866 276.961 15.866C276.801 15.866 275.729 16.3484 274.55 16.938C273.37 17.5275 272.352 18.0099 272.298 18.0099C272.191 18.0099 272.084 16.134 272.031 13.8293C271.977 11.5782 271.602 8.63039 271.173 7.29045L270.423 4.87857L270.047 6.4865ZM271.548 14.3653C271.548 16.9916 271.655 19.0819 271.709 19.0819C271.816 19.0819 272.62 18.5995 273.585 18.0099C276.265 16.3484 276.586 16.5628 276.104 19.725C275.622 23.2625 275.246 24.2808 273.585 26.5319L272.245 28.3006L273.531 27.9254C274.228 27.711 275.514 27.1751 276.318 26.7463C277.176 26.3175 277.926 26.0495 278.033 26.1567C278.409 26.5319 274.496 34.2499 272.942 36.233C270.798 38.9129 267.26 40.628 264.312 40.4136C262.115 40.2528 262.061 40.1992 260.936 37.037C260.293 35.2147 259.382 33.2316 258.953 32.5884C258.149 31.5165 258.256 31.3021 260.989 28.4614C264.527 24.7096 267.743 18.2779 269.297 11.8998C270.315 7.88003 270.53 7.34406 270.959 8.416C271.227 9.11277 271.495 11.7926 271.548 14.3653ZM247.537 24.388C262.597 29.6941 266.51 48.5604 254.719 59.4407C250.431 63.4605 246.786 64.854 240.783 64.854C237.299 64.854 235.477 64.5324 233.119 63.6213C228.777 61.9061 224.114 57.5112 221.917 52.9554C220.255 49.6324 220.148 48.9892 220.148 44.0046C220.148 39.2345 220.309 38.3233 221.595 35.697C224.382 30.1229 228.402 26.4247 233.976 24.388C237.728 23.0481 243.678 23.0481 247.537 24.388Z" fill="black"/>
<path d="M235.958 26.7463C234.565 27.1215 232.635 27.9791 231.563 28.6222C229.366 29.9622 225.239 34.3036 225.239 35.2147C225.239 35.5899 225.936 34.8931 226.793 33.6604C230.116 29.1582 234.94 26.8535 241.05 26.9071C246.303 26.9071 249.465 28.2471 253.27 32.0525C254.664 33.446 255.789 34.3572 255.789 34.1428C255.789 33.2316 250.269 28.6222 247.964 27.6039C244.963 26.264 239.12 25.8352 235.958 26.7463Z" fill="black"/>
<path d="M239.335 31.8381C238.37 31.9989 238.102 32.3741 238.102 33.5532C238.102 34.6252 237.781 35.2148 237.03 35.4291C235.369 35.9651 233.814 38.3234 233.814 40.3601C233.814 42.7184 235.637 44.5407 238.692 45.3447C242.765 46.3094 244.266 47.7565 242.926 49.3645C242.336 50.1148 241.479 50.222 238.799 50.0612C236.655 49.954 235.422 50.0612 235.422 50.4364C235.422 50.7044 235.262 51.5084 235.101 52.1515C234.779 53.2235 235.047 53.3843 237.459 53.7058C239.71 53.9738 240.193 54.2418 240.461 55.3138C240.729 56.2785 241.157 56.6001 242.176 56.6001C243.462 56.6001 243.569 56.4393 243.355 54.9386C243.14 53.5986 243.355 53.1699 244.588 52.5267C246.678 51.5084 247.75 49.7396 247.75 47.4886C247.75 44.7015 246.571 43.4152 242.712 42.1288C238.531 40.7353 237.513 39.8241 238.853 38.4842C239.442 37.841 240.568 37.573 242.283 37.6266C244.856 37.6802 245.606 37.2515 245.606 35.5899C245.606 34.9468 244.963 34.5716 243.355 34.25C241.8 33.9284 240.996 33.446 240.782 32.7493C240.621 31.9989 240.139 31.7309 239.335 31.8381Z" fill="black"/>
<path d="M223.309 39.7704C220.2 50.4363 229.151 62.1741 240.138 61.9061L243.193 61.7989L239.442 61.4238C228.561 60.4054 221.111 50.1147 223.845 39.9848C224.863 36.0186 224.488 35.8578 223.309 39.7704Z" fill="black"/>
<path d="M257.291 49.686C256.808 51.1331 256.647 52.2051 256.862 52.0443C257.451 51.6691 258.63 48.1853 258.362 47.4885C258.255 47.2205 257.826 48.1853 257.291 49.686Z" fill="black"/>
<path d="M60.4278 47.0597C59.8383 47.4349 58.3375 47.6493 57.1584 47.5421C55.9257 47.4885 54.7465 47.6493 54.5857 47.9709C54.3713 48.2389 53.4602 48.3461 52.4418 48.1853C51.3163 48.0245 50.1908 48.1853 49.3868 48.7212C48.69 49.15 47.5109 49.686 46.7605 49.9004C44.7238 50.49 43.5447 51.7763 43.5447 53.4914C43.5447 54.7777 43.3303 54.9921 42.0976 54.9921C39.7393 54.9921 38.9889 55.7961 38.8817 58.3152C38.7209 61.9062 38.1313 64.2645 36.9522 65.8188C35.8803 67.2659 35.8803 68.1235 37.1666 71.6073C38.2921 74.8231 38.3457 75.0375 38.2385 76.2703C38.1849 77.0206 38.6137 77.771 39.5249 78.3606C40.4896 79.0037 40.8112 79.5397 40.5432 80.2901C40.168 81.5228 41.508 83.7203 42.9551 84.2027C43.4911 84.3635 44.2414 85.221 44.6166 86.1322C45.4206 88.0081 46.5997 88.7584 48.7972 88.7584C49.7084 88.7584 50.7803 89.2408 51.5307 90.0448C53.0314 91.6527 54.8537 92.1351 56.6224 91.4383C57.5872 91.0631 58.4983 91.1703 59.8919 91.7599C62.0358 92.6174 63.3757 92.4031 65.6804 90.7951C67.3955 89.5624 67.7707 89.6696 67.3419 91.2775C67.1275 92.0815 66.3235 92.5103 64.1797 92.9926C62.5717 93.3678 59.0879 94.7077 56.408 96.0477C43.0623 102.533 32.6108 111.805 29.5558 119.845C27.1975 126.062 28.4838 132.708 32.7716 136.942L35.2907 139.408L31.6461 144.875C29.6094 147.93 27.7335 150.395 27.4119 150.395C27.1439 150.395 25.9648 149.913 24.7856 149.323C23.6065 148.734 22.5881 148.251 22.4809 148.251C22.3737 148.251 21.0338 150.395 19.4795 153.022C16.1564 158.596 9.29598 167.547 3.50747 173.871C0.345222 177.408 -0.405141 178.48 0.18443 178.856C0.613209 179.124 5.91935 182.286 12.083 185.877C19.1043 190.004 23.1777 192.737 23.1777 193.22C23.1241 193.702 22.4273 197.4 21.6234 201.474C20.7658 205.493 20.2298 208.924 20.4442 209.031C20.7658 209.192 23.0705 209.031 44.0807 207.53C49.8156 207.155 54.6929 206.887 54.8537 206.994C55.0145 207.101 55.3361 209.031 55.5505 211.336C56.7296 225.807 57.48 235.026 57.748 240.064L58.0696 245.852L54.4249 245.531C50.03 245.102 49.7084 245.316 49.226 249.658C49.0652 251.319 48.422 254.696 47.8325 257.161C46.171 264.183 46.3317 265.415 50.0836 270.829C51.9595 273.616 53.2994 273.776 57.4264 271.74C59.5703 270.668 60.4814 269.81 61.1782 268.31C62.0358 266.326 62.0358 266.326 63.9117 267.023C64.93 267.398 66.3235 267.72 67.0203 267.72C68.7354 267.774 68.8962 268.631 68.1459 273.723C67.7707 276.188 67.5027 278.815 67.5027 279.511C67.6099 282.888 75.8639 288.087 83.4747 289.48C89.7992 290.713 92.4791 289.802 93.1758 286.211C93.819 282.727 91.9967 280.262 85.3506 275.813C81.5452 273.24 80.7412 272.437 79.3477 269.649C77.7398 266.487 77.6862 266.273 77.4182 256.518C77.311 251.051 77.4718 236.848 77.7934 224.896C78.115 212.943 78.5437 195.739 78.7581 186.681L79.0797 170.119L80.4733 168.136C83.1531 164.277 83.7427 163.58 84.0643 163.902C84.2251 164.116 83.4211 165.563 82.242 167.118L80.1517 170.012L79.4013 198.901C78.9725 214.819 78.6509 233.418 78.6509 240.278V252.659L80.2589 254.964C81.17 256.197 82.9387 257.804 84.2251 258.501L86.5833 259.734H179.628C240.89 259.734 273.316 259.52 274.656 259.198C277.175 258.501 280.606 255.017 281.41 252.338C281.892 250.837 282.053 243.012 282.053 225.914V201.527L284.304 200.777C285.751 200.241 286.984 199.33 287.788 198.151C288.967 196.435 289.021 195.846 289.021 186.842C289.021 177.837 288.967 177.248 287.788 175.533C286.716 173.978 285.751 173.389 282.75 172.585C282.214 172.424 282.053 166.957 282.053 147.608C282.053 124.615 281.946 122.632 281.034 120.649C280.499 119.47 279.427 117.915 278.623 117.219C277.497 116.147 277.229 115.396 277.229 113.467C277.229 108.053 274.817 104.034 270.637 102.426C268.546 101.622 266.992 101.675 250.27 102.533C240.354 103.069 232.207 103.337 232.207 103.123C232.207 102.962 233.065 100.818 234.083 98.4596C235.102 96.0477 235.691 94.1182 235.37 94.1182C235.102 94.1182 233.654 94.7077 232.207 95.4581C230.707 96.2085 229.527 96.6908 229.527 96.5836C229.527 96.4229 230.063 95.4581 230.707 94.3862C232.69 90.9559 234.083 82.8627 232.636 82.8627C232.315 82.8627 230.975 83.4523 229.688 84.2027L227.384 85.5962V81.9516C227.384 78.307 226.258 71.8217 225.347 70.2138C225.025 69.6242 224.596 70.6425 223.953 73.9656C222.345 82.2196 219.505 89.4016 216.075 94.011L214.413 96.3157L212.055 91.4919C207.928 83.0771 201.282 77.6638 192.224 75.3591C184.774 73.4296 177.806 74.2872 170.034 78.0926C166.497 79.8077 164.621 81.2012 161.673 84.2027L157.868 88.1153L155.67 84.7922C151.329 78.4142 147.577 67.9627 146.184 58.5832C145.969 57.136 145.594 56.1713 145.38 56.4393C144.361 57.5648 143.021 65.2828 142.968 70.1066C142.968 73.0008 142.807 75.3591 142.646 75.3591C142.485 75.3591 141.038 74.6623 139.43 73.7512C137.822 72.8936 136.375 72.1433 136.161 72.1433C134.767 72.1433 136.375 81.5228 138.412 85.6498C139.27 87.3649 139.805 88.7584 139.698 88.7584C139.591 88.7584 137.876 88.0617 135.946 87.1505C131.712 85.221 131.712 84.8994 136.375 94.6006C139.002 100.121 140.181 101.89 142.968 104.677C145.808 107.518 146.184 108.053 145.219 108.107C144.576 108.107 139.055 108.429 132.891 108.75C126.781 109.125 121.797 109.233 121.797 109.072C121.797 108.911 122.494 108.107 123.351 107.303C124.209 106.499 125.709 104.087 126.674 101.997C128.282 98.5132 128.496 97.602 128.657 92.2423C128.872 86.7217 128.764 85.9178 127.21 81.3084C126.299 78.6285 125.549 76.1631 125.549 75.9487C125.549 75.6807 127.103 74.448 129.032 73.2152C130.962 71.9289 133.106 70.2674 133.803 69.4098C135.571 67.3195 136.911 63.5677 136.697 61.3702C136.59 59.8695 136.322 59.5479 135.25 59.5479C134.231 59.5479 133.642 60.0839 132.731 61.9598C132.087 63.2997 130.748 65.0684 129.836 65.9796L128.121 67.5875L129.193 65.39C130.319 63.1925 130.265 62.4958 128.979 62.4958C127.746 62.4958 121.314 70.4281 120.671 72.84C120.35 74.0728 119.867 75.3591 119.599 75.6807C119.331 76.0559 118.206 79.2717 117.187 82.9163C114.883 90.9023 112.685 95.9405 111.077 96.798C109.523 97.6556 107.861 97.1732 103.895 94.6541C102.073 93.475 99.5003 92.0815 98.1604 91.4919C94.6229 89.9376 88.1377 89.08 82.6707 89.4552L77.847 89.7768V88.3297C77.847 85.1674 78.8653 83.0771 80.7948 82.166C82.9387 81.1476 83.0459 80.6116 81.6524 77.3422C81.0092 75.8415 80.7948 74.7159 81.1164 74.2336C81.438 73.6976 81.2236 73.2152 80.3661 72.5721C79.2941 71.7145 79.2405 71.5537 79.9909 70.4282C80.634 69.3562 81.0092 66.8371 81.1164 62.603C81.17 61.9062 80.6876 60.7806 80.0445 60.1375C79.4013 59.4943 78.9189 58.476 78.9189 57.8864C78.9189 56.7608 77.0966 54.4562 76.2391 54.4562C75.9175 54.4562 75.7031 53.8666 75.7031 53.1162C75.7031 51.0795 73.8272 49.5252 71.6833 49.686C70.5041 49.7932 69.4858 49.5252 68.8426 48.882C68.2531 48.3997 67.2883 48.0245 66.7523 48.1317C66.2164 48.1853 65.198 47.8637 64.4476 47.3277C62.9469 46.2558 61.9286 46.2022 60.4278 47.0597ZM146.184 61.2094C147.363 69.0346 151.007 78.8429 154.974 84.7922L157.6 88.812L156.046 92.2423C154.116 96.5301 153.366 99.7995 153.258 104.891L153.151 108.857L151.543 108.697C146.023 108.107 141.36 103.659 137.179 95.0829C132.784 86.025 132.731 86.293 137.554 88.4904C139.752 89.5088 141.681 90.3664 141.842 90.3664C142.057 90.3664 141.467 89.4016 140.556 88.1689C138.358 85.1138 136.858 80.826 136.429 76.3239L136.107 72.5184L139.591 74.5016C141.521 75.5735 143.182 76.4311 143.289 76.4311C143.397 76.4311 143.504 73.9656 143.504 70.9641C143.504 65.6044 144.576 58.7439 145.38 58.7439C145.594 58.7439 145.969 59.8695 146.184 61.2094ZM135.946 62.603C135.786 66.5156 134.124 69.0882 129.622 72.1433C127.425 73.5904 125.495 75.0375 125.281 75.3591C124.959 75.8415 121.85 75.5199 121.154 74.8767C120.296 74.1264 121.85 71.0177 125.066 67.1587C128.925 62.5494 130.533 61.6918 128.764 65.2292C128.121 66.462 127.746 67.5339 127.907 67.6947C128.764 68.5523 131.284 65.8188 133.749 61.4238C135.035 59.0655 136 59.6015 135.946 62.603ZM77.311 70.5354C78.7581 71.9825 80.1517 73.2152 80.4733 73.2152C80.902 73.2152 80.9556 73.5368 80.5804 74.18C80.2053 74.8231 80.4197 75.8415 81.17 77.6638C82.0276 79.5933 82.1348 80.3437 81.6524 80.9332C80.8484 81.898 76.5606 83.0771 75.1671 82.702C74.5775 82.5412 74.0952 82.6483 74.0952 82.9163C74.0952 83.1843 75.0599 83.3987 76.1855 83.3987H78.3294L77.7934 85.1138C76.9894 87.9009 77.2038 91.0631 78.3829 93.2606L79.4013 95.3509L75.8103 94.9757C73.8272 94.8149 71.3617 94.6541 70.3434 94.6541C67.0203 94.6541 66.9667 94.3862 69.0034 87.7401C70.0218 84.3635 70.8793 81.5764 70.8793 81.4692C70.8793 81.362 70.5577 81.2548 70.129 81.2548C68.9498 81.2548 66.9667 78.5213 67.6635 77.8246C68.0387 77.4494 68.521 77.4494 69.2714 77.9318C70.1826 78.5213 70.3434 78.4142 70.6649 77.0742C70.8793 76.2703 71.4153 75.1983 71.8977 74.6087C72.4872 73.912 72.7016 72.7864 72.648 70.7497C72.4872 68.1235 72.5944 67.8555 73.6128 67.8555C74.256 67.8555 75.8639 68.981 77.311 70.5354ZM226.312 76.4311C226.687 78.8429 226.848 82.1124 226.687 83.6667L226.365 86.6145L229.152 85.1138C230.707 84.3099 232.154 83.5595 232.422 83.4523C233.172 83.1307 232.315 88.9728 231.135 92.0815C230.599 93.5822 229.42 95.5117 228.616 96.3693C226.848 98.2452 227.437 98.2452 231.35 96.4765C233.065 95.7261 234.512 95.1901 234.673 95.2973C235.155 95.8333 229.527 106.446 227.652 108.536C224.972 111.484 221.541 113.038 217.629 113.038C215.914 113.038 214.413 112.931 214.252 112.77C214.091 112.609 214.252 111.216 214.574 109.608C214.949 107.893 215.056 104.784 214.895 101.836L214.574 97.0124L216.503 94.3326C217.522 92.8854 219.237 89.9912 220.202 87.8473C222.077 83.9347 224.704 75.0375 224.704 72.7864C224.704 70.1066 225.668 72.3577 226.312 76.4311ZM192.224 75.8951C197.959 77.3422 201.282 79.2717 205.73 83.6667C211.948 89.8304 214.895 97.3876 214.359 105.91C214.199 108.429 213.77 111.269 213.448 112.18C212.859 113.788 212.591 113.949 210.661 113.949C208.624 113.949 208.517 113.896 208.785 112.448L209.107 111.001L208.464 112.448L207.874 113.949H200.424C193.671 113.949 193.028 113.842 193.671 113.092C194.046 112.663 194.368 111.109 194.368 109.661C194.421 105.963 193.135 104.516 187.454 101.622C183.005 99.3707 182.63 99.1027 182.63 97.602C182.63 94.9757 185.363 94.6006 191.42 96.3157C192.384 96.5836 193.51 92.7246 192.706 91.9207C192.438 91.6527 191.152 91.2239 189.812 91.0095C187.561 90.6344 187.454 90.5272 187.293 88.5977C187.132 86.6145 187.078 86.561 185.149 86.7217C183.273 86.8825 183.166 86.9897 183.005 88.8656C182.844 90.5807 182.576 90.9023 181.022 91.4383C180.004 91.7599 178.449 92.8854 177.538 93.9038C176.198 95.4581 175.93 96.2085 175.93 98.5132C175.93 100.979 176.145 101.461 177.967 103.176C179.092 104.248 181.236 105.534 182.791 106.07C185.953 107.25 188.257 108.857 188.257 109.983C188.257 112.609 183.702 113.681 179.146 112.073C177.913 111.645 176.788 111.269 176.734 111.269C176.627 111.269 176.412 111.859 176.252 112.609L175.93 113.949H169.016H162.102L161.191 110.519C159.905 105.802 160.28 99.8531 162.102 95.2973C163.603 91.7063 163.656 90.9559 162.209 93.6894C159.529 98.8883 159.101 106.446 161.137 112.77C161.512 113.949 161.459 114.003 159.208 113.842C156.903 113.681 156.903 113.681 156.26 111.001C154.813 104.516 155.831 96.5836 158.886 90.6879C160.976 86.6682 167.14 80.4509 170.946 78.4142C174.59 76.4846 180.754 74.8767 184.827 74.8767C186.596 74.8231 189.973 75.3055 192.224 75.8951ZM124.584 76.8062C125.066 77.235 126.085 79.5933 126.889 82.0588C128.228 86.0786 128.336 87.0969 128.121 92.2959C127.907 97.4412 127.693 98.5668 126.245 101.622C122.869 108.804 118.42 112.02 111.881 112.073C107.111 112.073 103.252 110.787 98.7499 107.785C96.8204 106.499 95.2125 105.534 95.1053 105.642C94.9981 105.749 95.3197 107.089 95.8021 108.697C96.2845 110.305 96.874 115.075 97.142 119.845C97.6244 127.777 98.4284 131.744 100.304 135.281C100.84 136.246 100.626 136.353 97.5172 136.674C85.4578 138.014 70.5041 143.428 60.4814 150.074C58.4447 151.414 56.676 152.539 56.5152 152.539C55.9793 152.539 56.9976 146.536 58.016 143.857C58.6055 142.302 59.9455 139.622 60.9638 137.907C61.9822 136.192 62.8397 134.263 62.8397 133.619C62.8397 132.869 61.9286 131.529 60.6958 130.296C59.5167 129.171 58.5519 128.045 58.5519 127.885C58.5519 127.295 62.2502 125.794 66.3235 124.722C70.7185 123.543 71.4153 123.275 71.4153 122.525C71.4153 121.614 67.3955 119.898 63.6973 119.255L60.1063 118.559L57.6408 120.97L55.1753 123.329L55.4969 121.292L55.8185 119.309H53.5674C48.2612 119.309 44.0807 121.828 44.0807 124.937C44.0807 126.223 43.0623 128.206 40.0073 132.655C37.8098 135.924 35.8267 138.604 35.6659 138.604C34.6475 138.604 31.8605 135.763 30.7885 133.673C27.0903 126.277 28.8054 118.934 35.8803 111.269C41.4008 105.32 51.3163 98.5668 59.2487 95.2973C64.2333 93.2606 66.5915 92.7782 66.5915 93.8502C66.5915 94.279 66.6451 94.7077 66.7523 94.7077C66.8059 94.7613 70.1826 95.0293 74.2024 95.4045L81.5452 95.9941L80.0445 94.3862C79.1869 93.5286 78.3294 92.2423 78.1686 91.5991C77.847 90.5272 78.0614 90.42 80.8484 90.0448C84.3323 89.616 90.6567 90.0448 94.8373 90.9023C96.3917 91.2775 99.5539 92.7246 102.073 94.2254C110.166 99.1563 111.238 99.1027 113.972 93.4214C115.044 91.3311 116.759 86.561 117.777 82.9163C118.795 79.2717 119.814 76.1095 119.921 75.8415C120.35 75.1983 123.458 75.8951 124.584 76.8062ZM271.119 103.176C274.496 104.73 276.693 108.589 276.693 113.038C276.693 115.021 276.586 115.128 275.514 114.7C274.817 114.485 261.847 114.11 246.679 113.949C231.511 113.788 219.612 113.574 220.309 113.52C223.417 113.252 228.616 109.233 230.385 105.749C230.814 104.945 231.243 104.248 231.296 104.248C231.511 104.141 263.401 102.319 266.242 102.265C267.85 102.211 269.833 102.587 271.119 103.176ZM99.0715 108.697L101.537 110.465L99.2859 110.626C98.0532 110.733 96.9812 110.733 96.874 110.626C96.5525 110.251 96.0165 106.982 96.2845 106.982C96.4453 106.982 97.678 107.785 99.0715 108.697ZM151.007 109.179C153.098 109.715 153.366 109.983 153.848 111.859L154.384 113.949H125.763H97.142V112.663C97.142 111.537 97.41 111.377 99.9291 111.162C101.751 110.948 103.52 111.162 104.914 111.698C106.093 112.127 108.933 112.502 111.345 112.556C114.883 112.609 116.115 112.395 118.313 111.269C120.671 110.144 122.118 109.929 131.712 109.34C146.398 108.536 148.327 108.482 151.007 109.179ZM216.021 113.788C215.485 113.896 214.627 113.896 214.145 113.788C213.609 113.628 214.038 113.52 215.056 113.52C216.075 113.52 216.503 113.628 216.021 113.788ZM275.889 115.879C277.068 116.468 278.783 118.023 279.641 119.255L281.249 121.56L281.41 146.965L281.57 172.37H262.651C251.395 172.37 242.927 172.585 241.748 172.906C240.676 173.228 239.175 174.193 238.425 175.104C237.031 176.712 237.031 176.765 237.031 186.895V197.025L238.853 199.062L240.676 201.045L258.684 201.206C275.246 201.366 276.693 201.42 276.747 202.278C276.8 203.135 276.854 203.135 277.068 202.224C277.229 201.581 277.872 201.313 279.427 201.313H281.517V225.968C281.517 247.031 281.41 250.944 280.713 252.659C279.587 255.285 277.926 257 275.353 258.18C273.316 259.144 269.511 259.198 180.218 259.198C90.9247 259.198 87.1193 259.144 85.0826 258.18C82.5099 257 80.8484 255.285 79.7229 252.659C78.8117 250.408 78.6509 247.085 79.4549 246.603C79.7765 246.388 81.0628 244.459 82.3492 242.208L84.761 238.188L84.9754 240.225C85.1362 241.993 85.1898 241.886 85.2434 239.474C85.3506 237.33 85.9402 235.562 87.7089 231.971C93.9798 219.429 100.894 199.115 100.894 193.273C100.894 192.255 98.7499 179.445 96.1237 164.867C93.4974 150.288 91.4071 138.282 91.5143 138.175C91.5679 138.122 93.7654 137.746 96.3917 137.425C99.0179 137.103 101.269 136.728 101.376 136.674C101.483 136.567 101.055 135.388 100.358 133.995C98.6427 130.296 97.678 125.097 97.678 119.416V114.485L185.738 114.592L273.745 114.753L275.889 115.879ZM65.2516 120.166C68.3603 120.917 71.2009 122.364 70.7185 122.846C70.6113 122.954 68.6818 123.543 66.4843 124.133C64.2333 124.722 61.339 125.633 59.9991 126.223L57.5336 127.295L56.4616 125.955L55.3897 124.561L57.6408 121.935C60.1599 119.041 60.5886 118.934 65.2516 120.166ZM54.8001 121.453C54.8001 122.632 54.5857 122.954 53.9962 122.686C53.5138 122.525 52.7098 122.793 52.1739 123.275C51.3163 124.079 51.1555 124.079 50.5123 123.329C49.5476 122.15 48.1541 122.364 46.2781 123.918C44.6166 125.312 44.1343 124.937 45.1526 123.061C46.1174 121.292 49.3332 120.006 53.085 119.898C54.6393 119.845 54.8001 120.006 54.8001 121.453ZM49.7084 123.597C49.8692 123.865 49.6548 124.133 49.226 124.133C48.7972 124.133 48.1541 124.615 47.8325 125.205C47.5109 125.794 46.7605 126.277 46.1174 126.277C44.9918 126.277 45.0454 126.169 46.4925 124.669C48.1005 123.007 49.1188 122.686 49.7084 123.597ZM56.0329 126.652L58.0696 130.243L56.8368 131.261C51.9595 135.227 44.563 139.247 43.7055 138.39C43.0623 137.8 47.4037 126.813 48.5292 126.223C49.3868 125.741 49.4404 125.526 48.8508 125.097C48.3148 124.722 48.3684 124.669 49.1724 124.883C49.762 125.044 50.9411 124.722 51.8523 124.133C52.7634 123.543 53.5674 123.061 53.7282 123.061C53.889 123.061 54.9073 124.722 56.0329 126.652ZM46.5997 127.456C46.4925 127.831 45.4742 130.618 44.4022 133.619C42.6871 138.229 42.2047 139.086 41.0256 139.408C39.6857 139.73 36.577 139.301 36.577 138.818C36.577 138.658 38.3993 135.924 40.6504 132.708C43.5447 128.474 44.9918 126.813 45.7958 126.813C46.4389 126.813 46.7605 127.081 46.5997 127.456ZM60.3742 130.564C61.4462 131.744 62.3037 133.083 62.3037 133.512C62.3037 133.941 61.2318 136.299 59.8919 138.765C58.6055 141.177 57.1584 144.607 56.7296 146.322C56.2472 148.037 55.8185 149.591 55.7113 149.699C55.6041 149.806 55.0681 146.429 54.5857 142.249L53.6746 134.584L56.2472 132.387C58.4983 130.457 58.7127 130.028 58.0696 129.278C56.5152 127.402 58.5519 128.528 60.3742 130.564ZM54.3177 144.392C54.9609 149.484 55.3897 153.772 55.2289 153.879C54.7465 154.362 41.9368 154.844 41.9368 154.362C41.9904 154.094 43.0087 150.449 44.295 146.215L46.5997 138.497L49.762 136.728C51.4771 135.763 52.9778 135.013 53.0314 135.067C53.085 135.12 53.6746 139.301 54.3177 144.392ZM43.5447 146.912C41.24 154.576 41.1864 154.683 39.6857 154.683C37.8634 154.683 37.8634 154.844 40.8648 145.84C42.3655 141.284 43.1159 139.783 44.1343 139.301C44.831 138.926 45.4742 138.765 45.635 138.872C45.7422 139.033 44.831 142.624 43.5447 146.912ZM41.9368 140.212C41.9368 140.748 37.5954 154.362 37.381 154.576C37.113 154.898 29.127 151.467 28.8054 150.931C28.6982 150.771 30.1989 148.144 32.182 145.196L35.7731 139.783L38.8281 139.837C40.5432 139.89 41.9368 140.051 41.9368 140.212ZM25.2144 150.02C27.3583 151.146 27.4119 151.307 26.7151 152.271C25.4288 153.986 25.7504 154.576 27.0903 152.968L28.2694 151.467L34.1651 154.147C37.381 155.648 40.1145 156.934 40.2216 157.041C40.3288 157.149 40.168 158.113 39.9001 159.185C39.5785 160.311 39.5249 161.008 39.8465 160.847C40.1145 160.632 40.3288 160.096 40.3288 159.614C40.3288 157.792 41.0792 157.256 42.6871 157.953C43.4911 158.328 44.0271 158.864 43.9199 159.185C43.8127 159.507 41.3472 168.136 38.4529 178.373C35.5051 188.664 32.9324 197.025 32.6644 197.025C31.9677 197.025 0.666806 178.695 0.666806 178.32C0.666806 178.105 3.02509 175.318 5.81215 172.102C11.8687 165.188 18.5147 156.13 20.7658 151.843C21.677 150.181 22.4809 148.787 22.6417 148.787C22.8025 148.841 23.9281 149.377 25.2144 150.02ZM55.9257 156.559L56.3008 158.167L56.3544 156.398C56.408 154.737 56.4616 154.683 58.8199 154.683C60.1599 154.683 61.2318 154.737 61.2318 154.79C61.2318 154.898 63.0005 166.153 65.198 179.874C67.3419 193.595 68.9498 204.957 68.789 205.118C68.1995 205.761 21.0338 208.602 21.0338 208.013C21.0338 206.351 23.9281 193.273 24.3032 193.273C24.5712 193.273 26.6079 194.399 28.859 195.739L32.9324 198.258L38.0778 196.221C40.972 195.096 43.4375 194.024 43.7055 193.809C43.9199 193.648 44.563 186.145 45.099 177.14C46.171 159.185 46.171 159.239 43.0087 157.631C42.0976 157.149 41.4008 156.452 41.4008 156.023C41.4008 155.273 45.9566 154.844 52.9242 154.898C55.4433 154.951 55.6041 155.058 55.9257 156.559ZM40.8648 155.755C40.8648 156.023 40.5432 156.291 40.1145 156.291C39.6857 156.291 39.1497 156.023 38.9889 155.755C38.8281 155.434 39.1497 155.219 39.7393 155.219C40.3824 155.219 40.8648 155.434 40.8648 155.755ZM63.6973 156.184C64.5548 156.881 66.27 162.026 70.8793 178.159C74.1488 189.682 76.775 199.383 76.6678 199.651C76.5606 199.919 75.0063 201.259 73.184 202.599C69.9682 204.957 69.8074 205.011 69.5394 203.832C69.3786 203.189 67.7171 192.523 65.7876 180.142C63.8581 167.761 62.1966 157.095 62.0358 156.398C61.7142 155.005 62.1966 154.898 63.6973 156.184ZM44.563 176.872C44.0271 185.662 43.3839 193.059 43.1695 193.273C42.4191 194.024 34.3795 197.132 34.1115 196.864C33.9508 196.703 36.2018 188.235 39.0961 178.052C42.9551 164.438 44.5094 159.721 44.9382 160.204C45.367 160.686 45.2598 165.295 44.563 176.872ZM283.393 173.442C284.679 173.71 286.126 174.568 287.037 175.586L288.485 177.194V186.627C288.485 194.077 288.324 196.328 287.627 197.615C286.073 200.67 285.215 200.777 262.758 200.777C240.836 200.777 240.301 200.723 238.425 197.99C237.245 196.328 237.192 178.427 238.317 176.229C239.068 174.729 240.676 173.71 242.659 173.281C244.91 172.853 281.356 172.96 283.393 173.442ZM52.6562 247.031C52.6562 247.675 52.2275 250.998 51.7451 254.374C50.3515 263.539 50.4587 265.522 52.817 269.221C54.6393 272.222 54.6929 272.329 53.5674 272.544C51.4771 272.865 47.2965 266.594 47.2965 263.111C47.2965 262.253 47.7253 259.734 48.3148 257.536C48.8508 255.339 49.494 252.23 49.7084 250.622C50.1908 246.388 50.4587 245.799 51.6379 245.799C52.3346 245.799 52.6562 246.174 52.6562 247.031ZM58.016 252.82V259.198L56.5688 259.52C54.1034 260.056 53.8354 260.27 56.0329 260.056C57.9088 259.788 58.016 259.895 58.016 261.342C58.016 262.682 57.8016 262.896 56.3008 263.111L54.5321 263.325L56.4616 263.379C57.748 263.486 58.8199 263.968 59.7847 264.986C61.071 266.326 61.1782 266.755 60.7494 267.934C60.4278 268.685 59.1951 270.025 57.9624 270.829L55.7649 272.276L54.6393 270.989C54.0498 270.239 52.9778 268.363 52.281 266.809L50.9411 264.022L52.1203 255.553C52.7634 250.944 53.353 246.871 53.4602 246.603C53.5138 246.281 54.5857 246.12 55.8185 246.227L58.016 246.442V252.82ZM78.5437 269.489C79.3477 271.043 79.7765 272.49 79.5085 272.758C79.2941 272.972 77.9006 273.669 76.4534 274.259C74.1488 275.224 74.0416 275.277 75.7031 275.009C76.7214 274.848 78.1686 274.259 78.9189 273.723C80.2589 272.758 80.3661 272.758 81.4916 273.669C82.1348 274.205 82.6707 274.795 82.6707 275.009C82.6707 275.17 81.5988 275.813 80.2589 276.403C78.9189 276.992 77.847 277.582 77.847 277.689C77.847 278.118 81.3844 276.724 82.2956 275.92C83.0459 275.277 83.4747 275.17 84.1715 275.652C85.565 276.51 85.2434 277.528 83.2603 278.868C82.242 279.565 81.6524 280.101 81.9204 280.101C82.1884 280.101 83.3139 279.511 84.3859 278.761C85.4578 278.011 86.5833 277.421 86.7977 277.421C87.7625 277.421 92.2647 282.084 92.5863 283.478C93.2294 285.889 92.6934 286.479 90.0672 286.157C82.5635 285.353 76.0247 282.62 71.2009 278.386L68.5746 276.028L68.9498 271.901L69.3786 267.774L71.3081 267.72C72.4336 267.666 74.0416 267.452 74.8991 267.238C75.8103 267.023 76.6678 266.809 76.8286 266.755C77.043 266.755 77.7934 267.988 78.5437 269.489ZM71.5225 279.297C75.8639 283.156 83.9571 286.533 89.1024 286.533C92.8006 286.533 93.283 288.087 89.9064 289.212C84.6538 290.928 69.9146 284.925 68.1995 280.369C67.7707 279.19 68.0387 276.885 68.5746 276.885C68.7354 276.885 70.0218 277.957 71.5225 279.297Z" fill="black"/>
<path d="M178.77 79.9149C177.216 80.3437 174.75 81.3084 173.357 82.0052C170.677 83.3451 164.674 88.4369 164.674 89.348C164.674 89.616 166.014 88.5441 167.676 86.9361C172.928 81.7372 179.681 79.2717 186.917 79.8077C194.367 80.3973 201.281 84.3635 205.301 90.3664C206.534 92.1887 207.552 93.475 207.552 93.207C207.552 92.1351 204.122 87.5793 201.763 85.489C195.546 80.0221 186.542 77.8246 178.77 79.9149Z" fill="black"/>
<path d="M86.7969 127.617C84.2242 132.762 82.2947 136.996 82.5627 136.942C82.9915 136.942 91.9423 118.719 91.6743 118.451C91.5671 118.344 89.3696 122.471 86.7969 127.617Z" fill="black"/>
<path d="M91.4603 127.67C90.7099 129.332 90.2276 130.832 90.3883 130.993C90.5491 131.1 90.9243 130.672 91.1923 129.975C91.4603 129.278 92.0499 127.777 92.4786 126.652C93.8186 123.49 92.961 124.347 91.4603 127.67Z" fill="black"/>
<path d="M101.59 119.684C102.394 119.791 103.574 119.791 104.27 119.684C104.913 119.577 104.27 119.47 102.77 119.47C101.322 119.47 100.733 119.577 101.59 119.684Z" fill="black"/>
<path d="M110.166 119.684C110.97 119.791 112.149 119.791 112.846 119.684C113.489 119.577 112.846 119.47 111.345 119.47C109.898 119.47 109.308 119.577 110.166 119.684Z" fill="black"/>
<path d="M118.473 119.684C119.116 119.791 120.188 119.791 120.885 119.684C121.528 119.577 120.992 119.47 119.652 119.47C118.313 119.47 117.777 119.577 118.473 119.684Z" fill="black"/>
<path d="M126.781 119.684C127.585 119.791 128.764 119.791 129.461 119.684C130.104 119.577 129.461 119.47 127.96 119.47C126.513 119.47 125.924 119.577 126.781 119.684Z" fill="black"/>
<path d="M135.357 119.684C136.161 119.791 137.34 119.791 138.036 119.684C138.68 119.577 138.036 119.47 136.536 119.47C135.089 119.47 134.499 119.577 135.357 119.684Z" fill="black"/>
<path d="M143.664 119.684C144.307 119.791 145.379 119.791 146.076 119.684C146.719 119.577 146.183 119.47 144.843 119.47C143.503 119.47 142.967 119.577 143.664 119.684Z" fill="black"/>
<path d="M151.972 119.684C152.776 119.791 153.955 119.791 154.652 119.684C155.295 119.577 154.652 119.47 153.151 119.47C151.704 119.47 151.114 119.577 151.972 119.684Z" fill="black"/>
<path d="M160.547 119.684C161.351 119.791 162.53 119.791 163.227 119.684C163.87 119.577 163.227 119.47 161.726 119.47C160.279 119.47 159.689 119.577 160.547 119.684Z" fill="black"/>
<path d="M168.855 119.684C169.498 119.791 170.57 119.791 171.267 119.684C171.91 119.577 171.374 119.47 170.034 119.47C168.694 119.47 168.158 119.577 168.855 119.684Z" fill="black"/>
<path d="M177.163 119.684C177.967 119.791 179.146 119.791 179.843 119.684C180.486 119.577 179.843 119.47 178.342 119.47C176.895 119.47 176.305 119.577 177.163 119.684Z" fill="black"/>
<path d="M185.738 119.684C186.542 119.791 187.721 119.791 188.418 119.684C189.061 119.577 188.418 119.47 186.917 119.47C185.47 119.47 184.88 119.577 185.738 119.684Z" fill="black"/>
<path d="M194.046 119.684C194.689 119.791 195.761 119.791 196.457 119.684C197.101 119.577 196.565 119.47 195.225 119.47C193.885 119.47 193.349 119.577 194.046 119.684Z" fill="black"/>
<path d="M202.353 119.684C203.157 119.791 204.336 119.791 205.033 119.684C205.676 119.577 205.033 119.47 203.533 119.47C202.085 119.47 201.496 119.577 202.353 119.684Z" fill="black"/>
<path d="M210.928 119.684C211.732 119.791 212.911 119.791 213.608 119.684C214.251 119.577 213.608 119.47 212.107 119.47C210.66 119.47 210.071 119.577 210.928 119.684Z" fill="black"/>
<path d="M219.236 119.684C219.879 119.791 220.951 119.791 221.648 119.684C222.291 119.577 221.755 119.47 220.415 119.47C219.075 119.47 218.539 119.577 219.236 119.684Z" fill="black"/>
<path d="M227.812 119.684C228.455 119.791 229.527 119.791 230.224 119.684C230.867 119.577 230.331 119.47 228.991 119.47C227.651 119.47 227.115 119.577 227.812 119.684Z" fill="black"/>
<path d="M236.119 119.684C236.923 119.791 238.102 119.791 238.799 119.684C239.442 119.577 238.799 119.47 237.298 119.47C235.851 119.47 235.262 119.577 236.119 119.684Z" fill="black"/>
<path d="M244.427 119.684C245.07 119.791 246.142 119.791 246.839 119.684C247.482 119.577 246.946 119.47 245.606 119.47C244.266 119.47 243.73 119.577 244.427 119.684Z" fill="black"/>
<path d="M253.003 119.684C253.646 119.791 254.718 119.791 255.415 119.684C256.058 119.577 255.522 119.47 254.182 119.47C252.842 119.47 252.306 119.577 253.003 119.684Z" fill="black"/>
<path d="M261.31 119.684C262.114 119.791 263.293 119.791 263.99 119.684C264.633 119.577 263.99 119.47 262.489 119.47C261.042 119.47 260.452 119.577 261.31 119.684Z" fill="black"/>
<path d="M270.046 119.791C270.957 120.006 271.976 120.381 272.297 120.595C272.673 120.81 272.941 120.756 272.941 120.488C272.941 119.899 271.065 119.309 269.457 119.363C268.814 119.416 269.028 119.577 270.046 119.791Z" fill="black"/>
<path d="M275.729 123.329C275.729 123.597 276.051 124.722 276.426 125.741C276.801 126.759 277.177 127.241 277.177 126.813C277.177 126.384 276.855 125.258 276.426 124.401C276.051 123.49 275.729 123.007 275.729 123.329Z" fill="black"/>
<path d="M276.854 133.78C276.854 135.12 276.961 135.656 277.068 134.959C277.175 134.316 277.175 133.244 277.068 132.547C276.961 131.904 276.854 132.44 276.854 133.78Z" fill="black"/>
<path d="M276.854 142.088C276.854 143.535 276.961 144.125 277.068 143.267C277.175 142.463 277.175 141.284 277.068 140.587C276.961 139.944 276.854 140.587 276.854 142.088Z" fill="black"/>
<path d="M276.854 150.395C276.854 151.735 276.961 152.271 277.068 151.575C277.175 150.931 277.175 149.859 277.068 149.163C276.961 148.519 276.854 149.055 276.854 150.395Z" fill="black"/>
<path d="M276.854 158.971C276.854 160.311 276.961 160.847 277.068 160.15C277.175 159.507 277.175 158.435 277.068 157.738C276.961 157.095 276.854 157.631 276.854 158.971Z" fill="black"/>
<path d="M219.665 164.438C218.271 166.153 217.2 167.707 217.307 167.868C217.467 167.975 218.7 166.635 220.147 164.867C223.417 160.633 223.095 160.311 219.665 164.438Z" fill="black"/>
<path d="M158.885 169.744C155.562 173.817 153.043 177.194 153.257 177.14C153.793 177.14 165.424 162.723 165.102 162.455C164.995 162.348 162.208 165.617 158.885 169.744Z" fill="black"/>
<path d="M276.854 167.279C276.854 168.726 276.961 169.315 277.068 168.458C277.175 167.654 277.175 166.475 277.068 165.778C276.961 165.135 276.854 165.778 276.854 167.279Z" fill="black"/>
<path d="M206.91 180.249C198.441 190.701 197.745 191.665 198.12 191.665C198.388 191.665 213.877 172.746 214.681 171.406C216.129 169.154 213.663 171.942 206.91 180.249Z" fill="black"/>
<path d="M144.254 187.753C138.627 194.72 137.716 195.953 138.091 195.953C138.52 195.953 149.775 181.964 149.561 181.696C149.453 181.589 147.042 184.323 144.254 187.753Z" fill="black"/>
<path d="M188.309 203.296C184.343 208.173 181.395 212.086 181.717 211.979C182.36 211.711 195.92 194.881 195.652 194.613C195.545 194.506 192.222 198.419 188.309 203.296Z" fill="black"/>
<path d="M131.282 203.832C128.71 206.994 126.619 209.835 126.619 210.103C126.619 210.317 128.817 207.852 131.443 204.529C134.123 201.206 136.267 198.419 136.267 198.311C136.267 197.722 135.517 198.526 131.282 203.832Z" fill="black"/>
<path d="M199.297 211.55C195.224 216.588 192.008 220.769 192.115 220.876C192.223 220.983 195.653 216.963 199.673 211.925C203.746 206.941 206.962 202.706 206.855 202.599C206.747 202.492 203.371 206.512 199.297 211.55Z" fill="black"/>
<path d="M276.854 209.352C276.854 210.692 276.961 211.228 277.068 210.532C277.175 209.888 277.175 208.817 277.068 208.12C276.961 207.477 276.854 208.013 276.854 209.352Z" fill="black"/>
<path d="M276.854 217.66C276.854 219.107 276.961 219.697 277.068 218.839C277.175 218.035 277.175 216.856 277.068 216.159C276.961 215.516 276.854 216.159 276.854 217.66Z" fill="black"/>
<path d="M182.898 231.703C179.2 236.312 175.287 241.243 174.162 242.69C173.036 244.084 172.286 245.263 172.554 245.263C172.768 245.209 175.877 241.564 179.414 237.116C182.952 232.667 186.864 227.736 188.151 226.182C189.437 224.574 190.295 223.288 190.027 223.341C189.812 223.341 186.596 227.093 182.898 231.703Z" fill="black"/>
<path d="M276.854 225.968C276.854 227.308 276.961 227.844 277.068 227.147C277.175 226.504 277.175 225.432 277.068 224.735C276.961 224.092 276.854 224.628 276.854 225.968Z" fill="black"/>
<path d="M276.854 234.543C276.854 235.883 276.961 236.419 277.068 235.722C277.175 235.079 277.175 234.007 277.068 233.311C276.961 232.667 276.854 233.203 276.854 234.543Z" fill="black"/>
<path d="M276.854 242.851C276.854 244.298 276.961 244.887 277.068 244.03C277.175 243.226 277.175 242.047 277.068 241.35C276.961 240.707 276.854 241.35 276.854 242.851Z" fill="black"/>
<path d="M85.1897 247.675C85.5113 249.818 85.7257 250.462 86.1009 250.033C86.2081 249.926 85.9401 248.854 85.5649 247.675L84.8682 245.531L85.1897 247.675Z" fill="black"/>
<path d="M275.193 251.051L273.96 253.034L275.3 251.534C276.051 250.73 276.694 249.818 276.694 249.497C276.694 248.693 276.479 248.907 275.193 251.051Z" fill="black"/>
<path d="M88.5654 253.302C88.5654 253.892 92.2636 255.125 92.6924 254.696C92.9068 254.535 92.6924 254.374 92.2636 254.374C91.8349 254.374 90.8701 253.999 90.0662 253.624C89.2086 253.195 88.5654 253.034 88.5654 253.302Z" fill="black"/>
<path d="M97.8382 254.749C98.6422 254.857 99.8213 254.857 100.518 254.749C101.161 254.642 100.518 254.535 99.0174 254.535C97.5703 254.535 96.9807 254.642 97.8382 254.749Z" fill="black"/>
<path d="M106.146 254.749C106.789 254.857 107.861 254.857 108.558 254.749C109.201 254.642 108.665 254.535 107.325 254.535C105.985 254.535 105.449 254.642 106.146 254.749Z" fill="black"/>
<path d="M114.454 254.749C115.258 254.857 116.437 254.857 117.134 254.749C117.777 254.642 117.134 254.535 115.633 254.535C114.186 254.535 113.596 254.642 114.454 254.749Z" fill="black"/>
<path d="M123.029 254.749C123.833 254.857 125.012 254.857 125.709 254.749C126.352 254.642 125.709 254.535 124.208 254.535C122.761 254.535 122.171 254.642 123.029 254.749Z" fill="black"/>
<path d="M131.336 254.749C131.98 254.857 133.051 254.857 133.748 254.749C134.391 254.642 133.855 254.535 132.515 254.535C131.176 254.535 130.64 254.642 131.336 254.749Z" fill="black"/>
<path d="M139.644 254.749C140.448 254.857 141.627 254.857 142.324 254.749C142.967 254.642 142.324 254.535 140.824 254.535C139.376 254.535 138.787 254.642 139.644 254.749Z" fill="black"/>
<path d="M148.22 254.749C149.024 254.857 150.203 254.857 150.899 254.749C151.543 254.642 150.899 254.535 149.399 254.535C147.952 254.535 147.362 254.642 148.22 254.749Z" fill="black"/>
<path d="M156.527 254.749C157.17 254.857 158.242 254.857 158.939 254.749C159.582 254.642 159.046 254.535 157.706 254.535C156.366 254.535 155.831 254.642 156.527 254.749Z" fill="black"/>
<path d="M164.835 254.749C165.639 254.857 166.818 254.857 167.515 254.749C168.158 254.642 167.515 254.535 166.014 254.535C164.567 254.535 163.978 254.642 164.835 254.749Z" fill="black"/>
<path d="M173.411 254.749C174.215 254.857 175.394 254.857 176.091 254.749C176.734 254.642 176.091 254.535 174.59 254.535C173.143 254.535 172.553 254.642 173.411 254.749Z" fill="black"/>
<path d="M181.718 254.749C182.361 254.857 183.433 254.857 184.13 254.749C184.773 254.642 184.237 254.535 182.897 254.535C181.557 254.535 181.021 254.642 181.718 254.749Z" fill="black"/>
<path d="M190.026 254.749C190.83 254.857 192.009 254.857 192.706 254.749C193.349 254.642 192.706 254.535 191.205 254.535C189.758 254.535 189.168 254.642 190.026 254.749Z" fill="black"/>
<path d="M198.602 254.749C199.406 254.857 200.585 254.857 201.282 254.749C201.925 254.642 201.282 254.535 199.781 254.535C198.334 254.535 197.744 254.642 198.602 254.749Z" fill="black"/>
<path d="M206.909 254.749C207.552 254.857 208.624 254.857 209.321 254.749C209.964 254.642 209.428 254.535 208.088 254.535C206.748 254.535 206.212 254.642 206.909 254.749Z" fill="black"/>
<path d="M215.485 254.749C216.128 254.857 217.2 254.857 217.896 254.749C218.54 254.642 218.004 254.535 216.664 254.535C215.324 254.535 214.788 254.642 215.485 254.749Z" fill="black"/>
<path d="M223.793 254.749C224.597 254.857 225.776 254.857 226.472 254.749C227.116 254.642 226.472 254.535 224.972 254.535C223.525 254.535 222.935 254.642 223.793 254.749Z" fill="black"/>
<path d="M232.099 254.749C232.742 254.857 233.814 254.857 234.511 254.749C235.154 254.642 234.618 254.535 233.278 254.535C231.939 254.535 231.403 254.642 232.099 254.749Z" fill="black"/>
<path d="M240.675 254.749C241.319 254.857 242.391 254.857 243.087 254.749C243.731 254.642 243.195 254.535 241.855 254.535C240.515 254.535 239.979 254.642 240.675 254.749Z" fill="black"/>
<path d="M248.983 254.749C249.787 254.857 250.966 254.857 251.663 254.749C252.306 254.642 251.663 254.535 250.162 254.535C248.715 254.535 248.126 254.642 248.983 254.749Z" fill="black"/>
<path d="M257.29 254.749C257.933 254.857 259.005 254.857 259.702 254.749C260.345 254.642 259.809 254.535 258.469 254.535C257.129 254.535 256.593 254.642 257.29 254.749Z" fill="black"/>
<path d="M266.402 254.749C267.366 254.857 268.814 254.857 269.618 254.749C270.422 254.642 269.618 254.535 267.849 254.535C266.08 254.535 265.437 254.642 266.402 254.749Z" fill="black"/>
<path d="M245.873 182.125C240.835 184.858 242.604 192.201 248.285 192.201C250.054 192.201 250.858 191.88 252.09 190.647C256.378 186.306 251.179 179.177 245.873 182.125Z" fill="black"/>
<path d="M101.965 47.167C101.965 47.2742 102.394 47.7029 102.93 48.0781C103.734 48.7749 103.787 48.7213 103.09 47.8637C102.394 47.0062 101.965 46.7382 101.965 47.167Z" fill="black"/>
<path d="M107.809 47.8637C107.112 48.7213 107.165 48.7749 108.023 48.0781C108.505 47.7029 108.934 47.2742 108.934 47.167C108.934 46.7382 108.505 47.0062 107.809 47.8637Z" fill="black"/>
<path d="M102.447 53.2235C101.75 54.081 101.804 54.1346 102.661 53.4379C103.519 52.7411 103.787 52.3123 103.358 52.3123C103.251 52.3123 102.822 52.7411 102.447 53.2235Z" fill="black"/>
<path d="M107.324 52.5267C107.324 52.6339 107.753 53.0627 108.289 53.4379C109.093 54.1346 109.147 54.081 108.45 53.2235C107.753 52.3659 107.324 52.0979 107.324 52.5267Z" fill="black"/>
<path d="M259.326 73.5368C257.611 75.2519 258.898 78.039 261.363 78.039C262.703 78.039 264.364 76.5383 264.364 75.2519C264.364 74.1264 262.649 72.6793 261.256 72.6793C260.666 72.6793 259.755 73.0544 259.326 73.5368ZM263.292 74.2872C263.721 75.0376 263.721 75.6807 263.292 76.4311C262.274 78.307 259.005 77.503 259.005 75.3591C259.005 73.2152 262.274 72.4113 263.292 74.2872Z" fill="black"/>
<path d="M172.713 268.202C172.713 269.06 173.893 271.525 174.321 271.525C174.482 271.525 175.34 270.775 176.197 269.917C177.323 268.738 177.484 268.31 176.894 268.31C176.465 268.31 175.286 268.149 174.375 267.988C173.357 267.774 172.713 267.881 172.713 268.202ZM175.608 269.971C174.75 270.936 174.643 270.936 174 270.078C173.142 268.792 173.464 268.417 175.125 268.738C176.465 268.953 176.465 269.006 175.608 269.971Z" fill="black"/>
<path d="M167.889 272.115C162.905 273.937 154.007 275.76 146.879 276.456C139.536 277.153 129.567 276.564 123.296 275.063C121.581 274.688 120.188 274.527 120.188 274.741C120.188 275.277 126.083 276.296 133.426 276.992C143.502 277.957 155.401 276.617 166.013 273.294C168.372 272.544 170.515 271.74 170.837 271.472C171.48 270.829 171.373 270.882 167.889 272.115Z" fill="black"/>
<path d="M175.287 276.349C167.194 279.619 154.224 281.816 142.7 281.87C133.053 281.87 127.693 281.28 119.171 279.243C116.116 278.547 113.49 278.064 113.383 278.171C113.275 278.279 115.741 278.975 118.957 279.726C136.965 284.014 154.813 283.424 172.179 277.957C174.966 277.1 177.646 276.135 178.075 275.813C179.361 275.009 178.021 275.224 175.287 276.349Z" fill="black"/>
</svg>
