<svg width="278" height="220" viewBox="0 0 278 220" fill="none" xmlns="http://www.w3.org/2000/svg">
<path d="M246.777 5.76337L246.908 11.5704H252.584H258.261L258.173 9.69294C257.955 4.84648 253.021 0.0873308 248.087 7.62939e-06H246.646L246.777 5.76337ZM251.406 2.57606C252.279 3.05634 253.545 3.97324 254.2 4.67183C255.292 5.80704 256.732 8.6014 256.732 9.60562C256.732 9.86759 255.073 10.0422 252.366 10.0422H248V5.89436C248 2.00845 248.044 1.74648 248.873 1.74648C249.397 1.74648 250.489 2.13944 251.406 2.57606Z" fill="black"/>
<path d="M29.6045 1.4845C24.2341 2.96901 20.0862 8.29576 20.0862 13.7535C20.0862 18.7746 24.1904 24.1887 29.1242 25.6295C31.4383 26.2844 31.8749 26.5901 31.9622 27.507C32.1369 28.9478 33.3594 28.9478 33.534 27.4633C33.665 26.5464 34.0143 26.2844 35.8045 25.8042C41.7861 24.276 45.9777 18.2507 45.2791 12.2253C44.4058 4.80281 36.6777 -0.523941 29.6045 1.4845ZM33.4031 2.88169C34.058 3.14366 35.8045 6.069 35.8045 6.9859C35.8045 7.24787 34.5819 7.42252 32.7481 7.42252C30.9143 7.42252 29.6918 7.24787 29.6918 6.9859C29.6918 6.15632 31.3946 3.14366 31.9622 2.92535C32.2678 2.79436 32.5735 2.66338 32.6171 2.66338C32.6608 2.61971 33.0101 2.7507 33.4031 2.88169ZM28.4693 5.45774C27.7707 7.37886 27.6833 7.42252 25.8932 7.42252C24.8453 7.42252 24.0157 7.24787 24.0157 6.9859C24.0157 6.46196 27.9017 3.49295 28.6439 3.49295C29.0805 3.49295 29.0369 3.92957 28.4693 5.45774ZM39.3411 4.89013C41.9171 6.89858 42.0481 7.50984 39.6904 7.3352C37.9875 7.20421 37.8129 7.07323 37.0706 5.32675C36.0664 3.01267 36.6777 2.88169 39.3411 4.89013ZM27.5087 9.34364C27.5087 9.64927 27.3777 10.5662 27.2467 11.3084C26.9848 12.6183 26.9411 12.6619 24.4087 12.6619C22.9679 12.6619 21.8327 12.531 21.8327 12.3126C21.8327 12.138 22.051 11.2648 22.3129 10.3479C22.7496 8.73238 22.7496 8.73238 25.1073 8.73238C26.8538 8.73238 27.5087 8.90702 27.5087 9.34364ZM36.4157 9.69294C36.5467 10.2605 36.6777 11.1338 36.6777 11.6577C36.6777 12.6183 36.5467 12.6619 32.7481 12.6619C28.9495 12.6619 28.8186 12.6183 28.8186 11.6577C28.8622 8.90702 29.0805 8.73238 32.7481 8.73238C35.8918 8.73238 36.1537 8.8197 36.4157 9.69294ZM43.1833 10.3479C43.4453 11.2648 43.6636 12.138 43.6636 12.3126C43.6636 12.531 42.5284 12.6619 41.0875 12.6619C38.5552 12.6619 38.5115 12.6183 38.2495 11.3084C37.7692 8.77604 37.8129 8.73238 40.389 8.73238C42.7467 8.73238 42.7467 8.73238 43.1833 10.3479ZM27.2467 15.7619C27.727 18.2943 27.6833 18.338 25.151 18.338C22.8805 18.338 22.7496 18.2943 22.3129 16.9845C21.4834 14.5394 21.6143 14.4084 24.4087 14.4084C26.9411 14.4084 26.9848 14.4521 27.2467 15.7619ZM36.6777 15.369C36.634 18.1633 36.4157 18.338 32.7481 18.338C29.0805 18.338 28.8622 18.1633 28.8186 15.369C28.8186 14.4521 28.9495 14.4084 32.7481 14.4084C36.5467 14.4084 36.6777 14.4521 36.6777 15.369ZM43.6636 15.0197C43.6636 15.3253 43.4453 16.1986 43.1833 16.9845C42.703 18.2943 42.6157 18.338 40.3016 18.338H37.9002L38.1622 16.9845C38.2932 16.2422 38.4242 15.3253 38.4242 15.0197C38.4242 14.5831 39.1228 14.4084 41.0439 14.4084C42.965 14.4084 43.6636 14.5831 43.6636 15.0197ZM28.2946 21.2633C28.5129 21.9619 28.8622 22.8352 29.0369 23.2718C29.3425 24.0577 29.2988 24.0577 27.6833 23.2281C26.7664 22.7478 25.5003 21.8309 24.9326 21.2197L23.8848 20.0845H25.8495C27.6397 20.0845 27.9017 20.2154 28.2946 21.2633ZM35.5861 21.045C35.0622 22.7915 33.796 24.2323 32.7481 24.2323C31.7002 24.2323 30.434 22.7915 29.9101 21.045C29.6481 20.1281 29.7355 20.0845 32.7481 20.0845C35.7608 20.0845 35.8481 20.1281 35.5861 21.045ZM40.4326 21.3507C39.2974 22.5295 36.6777 24.145 36.3721 23.8394C36.2847 23.7957 36.5904 22.9225 36.9833 21.9183C37.6819 20.1281 37.7256 20.0845 39.6467 20.0845H41.6551L40.4326 21.3507Z" fill="black"/>
<path d="M237.914 5.15208C230.404 9.08165 229.836 19.2112 236.822 23.9267C238.001 24.7126 239.704 25.4548 240.621 25.5858C242.105 25.8478 242.28 26.0225 242.411 27.245C242.585 29.0351 243.808 29.0788 243.983 27.2886C244.114 26.1098 244.375 25.8478 246.384 25.1492C250.575 23.7084 253.675 19.5168 253.675 15.369V13.9718H248.654H243.633V8.95066V3.92955H241.93C240.926 3.92955 239.311 4.40983 237.914 5.15208ZM241.974 10.5662L242.105 15.4999L247.039 15.6309C251.842 15.7619 251.929 15.7619 251.929 16.7661C251.929 18.469 249.309 21.8746 247.126 23.0534C245.511 23.883 244.681 24.0577 242.28 23.9267C238.918 23.752 236.909 22.6168 234.988 19.9098C233.94 18.3816 233.809 17.7704 233.809 14.8014C233.809 11.7014 233.94 11.2647 235.163 9.56193C236.56 7.64081 239.573 5.67602 241.057 5.67602C241.756 5.67602 241.887 6.19996 241.974 10.5662Z" fill="black"/>
<path d="M147.229 40.6928L147.36 54.359H151.944H156.529V40.8238V27.2886L151.813 27.1577L147.141 27.0267L147.229 40.6928ZM154.913 40.7802L155 52.8308H151.944H148.888V40.9112C148.888 34.3182 148.975 28.8605 149.062 28.7732C149.15 28.6858 150.503 28.6422 152.031 28.6422L154.782 28.7295L154.913 40.7802Z" fill="black"/>
<path d="M31.874 36.021C31.874 38.99 31.9613 39.2957 32.7473 39.2957C33.5332 39.2957 33.6205 38.99 33.6205 36.021C33.6205 33.052 33.5332 32.7464 32.7473 32.7464C31.9613 32.7464 31.874 33.052 31.874 36.021Z" fill="black"/>
<path d="M242.324 35.9337C242.324 39.3394 242.498 39.8196 243.459 39.4267C243.896 39.252 244.07 38.3351 244.07 35.9774C244.07 33.052 243.983 32.7464 243.197 32.7464C242.411 32.7464 242.324 33.052 242.324 35.9337Z" fill="black"/>
<path d="M134.26 37.1999C134.129 37.5492 134.086 41.5224 134.129 46.0633L134.26 54.359H138.845H143.429V45.6266V36.8943L138.932 36.7633C135.57 36.676 134.391 36.7633 134.26 37.1999ZM141.901 45.6266V52.8308H138.845H135.788V45.6266V38.4224H138.845H141.901V45.6266Z" fill="black"/>
<path d="M121.118 43.3562C121.031 43.6618 120.987 46.2816 121.031 49.1632L121.162 54.359H125.746H130.331V48.683V43.0069L125.834 42.8759C122.428 42.7886 121.293 42.8759 121.118 43.3562ZM128.803 48.683V52.8308H125.746H122.69V48.683V44.5351H125.746H128.803V48.683Z" fill="black"/>
<path d="M32.0473 43.7929C31.9163 44.1422 31.8727 45.6703 31.96 47.1985C32.0473 49.3379 32.2656 49.9929 32.7459 49.9929C33.2698 49.9929 33.4008 49.3379 33.4008 46.7619C33.4008 44.5351 33.2262 43.4436 32.8769 43.3563C32.5712 43.2253 32.222 43.4436 32.0473 43.7929Z" fill="black"/>
<path d="M242.498 43.7929C242.367 44.1422 242.323 45.6703 242.411 47.1985C242.498 49.3379 242.716 49.9929 243.197 49.9929C243.721 49.9929 243.852 49.3379 243.852 46.7619C243.852 44.5351 243.677 43.4436 243.328 43.3563C243.022 43.2253 242.673 43.4436 242.498 43.7929Z" fill="black"/>
<path d="M31.9615 57.2844C32.0488 59.9041 32.2235 60.4717 32.8784 60.6027C33.5333 60.7337 33.6206 60.3407 33.6206 57.459C33.6206 54.4027 33.5333 54.1407 32.7474 54.1407C31.9178 54.1407 31.8305 54.359 31.9615 57.2844Z" fill="black"/>
<path d="M242.324 57.4154C242.324 60.3844 242.411 60.69 243.197 60.69C243.983 60.69 244.07 60.3844 244.07 57.4154C244.07 54.4464 243.983 54.1407 243.197 54.1407C242.411 54.1407 242.324 54.4464 242.324 57.4154Z" fill="black"/>
<path d="M32.0473 65.1872C31.9163 65.5365 31.8727 67.0646 31.96 68.5928C32.0473 70.7322 32.2656 71.3871 32.7459 71.3871C33.2698 71.3871 33.4008 70.7322 33.4008 68.1562C33.4008 65.9294 33.2262 64.8379 32.8769 64.7505C32.5712 64.6196 32.222 64.8379 32.0473 65.1872Z" fill="black"/>
<path d="M242.498 65.1872C242.367 65.5365 242.323 67.0646 242.411 68.5928C242.498 70.7322 242.716 71.3871 243.197 71.3871C243.721 71.3871 243.852 70.7322 243.852 68.1562C243.852 65.9294 243.677 64.8379 243.328 64.7505C243.022 64.6196 242.673 64.8379 242.498 65.1872Z" fill="black"/>
<path d="M67.5449 73.09C65.0562 74.0069 63.1787 75.6224 61.8252 78.1111C60.821 80.0322 60.559 81.0801 60.3844 84.6167L60.1224 88.8519H58.1139C56.6294 88.8519 56.1055 89.0266 56.1055 89.5068C56.1055 89.9871 56.6294 90.1618 58.2013 90.1618H60.2534V121.031V151.943H48.2464C34.6239 151.943 33.7943 152.118 31.8295 155.305C30.8253 156.921 30.7816 157.314 30.6506 167.312L30.5196 177.704L17.3338 177.791L4.14788 177.922L4.01689 179.319C3.92957 180.367 3.6676 180.76 3.09999 180.76C2.66337 180.76 1.79014 181.153 1.13521 181.677L0 182.55V199.971V217.392L1.04788 218.615L2.09577 219.838H50.9534H99.8547L101.47 218.571C104.265 216.476 104.352 215.952 104.352 201.281V188.183H110.465C113.826 188.183 116.577 188.314 116.577 188.488C116.621 188.707 115.573 193.204 114.307 198.531L112.036 208.223L110.508 208.485C105.225 209.49 103.872 216.257 108.412 218.964C109.766 219.794 110.814 219.838 138.845 219.838C166.876 219.838 167.924 219.794 169.277 218.964C171.897 217.392 172.814 213.681 171.198 211.061C170.369 209.708 167.967 208.267 166.483 208.267C165.784 208.267 165.348 206.957 163.383 198.531C162.117 193.204 161.112 188.707 161.112 188.488C161.112 188.314 166.701 188.183 173.556 188.183H186V201.369C186 213.987 186.043 214.685 186.916 216.083C188.095 218.047 189.362 219.008 191.457 219.619C192.68 219.969 202.766 220.056 225.514 219.969C256.906 219.838 257.867 219.794 259.308 218.964C262.19 217.261 262.408 216.257 262.408 205.211C262.408 195.387 262.408 195.387 261.316 193.728C260.705 192.854 260.006 192.112 259.744 192.112C259.482 192.112 259.352 191.064 259.439 189.449L259.57 186.829L262.801 185.738C272.013 182.638 277.689 174.822 277.689 165.26C277.646 161.374 277.122 158.973 275.419 155.48C272.013 148.581 263.936 143.648 256.033 143.648C254.33 143.648 254.156 143.56 253.894 142.294C253.457 140.373 250.837 137.622 248.96 137.098C247.999 136.836 241.145 136.662 232.412 136.662H217.436V113.565V90.4237L218.659 90.2927C220.187 90.1181 220.23 88.8956 218.702 88.7209C217.567 88.5899 217.567 88.5026 217.349 84.573C216.999 78.3731 214.729 74.7491 210.145 73.09C207.7 72.2167 69.99 72.2167 67.5449 73.09ZM210.057 74.8364C210.887 75.1857 212.153 76.1026 212.939 76.9322C215.777 79.8576 215.69 78.8097 215.69 109.155V136.662H210.669H205.647V110.508C205.647 86.8435 205.56 84.3547 204.949 84.0928C204.032 83.7435 73.6139 83.7435 72.697 84.0928C72.1294 84.3111 72.0421 88.3716 72.0421 118.149V151.943H67.021H61.9999V117.101C61.9999 93.9167 62.1745 81.735 62.4801 80.6435C63.0041 78.6787 65.6238 75.6224 67.4576 74.8364C69.5097 73.9632 207.961 73.9632 210.057 74.8364ZM203.901 111.119V136.662H191.37C177.267 136.662 176.219 136.88 174.167 139.762C173.207 141.115 173.119 141.77 172.988 146.791L172.814 152.336L179.319 152.467L185.781 152.598L185.912 158.362L186.043 164.169H145.219H104.439L104.265 160.283C104.134 155.96 103.566 154.738 100.859 152.904C99.4617 151.943 99.1561 151.943 86.6252 151.943H73.7886V118.76V85.5773H138.845H203.901V111.119ZM183.86 139.98C185.476 141.552 186.087 143.735 185.912 147.708L185.781 150.852H180.105H174.429L174.298 147.228C174.167 142.818 175.128 140.242 177.398 139.107C179.45 138.059 182.245 138.452 183.86 139.98ZM249.615 139.281C250.968 140.111 252.366 142.163 252.366 143.342C252.366 143.691 251.274 144.259 249.659 144.783C242.367 146.966 236.735 153.34 235.032 161.287C233.547 168.491 236.167 176.176 241.93 181.371C244.375 183.598 248.48 185.781 250.968 186.262L252.366 186.524V189.493C252.366 191.588 252.191 192.505 251.798 192.68C250.488 193.16 249.746 195.867 249.746 199.928V203.901L224.553 203.988L199.316 204.119L199.098 209.184C198.923 212.939 198.662 214.511 198.094 215.384C195.693 219.095 190.715 219.095 188.314 215.384C187.571 214.292 187.528 211.935 187.309 177.704L187.091 141.246L186.087 139.805L185.083 138.408H216.65C247.17 138.408 248.261 138.452 249.615 139.281ZM261.229 146.049C264.809 146.966 266.774 148.101 269.787 150.895C271.708 152.642 272.887 154.257 274.066 156.659C275.725 159.933 275.725 160.021 275.725 165.217C275.725 170.238 275.681 170.631 274.328 173.469C270.704 181.109 263.412 185.476 255.029 185.039C250.357 184.777 247.257 183.642 243.852 180.891C240.926 178.49 238.874 175.695 237.477 172.115C236.08 168.578 236.08 161.942 237.477 158.405C241.232 148.8 251.449 143.517 261.229 146.049ZM100.117 154.301C101.907 155.524 102.605 157.183 102.605 160.457V163.295H67.4576H32.3098V160.676C32.3098 156.877 33.707 154.563 36.5013 153.69C37.1999 153.471 51.521 153.34 68.3308 153.384C97.5406 153.471 98.9378 153.515 100.117 154.301ZM102.605 189.711C102.605 210.93 102.518 214.598 101.95 215.69C100.553 218.397 101.427 218.309 70.9069 218.309C48.5083 218.309 43.2253 218.222 43.5745 217.742C43.8365 217.436 44.0985 216.301 44.1858 215.253L44.3168 213.288L70.9505 213.07L97.5843 212.852L97.7153 192.549C97.8026 181.371 97.7153 171.809 97.5843 171.242L97.366 170.281L67.5449 170.369L37.7675 170.5L37.6365 174.08L37.5055 177.704H34.9295H32.3098V171.373V165.042H67.4576H102.605V189.711ZM185.912 176.263L186 186.436H145.176H104.352V176.176V165.915L145.088 166.002L185.781 166.133L185.912 176.263ZM96.0561 191.894V211.76H70.0773H44.0985V199.753V187.702L43.0069 186.654C42.4393 186.043 41.5661 185.563 41.0858 185.563C40.6055 185.563 40.1253 185.432 40.0379 185.214C39.9069 185.039 39.6886 182.026 39.514 178.446L39.2084 172.028H67.6322H96.0561V191.894ZM38.4224 184.471V189.493H34.7548C30.476 189.493 29.1225 189.885 27.1577 191.807L25.7168 193.204L15.6746 193.335L5.67604 193.466V186.48V179.45H22.0492H38.4224V184.471ZM3.92957 187.921V193.335L2.83802 193.509L1.74647 193.728V188.401C1.74647 185.476 1.87746 182.943 2.05211 182.812C2.18309 182.638 2.70704 182.507 3.14365 182.507C3.84224 182.507 3.92957 182.943 3.92957 187.921ZM41.5224 187.309C42.0027 187.571 42.352 188.226 42.352 188.925C42.352 189.842 42.221 189.973 41.3915 189.754C40.8238 189.624 40.2562 189.493 40.0816 189.493C39.645 189.493 39.645 187.571 40.0379 187.178C40.3872 186.785 40.5182 186.785 41.5224 187.309ZM257.954 188.925C257.823 190.977 257.823 190.977 256.208 191.064L254.549 191.108V188.969V186.873H256.339H258.085L257.954 188.925ZM159.366 188.488C159.366 188.707 160.414 193.204 161.68 198.531L164.038 208.267H138.845H113.652L116.097 198.225L118.498 188.183H138.932C150.153 188.183 159.366 188.314 159.366 188.488ZM41.8281 191.763C42.221 192.156 42.352 195.562 42.352 204.512C42.352 215.253 42.2647 216.825 41.6098 217.523C40.9548 218.266 39.776 218.309 22.0056 218.309C5.41407 218.309 3.05633 218.222 2.44506 217.611C1.8338 217.043 1.74647 215.384 1.74647 206.302C1.74647 196.216 1.79014 195.605 2.57605 195.169C3.09999 194.907 7.81547 194.732 14.8014 194.732H26.1535L28.1619 192.985L30.1704 191.239H35.7591C39.4703 191.239 41.4788 191.414 41.8281 191.763ZM259.308 194.033C260.749 195.474 260.923 197.439 260.661 207.481L260.443 215.69L259.221 216.869C258.26 217.829 257.605 218.091 256.033 218.091C254.33 218.091 253.85 217.873 252.759 216.65L251.492 215.253V205.473C251.492 196.173 251.536 195.649 252.409 194.557C252.933 193.902 253.763 193.16 254.287 192.942C255.728 192.331 258.129 192.854 259.308 194.033ZM249.746 210.494C249.746 214.685 249.877 215.559 250.663 216.825L251.58 218.309H224.859H198.181L199.185 216.869C200.059 215.69 200.19 214.86 200.321 211.105C200.408 208.704 200.539 206.477 200.626 206.171C200.757 205.778 206.084 205.647 225.295 205.647H249.746V210.494ZM169.015 211.28C169.932 212.24 170.281 212.983 170.281 214.161C170.281 215.34 169.932 216.083 169.015 217.043L167.749 218.309H138.845H109.941L108.674 217.043C106.841 215.209 106.884 212.721 108.762 211.149L110.115 210.014H138.932H167.749L169.015 211.28Z" fill="black"/>
<path d="M80.1203 93.0871C79.9893 93.3927 79.9456 104.657 79.9893 118.105L80.1203 142.556H115.705C149.237 142.556 151.289 142.512 151.42 141.77C151.551 141.115 151.202 141.028 148.931 141.028H146.268V117.276C146.268 97.5406 146.181 93.4801 145.657 93.0434C145.264 92.6941 143.299 92.5632 139.893 92.6505L134.698 92.7815L134.567 116.883L134.479 141.028H132.078H129.676L129.589 123.869L129.458 106.753H124H118.543L118.412 123.869L118.324 141.028H115.923H113.522V130.418C113.522 122.734 113.391 119.677 112.998 119.284C112.43 118.717 103.741 118.542 102.431 119.022C101.82 119.241 101.733 120.638 101.733 130.156V141.028H99.3315H96.9301V133.169V125.31H91.254H85.578V133.169V141.028H83.6132H81.6484L81.5611 116.926C81.4738 98.1519 81.2991 92.8251 80.9062 92.6941C80.6005 92.5632 80.2512 92.7378 80.1203 93.0871ZM144.522 117.669V141.028H140.374H136.226V117.669V94.3096H140.374H144.522V117.669ZM127.93 124.655V141.071L123.913 140.941L119.853 140.81L119.722 125.091C119.678 116.446 119.722 109.111 119.853 108.849C119.984 108.456 121.206 108.281 124 108.281H127.93V124.655ZM111.775 130.767V141.028H107.627H103.479V130.767V120.507H107.627H111.775V130.767ZM95.1836 133.867V141.071L91.1667 140.941L87.1062 140.81L86.9752 134.26C86.9315 130.68 86.9752 127.493 87.0625 127.231C87.1935 126.881 88.547 126.707 91.2104 126.707H95.1836V133.867Z" fill="black"/>
<path d="M152.119 95.3138C152.031 95.6195 151.988 97.7589 152.031 100.029L152.162 104.134H175.303H198.444V99.549V94.9646L175.39 94.8336C156.528 94.7462 152.337 94.8336 152.119 95.3138ZM196.916 99.549V102.605H175.303H153.69V99.549V96.4927H175.303H196.916V99.549Z" fill="black"/>
<path d="M152.161 110.508C151.986 110.77 152.03 111.163 152.248 111.381C152.467 111.6 161.985 111.731 175.564 111.687C195.561 111.556 198.443 111.469 198.443 110.901C198.443 110.334 195.561 110.246 175.433 110.115C159.103 110.072 152.336 110.159 152.161 110.508Z" fill="black"/>
<path d="M152.03 117.538C152.205 117.974 157.357 118.149 175.433 118.236C195.91 118.324 198.661 118.236 198.661 117.669C198.661 117.101 195.823 117.014 175.258 117.014C156.746 117.014 151.899 117.145 152.03 117.538Z" fill="black"/>
<path d="M152.161 124.043C151.463 125.135 152.991 125.31 161.81 125.222C169.582 125.091 170.936 125.004 170.936 124.436C170.936 123.869 169.582 123.781 161.679 123.65C155.261 123.563 152.336 123.694 152.161 124.043Z" fill="black"/>
<path d="M176.175 124.043C175.477 125.135 177.092 125.31 187.571 125.222C196.871 125.091 198.443 125.004 198.443 124.436C198.443 123.869 196.871 123.781 187.44 123.65C179.799 123.563 176.35 123.694 176.175 124.043Z" fill="black"/>
<path d="M152.249 130.855C152.075 130.986 151.944 131.291 151.944 131.51C151.944 131.684 162.466 131.859 175.303 131.859C195.78 131.859 198.662 131.772 198.662 131.204C198.662 130.636 195.824 130.549 175.608 130.549C162.903 130.549 152.38 130.68 152.249 130.855Z" fill="black"/>
<path d="M152.162 137.579C151.463 138.67 152.991 138.845 161.156 138.757C168.36 138.626 169.627 138.539 169.627 137.971C169.627 137.404 168.317 137.317 161.025 137.186C155.087 137.098 152.337 137.229 152.162 137.579Z" fill="black"/>
<path d="M80.1196 148.494C79.421 149.629 81.0365 149.76 91.952 149.673C101.645 149.542 103.26 149.455 103.26 148.887C103.26 148.319 101.645 148.232 91.821 148.101C83.8309 148.014 80.2943 148.145 80.1196 148.494Z" fill="black"/>
<path d="M106.273 148.494C105.662 149.542 107.059 149.76 113.128 149.673C118.717 149.542 119.415 149.455 119.546 148.756C119.677 148.057 119.153 148.014 113.128 148.014C108.893 148.014 106.491 148.188 106.273 148.494Z" fill="black"/>
<path d="M125.528 148.494C124.829 149.629 126.445 149.76 137.36 149.673C147.053 149.542 148.669 149.455 148.669 148.887C148.669 148.319 147.053 148.232 137.229 148.101C129.239 148.014 125.703 148.145 125.528 148.494Z" fill="black"/>
<path d="M154.301 148.494C153.69 149.542 155.087 149.76 161.156 149.673C166.745 149.542 167.443 149.455 167.574 148.756C167.705 148.057 167.182 148.014 161.156 148.014C156.921 148.014 154.52 148.188 154.301 148.494Z" fill="black"/>
<path d="M106.97 155.873C106.97 156.746 107.188 156.79 111.685 156.659C115.484 156.571 116.357 156.397 116.357 155.873C116.357 155.349 115.484 155.174 111.685 155.087C107.188 154.956 106.97 155 106.97 155.873Z" fill="black"/>
<path d="M125.528 155.48C125.354 155.742 125.397 156.135 125.615 156.353C125.834 156.572 131.903 156.702 140.199 156.659C152.424 156.528 154.345 156.441 154.345 155.873C154.345 155.305 152.424 155.218 140.068 155.087C130.069 155.043 125.703 155.131 125.528 155.48Z" fill="black"/>
<path d="M221.409 147.97C221.06 148.188 220.929 150.066 221.016 154.607L221.147 160.894H227.697H234.246L234.159 158.798C233.94 154.781 230.84 150.59 226.867 148.887C224.728 147.97 222.152 147.533 221.409 147.97ZM226.474 150.415C228.483 151.245 231.233 154.301 232.019 156.615C232.412 157.75 232.718 158.798 232.718 159.017C232.718 159.191 230.447 159.366 227.697 159.366H222.676V154.345V149.324L223.898 149.586C224.553 149.76 225.688 150.11 226.474 150.415Z" fill="black"/>
<path d="M213.201 151.943C208.704 154.17 206.39 157.925 206.39 162.859C206.347 166.701 207.7 169.714 210.538 172.246C217.786 178.752 228.789 174.953 230.972 165.26C231.67 162.117 231.408 161.986 225.034 161.986H219.663L219.532 156.397L219.401 150.852L217.655 150.721C216.389 150.633 215.166 150.983 213.201 151.943ZM217.961 157.925L218.092 163.514L223.899 163.645L229.706 163.776L229.444 165.173C227.915 172.115 220.275 175.783 213.9 172.552C207.132 169.146 205.866 160.414 211.411 155.131C212.983 153.602 215.341 152.424 216.869 152.38C217.83 152.38 217.83 152.511 217.961 157.925Z" fill="black"/>
<path d="M192.81 184.209C192.242 185.083 193.945 185.432 198.661 185.301C204.773 185.214 204.337 185.257 204.337 184.471C204.337 183.904 203.42 183.816 198.704 183.816C195.561 183.816 192.941 183.991 192.81 184.209Z" fill="black"/>
<path d="M209.315 184.297C209.184 184.559 209.315 184.952 209.621 185.17C209.97 185.388 217.043 185.519 225.339 185.519C237.346 185.519 240.577 185.432 240.97 184.952C241.232 184.646 241.319 184.253 241.145 184.122C240.621 183.598 209.665 183.773 209.315 184.297Z" fill="black"/>
<path d="M193.029 190.497C192.767 190.846 192.679 191.239 192.854 191.37C192.985 191.545 202.547 191.676 214.03 191.676C233.722 191.676 234.944 191.632 234.813 190.89C234.682 190.191 233.285 190.147 214.117 190.016C197.264 189.929 193.465 190.016 193.029 190.497Z" fill="black"/>
<path d="M238.699 190.235C238.525 190.366 238.394 190.759 238.394 191.108C238.394 191.545 239.441 191.676 242.891 191.676C247.606 191.676 248.305 191.501 247.519 190.497C246.995 189.885 239.267 189.624 238.699 190.235Z" fill="black"/>
<path d="M192.986 197.352C192.986 198.225 193.292 198.225 220.231 198.225C243.197 198.225 247.52 198.138 247.695 197.614C247.826 197.264 247.826 196.871 247.695 196.74C247.52 196.609 235.164 196.478 220.188 196.478C193.292 196.478 192.986 196.478 192.986 197.352Z" fill="black"/>
<path d="M250.706 149.717C238.132 154.388 235.861 171.329 246.864 178.883C251.449 182.026 258.434 182.55 263.412 180.105C266.381 178.621 269.961 175.04 271.184 172.246C274.895 163.907 271.184 154.083 262.932 150.284C259.526 148.756 254.068 148.494 250.706 149.717ZM262.626 151.943C265.551 153.34 268.346 156.266 269.743 159.278C271.358 162.815 271.402 167.705 269.743 171.198C266.206 178.883 257.823 182.114 250.008 178.839C247.781 177.922 244.157 174.385 242.847 171.809C241.232 168.666 241.013 163.601 242.28 160.195C243.808 156.178 247.301 152.729 251.449 151.201C254.025 150.24 260.006 150.633 262.626 151.943Z" fill="black"/>
<path d="M261.623 159.671C261.71 160.108 262.278 160.545 262.976 160.676C264.199 160.894 264.199 160.894 261.317 163.732L258.479 166.526L256.296 164.387L254.157 162.291L250.183 166.133C248.044 168.273 246.254 170.238 246.254 170.543C246.254 172.028 247.476 171.373 250.751 168.142L254.375 164.649L256.427 166.701L258.479 168.753L261.929 165.304C265.334 161.898 265.378 161.855 265.552 163.121C265.64 163.907 265.989 164.431 266.469 164.518C267.168 164.649 267.255 164.387 267.124 161.898L266.993 159.147L264.243 159.017C261.754 158.886 261.492 158.973 261.623 159.671Z" fill="black"/>
<path d="M38.8599 155.786C35.7163 156.746 36.1529 161.112 39.4275 161.112C41.5233 161.112 42.8768 158.711 41.7416 157.008C41.043 155.917 39.9078 155.436 38.8599 155.786ZM40.5191 157.27C41.3486 158.1 41.1303 159.278 40.1261 159.846C39.3402 160.239 39.0346 160.152 38.336 159.453C37.6374 158.755 37.5501 158.449 37.943 157.663C38.5106 156.659 39.6895 156.44 40.5191 157.27Z" fill="black"/>
<path d="M45.9758 155.917C44.0983 156.615 43.5744 158.842 44.9715 160.239C46.7617 162.029 49.7744 160.807 49.7744 158.231C49.7744 156.615 47.6349 155.305 45.9758 155.917ZM47.7659 157.008C48.6828 157.357 48.6828 159.104 47.7659 159.846C46.8927 160.588 45.6701 159.89 45.4955 158.493C45.2772 157.139 46.3251 156.44 47.7659 157.008Z" fill="black"/>
<path d="M53.7033 156.004C52.3498 156.702 51.9568 159.322 53.0484 160.414C54.6639 162.029 57.6329 160.763 57.6329 158.449C57.6329 157.139 57.2399 156.571 56.0174 155.917C54.8822 155.349 55.0568 155.349 53.7033 156.004ZM56.323 157.401C56.9343 158.143 56.5413 159.628 55.6244 159.977C54.6639 160.326 53.2667 159.497 53.2667 158.58C53.2667 156.921 55.2752 156.135 56.323 157.401Z" fill="black"/>
<path d="M71.1696 156.746C70.1217 157.794 70.0344 159.06 70.995 159.977C71.5626 160.588 73.3527 160.676 83.8316 160.676C94.3104 160.676 96.1005 160.588 96.6682 159.977C97.6287 159.06 97.5414 157.794 96.4935 156.746C95.6639 155.917 95.0527 155.873 83.8316 155.873C72.6105 155.873 71.9992 155.917 71.1696 156.746ZM95.8386 158.493V159.584L84.0499 159.715C73.3964 159.802 72.2175 159.759 71.7372 159.06C71.3443 158.536 71.3006 158.187 71.6936 157.75C72.0865 157.27 74.4879 157.183 84.0062 157.27L95.8386 157.401V158.493Z" fill="black"/>
<path d="M136.224 171.242C134.74 172.028 133.168 174.516 133.168 176.045C133.168 179.188 135.7 181.633 138.888 181.633C143.821 181.633 146.179 176.132 142.817 172.377C141.857 171.285 141.202 171.023 139.455 170.849C138.189 170.762 136.879 170.893 136.224 171.242ZM141.682 173.556C143.123 174.953 143.123 177.223 141.726 178.883C140.896 179.843 140.329 180.105 138.844 180.105C137.36 180.105 136.792 179.843 135.962 178.883C133.648 176.176 135.307 172.464 138.844 172.464C140.154 172.464 140.896 172.726 141.682 173.556Z" fill="black"/>
<path d="M43.8814 176.394C43.7505 176.612 43.7505 177.005 43.8814 177.267C44.2744 177.878 62.3068 177.835 62.6997 177.224C62.8307 176.962 62.6997 176.569 62.3941 176.35C61.5208 175.826 44.2307 175.87 43.8814 176.394Z" fill="black"/>
<path d="M77.0626 180.018C76.9317 180.324 76.888 186.349 76.9317 193.422L77.0626 206.302H81.2105H85.3584L85.4894 192.855L85.5767 179.45H81.4288C78.4598 179.45 77.1936 179.625 77.0626 180.018ZM83.8302 192.985V204.774H81.2105H78.5908V192.985V181.197H81.2105H83.8302V192.985Z" fill="black"/>
<path d="M43.8803 181.677C43.1817 182.725 44.6662 182.943 51.7831 182.856C57.9831 182.725 59.162 182.638 59.162 182.07C59.162 181.502 57.9831 181.415 51.6521 181.284C46.5 181.197 44.0549 181.328 43.8803 181.677Z" fill="black"/>
<path d="M63.9647 186.087C63.8338 186.436 63.7901 191.108 63.8338 196.478L63.9647 206.302H67.8943H71.8239V196.042V185.781L67.9816 185.65C65.1436 185.563 64.0957 185.694 63.9647 186.087ZM70.7323 196.042V204.774H67.8943H65.0563V196.042V187.309H67.8943H70.7323V196.042Z" fill="black"/>
<path d="M50.2997 199.185L50.4307 206.302H54.5786H58.7265V199.316V192.331L54.4476 192.2L50.2124 192.069L50.2997 199.185ZM57.1983 199.36V204.774H54.5786H51.9589V199.185V193.64L54.5786 193.771L57.1983 193.946V199.36Z" fill="black"/>
<path d="M8.077 182.55C7.90236 182.812 7.94602 183.205 8.16433 183.424C8.38264 183.642 14.1897 183.773 22.0925 183.729C33.7502 183.598 35.584 183.511 35.584 182.943C35.584 182.376 33.7502 182.288 21.9615 182.157C12.3995 182.114 8.25165 182.201 8.077 182.55Z" fill="black"/>
<path d="M7.86011 186.654C7.86011 187.222 9.51926 187.309 20.3037 187.309C31.0882 187.309 32.7474 187.222 32.7474 186.654C32.7474 186.087 31.0882 186 20.3037 186C9.51926 186 7.86011 186.087 7.86011 186.654Z" fill="black"/>
<path d="M129.896 194.383C127.189 195.867 126.665 199.185 128.761 201.325L130.027 202.591H138.847H147.666L148.933 201.325C151.072 199.185 150.461 195.736 147.71 194.339C146.444 193.684 131.075 193.728 129.896 194.383ZM147.754 196.435C148.889 197.657 148.54 200.015 147.142 200.757C145.571 201.543 130.988 201.325 129.983 200.452C129.023 199.709 129.023 197.439 129.983 196.391C130.595 195.692 131.511 195.605 138.847 195.605C146.313 195.605 147.055 195.692 147.754 196.435Z" fill="black"/>
<path d="M32.0473 75.666C31.9163 76.0153 31.8727 77.5435 31.96 79.0716C32.0473 81.2111 32.2656 81.866 32.7459 81.866C33.2698 81.866 33.4008 81.2111 33.4008 78.635C33.4008 76.4082 33.2262 75.3167 32.8769 75.2294C32.5712 75.0984 32.222 75.3167 32.0473 75.666Z" fill="black"/>
<path d="M242.498 75.666C242.367 76.0153 242.323 77.5435 242.411 79.0716C242.498 81.2111 242.716 81.866 243.197 81.866C243.721 81.866 243.852 81.2111 243.852 78.635C243.852 76.4082 243.677 75.3167 243.328 75.2294C243.022 75.0984 242.673 75.3167 242.498 75.666Z" fill="black"/>
<path d="M32.0473 86.5815C31.9163 86.9308 31.8727 87.8914 31.96 88.721C32.091 90.1181 32.1346 90.1618 34.0558 90.1618C35.4966 90.1618 36.0205 89.9872 36.0205 89.5069C36.0205 89.1139 35.5403 88.8083 34.8417 88.721C33.9684 88.6336 33.6191 88.328 33.5318 87.4548C33.4008 86.1449 32.4403 85.621 32.0473 86.5815Z" fill="black"/>
<path d="M242.628 86.2759C242.454 86.4505 242.323 87.0618 242.323 87.5858C242.323 88.328 242.017 88.59 241.144 88.721C240.402 88.8083 239.921 89.1139 239.921 89.5069C239.921 89.9872 240.445 90.1618 241.886 90.1618H243.851V88.2407C243.851 86.4505 243.327 85.5773 242.628 86.2759Z" fill="black"/>
<path d="M39.0777 89.0702C38.5101 89.9435 39.427 90.3801 41.9157 90.3801C43.6622 90.3801 44.4918 90.2054 44.6664 89.7688C44.7974 89.4195 44.7974 89.0266 44.6664 88.8956C44.2298 88.459 39.3833 88.5899 39.0777 89.0702Z" fill="black"/>
<path d="M47.6796 89.3759C47.8105 90.0308 48.2908 90.1618 50.4303 90.1618C52.5697 90.1618 53.05 90.0308 53.181 89.3759C53.3119 88.7209 52.9626 88.6336 50.4303 88.6336C47.8979 88.6336 47.5486 88.7209 47.6796 89.3759Z" fill="black"/>
<path d="M222.763 89.3759C222.894 90.0308 223.375 90.1618 225.514 90.1618C227.653 90.1618 228.134 90.0308 228.265 89.3759C228.396 88.721 228.046 88.6336 225.514 88.6336C222.982 88.6336 222.632 88.721 222.763 89.3759Z" fill="black"/>
<path d="M231.278 88.9828C230.667 89.9434 231.802 90.4237 234.291 90.2927C236.212 90.2054 236.867 89.9871 236.867 89.5068C236.867 89.0265 236.212 88.8082 234.16 88.7209C232.676 88.6336 231.366 88.7645 231.278 88.9828Z" fill="black"/>
</svg>
