<svg width="291" height="290" viewBox="0 0 291 290" fill="none" xmlns="http://www.w3.org/2000/svg">
<path d="M99.4018 0.359959C95.8671 1.10974 91.8504 3.62687 89.3333 6.73311C82.2639 15.302 85.263 28.6375 95.3851 33.6182C97.3131 34.5822 99.134 34.9571 102.401 35.0642C106.203 35.2784 107.114 35.1177 110.006 33.8324C118.039 30.1906 122.377 21.1932 120.021 13.1063C117.397 4.10887 108.399 -1.5145 99.4018 0.359959ZM109.095 1.75241C112.523 2.87709 116.647 6.67955 118.468 10.4285C119.753 12.9991 119.967 14.1238 119.914 17.7656C119.914 22.907 118.2 26.9772 114.879 30.0299C110.97 33.5646 108.774 34.3679 103.097 34.3679C98.5984 34.3679 97.688 34.2073 95.278 32.9219C84.781 27.4057 82.853 13.3205 91.4755 5.34066C94.3675 2.66286 95.6529 1.96664 99.0805 1.05619C102.133 0.306404 105.4 0.520626 109.095 1.75241Z" fill="black"/>
<path d="M99.3483 3.51979C96.135 4.53735 91.315 7.85781 91.315 9.0896C91.315 9.41093 92.2254 8.76826 93.3501 7.69715C95.7065 5.39424 99.991 3.57334 102.99 3.57334C110.274 3.57334 117.022 10.1607 117.022 17.2301C117.022 22.9606 114.558 27.1915 109.578 30.0299C107.114 31.3688 106.096 31.6366 103.151 31.6366C99.0806 31.5831 96.617 30.6726 93.7785 28.209C91.315 26.0133 89.7083 22.907 89.1727 19.3723L88.7443 16.6945L88.6907 18.9974C88.5836 23.4961 92.3325 28.9053 97.1525 31.0475C100.152 32.3864 105.668 32.4935 108.506 31.3153C113.808 29.0124 117.557 23.389 117.557 17.6585C117.557 8.33982 108.024 0.895548 99.3483 3.51979Z" fill="black"/>
<path d="M101.491 10.3213C101.491 10.8033 100.902 11.6602 100.206 12.1958C97.3673 14.4451 98.1706 17.3372 101.973 18.4618C104.49 19.2652 105.079 19.9078 104.115 21.0325C103.633 21.6216 102.83 21.8358 101.438 21.6216C99.938 21.4074 99.3488 21.5681 99.1346 22.1572C98.6526 23.3354 99.2417 23.9245 100.795 23.9245C101.652 23.9245 102.241 24.2994 102.402 24.9956C102.776 26.3345 104.169 26.3881 104.169 25.1028C104.169 24.5672 104.919 23.6032 105.776 22.9605C106.9 22.1036 107.382 21.3003 107.382 20.2827C107.382 18.2476 106.9 17.712 104.008 16.4803C102.616 15.8911 101.491 15.0343 101.491 14.6058C101.491 13.5882 103.151 13.0527 104.919 13.5347C106.043 13.8025 106.311 13.6954 106.311 12.7849C106.311 12.0887 105.829 11.6067 104.972 11.3925C104.222 11.1782 103.633 10.6962 103.633 10.2678C103.633 9.83933 103.151 9.46444 102.562 9.46444C101.92 9.46444 101.491 9.83933 101.491 10.3213Z" fill="black"/>
<path d="M141.711 6.84024C141.015 7.75069 140.533 8.55403 140.694 8.66114C141.229 9.1967 145.407 9.83937 145.407 9.41092C145.407 8.44692 143.853 5.18001 143.425 5.23356C143.211 5.23356 142.407 5.98335 141.711 6.84024ZM143.639 8.82181C141.925 9.14314 141.336 8.07203 142.461 6.78668L143.479 5.66201L144.068 7.16158C144.603 8.50047 144.55 8.66114 143.639 8.82181Z" fill="black"/>
<path d="M153.172 7.37578C155.26 7.64356 159.813 8.23268 163.347 8.71468C184.127 11.3925 207.156 21.1396 224.99 34.7428C231.685 39.8306 232.167 40.2055 232.167 39.8306C232.167 39.3486 223.758 32.9219 218.51 29.4408C198.962 16.3196 176.094 8.50046 153.707 7.108L149.423 6.89378L153.172 7.37578Z" fill="black"/>
<path d="M166.561 17.2301C175.612 18.8367 182.253 20.6576 190.126 23.6568C197.142 26.3346 206.942 31.1546 212.03 34.4751C214.012 35.7604 215.779 36.7244 215.94 36.6173C216.207 36.296 210.584 32.7613 204.854 29.7086C192.107 22.7999 174.648 17.2836 162.277 16.2125C160.509 16.0518 162.437 16.5338 166.561 17.2301Z" fill="black"/>
<path d="M50.1845 22.8534C42.3654 24.4601 37.0098 31.1546 37.0098 39.188C37.0633 53.5409 54.5225 60.9316 64.8053 50.9167C68.4471 47.382 69.6253 44.49 69.6253 38.9202C69.6253 35.0106 69.4111 33.993 68.1793 31.6366C64.7517 25.1028 57.2539 21.461 50.1845 22.8534ZM60.6815 25.0492C72.3566 30.6726 72.1424 47.2749 60.253 53.4874C58.2714 54.5049 57.0397 54.7192 53.2908 54.7192C49.2205 54.7192 48.4172 54.5585 45.8465 53.1125C36.7955 48.0782 34.7069 36.2959 41.5085 28.5839C46.4356 22.9605 53.505 21.6752 60.6815 25.0492Z" fill="black"/>
<path d="M48.8453 32.2257C46.1675 33.2433 43.6504 35.0642 43.6504 36.0282C43.6504 37.1529 44.4002 36.9386 47.1315 35.2248C51.4695 32.4935 55.9147 32.6006 60.1992 35.4926C62.2343 36.8851 63.6803 36.4566 62.3414 34.85C59.9849 31.9579 53.1833 30.6726 48.8453 32.2257Z" fill="black"/>
<path d="M49.0595 37.2064C47.0779 38.1704 45.8461 39.67 46.4888 40.3662C46.7566 40.5804 47.3457 40.4733 47.8277 40.0984C51.3624 37.5278 55.1113 37.3135 58.1104 39.4558C59.2886 40.3127 59.9849 40.4733 60.3598 40.0984C61.1631 39.2951 60.5204 38.5453 58.1104 37.3135C55.4862 35.9746 51.523 35.9211 49.0595 37.2064Z" fill="black"/>
<path d="M50.8269 41.2767C48.8454 42.1871 48.1492 43.0976 48.8989 43.8474C49.2738 44.2222 49.8629 44.1151 50.6663 43.526C52.2194 42.4549 54.8436 42.4013 56.2896 43.4725C56.9323 43.9009 57.575 44.0616 57.7892 43.9009C59.6637 41.9729 53.9867 39.8307 50.8269 41.2767Z" fill="black"/>
<path d="M51.7912 45.4541C50.1845 47.0607 51.7912 49.4707 54.0941 48.8816C56.2899 48.2925 55.6472 44.8114 53.2907 44.8114C52.8087 44.8114 52.1661 45.0792 51.7912 45.4541Z" fill="black"/>
<path d="M236.13 42.1336C234.631 42.7227 234.202 44.4365 235.22 45.829C236.077 47.1143 238.165 47.3285 239.129 46.2038C240.682 44.2758 238.433 41.2231 236.13 42.1336ZM239.022 44.7043C238.915 45.829 238.54 46.2038 237.415 46.311C235.327 46.5787 234.416 44.7043 235.916 43.2047C237.415 41.7051 239.29 42.6156 239.022 44.7043Z" fill="black"/>
<path d="M138.444 54.023C137.319 55.2012 137.212 56.5937 137.962 59.807C138.176 60.5033 134.909 60.6639 112.255 60.8781C88.7974 61.1459 86.2803 61.253 85.7983 62.0564C85.3698 62.699 85.6912 64.5199 87.1372 69.3935L89.0652 75.8202L83.1205 75.9809C77.9256 76.1416 77.1758 76.2487 76.5867 77.2127C75.944 78.1231 76.4795 80.426 80.4427 93.815C83.4418 104.151 85.3163 109.775 86.0661 110.524L87.1907 111.756H110.648C130.785 111.756 134.106 111.649 134.695 110.953C135.337 110.203 135.23 109.078 134.373 105.972L134.052 104.794H145.62C152.636 104.794 157.67 104.58 158.313 104.258C158.956 103.884 159.33 103.134 159.33 102.223C159.33 101.099 153.493 80.1047 150.44 70.3575C150.172 69.5542 150.547 69.4471 153.493 69.4471H156.813L156.492 73.7851L156.224 78.1231L158.42 80.5331C160.509 82.8361 160.669 82.8896 163.508 82.7289L166.453 82.5683L167.257 80.2654L168.007 78.016L164.472 73.2495C160.509 67.894 159.759 65.3768 162.437 66.0195C166.561 67.0371 171.327 71.0002 171.381 73.5173C171.381 75.1776 172.88 76.4629 173.791 75.5525C174.433 74.9098 173.041 73.0353 169.078 69.0722C167.417 67.3584 165.971 66.5551 163.669 65.9124L160.509 65.0019L159.116 60.289C158.152 57.1828 157.349 55.3619 156.653 54.987C156.117 54.7192 151.886 54.4514 147.28 54.4514C141.818 54.4514 139.033 54.2908 139.247 53.9159C139.461 53.5945 143.103 53.3803 148.352 53.3803C155.582 53.3803 157.242 53.541 157.938 54.2372C158.42 54.6657 158.795 55.4154 158.795 55.7903C158.795 56.2188 159.009 56.6472 159.277 56.8079C159.491 56.9686 159.598 56.4866 159.438 55.7368C158.956 53.1661 157.724 52.8448 148.244 52.8448C139.943 52.8448 139.515 52.8983 138.444 54.023ZM141.657 55.8439C141.657 56.3259 142.139 57.2363 142.675 57.879C143.264 58.4681 144.603 60.0212 145.674 61.253C147.762 63.663 151.351 65.6982 153.493 65.6982C155.1 65.7517 157.456 67.4655 156.974 68.3224C156.706 68.6973 154.189 68.9115 149.476 68.9115C143.371 68.9115 142.246 68.8044 141.55 67.9475C140.586 66.8228 137.694 56.9686 138.069 55.951C138.229 55.5226 138.497 55.7368 138.926 56.5937C139.408 57.6648 139.515 57.7183 139.461 56.8615C139.354 55.1477 139.461 54.987 140.586 54.987C141.229 54.987 141.657 55.3619 141.657 55.8439ZM156.546 55.8974C157.135 56.433 157.992 58.2003 158.474 59.9141C159.598 63.9308 159.598 64.2522 158.206 63.4488C157.242 62.8597 156.974 62.9133 156.117 63.9308C154.778 65.5911 152.69 65.4839 149.316 63.5559C146.102 61.6815 144.335 59.4321 144.067 56.8615L143.906 54.987H149.69C154.403 54.987 155.635 55.1477 156.546 55.8974ZM143.692 56.5401C143.853 56.9686 143.639 57.1828 143.21 57.0221C142.835 56.915 142.407 56.4866 142.3 56.1117C142.139 55.6832 142.353 55.469 142.782 55.6297C143.157 55.7368 143.585 56.1652 143.692 56.5401ZM138.979 62.8062C140.157 65.8588 140.907 65.6982 122.966 65.6982H106.417L107.917 70.786L109.416 75.8738H107.863C106.739 75.8738 106.203 75.4989 105.668 74.3742C105.025 73.1424 104.65 72.9282 102.561 72.9282C100.258 72.9282 100.151 72.9818 100.258 74.3742C100.312 75.2311 100.151 75.8738 99.8299 75.8738C99.5621 75.8738 99.3479 75.4453 99.3479 74.8562C99.3479 73.3567 98.0626 72.5533 95.7597 72.7675C93.8852 72.9282 93.7245 73.0353 93.8317 74.4278C93.9388 75.8738 93.8317 75.9273 91.6894 75.7667L89.4936 75.606L87.7263 69.4471C86.7623 66.0731 86.1196 62.8597 86.2803 62.3777C86.5481 61.4673 88.1547 61.4137 112.523 61.4137H138.444L138.979 62.8062ZM159.223 64.6271C159.92 65.2162 160.295 65.9124 160.134 66.2337C159.866 66.6622 159.438 66.5551 158.741 65.9124C157.831 65.0555 157.724 65.0555 157.402 65.9124C157.135 66.6086 156.867 66.6622 156.331 66.1802C155.796 65.7517 155.742 65.3768 156.278 64.5735C157.081 63.2882 157.67 63.2882 159.223 64.6271ZM140.479 67.5726C140.854 68.376 141.711 69.0722 142.621 69.2329C144.067 69.5006 144.174 69.9291 148.244 83.8001C150.494 91.6728 152.368 98.2601 152.368 98.4744C152.368 98.7421 147.816 98.9028 142.3 98.9028H132.231L130.785 93.9221C130.035 91.2443 129.232 88.5665 129.018 87.9774C128.697 87.1205 128.804 87.067 129.768 87.6025C131.589 88.5665 132.338 88.2987 133.838 86.0494C134.748 84.6569 135.659 83.9072 136.409 83.9072C137.051 83.9072 139.354 85.2996 141.604 86.9599C146.156 90.441 147.013 91.0301 147.013 90.6552C147.013 89.9054 137.587 83.3716 136.516 83.3716C135.766 83.3716 134.641 84.1749 133.409 85.621C131.535 87.9239 131.535 87.9239 130.089 87.067C129.018 86.4243 128.375 85.2996 127.625 82.7825C126.34 78.498 125.697 77.1056 124.573 76.57C124.091 76.3558 120.61 76.0345 116.754 75.8738L109.845 75.606L108.667 71.5893C107.97 69.3935 107.435 67.2513 107.435 66.8764C107.381 66.3944 110.97 66.2337 123.609 66.2337H139.89L140.479 67.5726ZM160.348 72.8747C160.402 72.5533 160.027 71.2144 159.598 69.9826C158.634 67.2513 158.634 67.4655 159.598 67.4655C160.027 67.4655 160.241 67.6797 160.134 67.894C159.973 68.1082 160.777 69.4471 161.901 70.8931C163.026 72.2855 164.74 74.5884 165.704 75.9273C167.417 78.3374 167.417 78.4445 166.614 80.3725C165.864 82.1934 165.65 82.3005 163.508 82.3005C161.473 82.3005 160.884 82.0327 158.956 79.9976L156.706 77.7482L157.188 72.6604C157.456 69.8755 157.724 67.3048 157.777 67.0371C157.777 66.7157 158.366 68.0546 159.063 69.9826C159.759 71.9107 160.348 73.196 160.348 72.8747ZM150.119 71.1609C150.387 72.1249 152.475 79.2478 154.725 86.9063C156.974 94.6183 158.795 101.527 158.795 102.277C158.795 103.027 158.42 103.776 157.938 103.937C157.456 104.098 151.833 104.258 145.406 104.258H133.677L133.356 102.491C133.142 101.581 132.981 100.509 132.927 100.242C132.874 99.9204 136.676 99.599 143.05 99.4384L153.279 99.1706L149.369 85.7816C144.067 67.6262 144.281 69.4471 147.227 69.4471C149.476 69.4471 149.69 69.5542 150.119 71.1609ZM98.491 74.0529C99.0801 75.606 98.8124 75.8738 96.7237 75.8738C94.7421 75.8738 93.9923 75.2847 93.9923 73.678C93.9923 72.8211 98.1161 73.1424 98.491 74.0529ZM105.132 74.642C105.293 75.7667 105.078 75.8738 103.204 75.8738C101.758 75.8738 100.955 75.606 100.74 75.0169C100.098 73.4102 100.419 73.1424 102.722 73.3031C104.596 73.4102 105.025 73.678 105.132 74.642ZM173.255 74.5349C173.255 74.9633 173.041 75.3382 172.773 75.3382C172.505 75.3382 172.184 74.9633 171.97 74.5349C171.809 74.0529 171.97 73.7316 172.452 73.7316C172.88 73.7316 173.255 74.1064 173.255 74.5349ZM124.68 77.5876C126.072 79.0336 135.07 108.971 134.534 110.364C134.213 111.114 131.535 111.221 110.916 111.221C89.5472 111.221 87.6192 111.167 86.6016 110.257C85.7983 109.614 84.2452 105.169 81.1925 94.4577C76.7473 79.3014 76.3724 77.2127 77.5507 76.7842C77.872 76.6236 88.369 76.4629 100.847 76.4629L123.502 76.4093L124.68 77.5876Z" fill="black"/>
<path d="M139.944 60.6103C140.051 61.3601 140.372 61.9492 140.586 61.9492C141.122 61.9492 140.64 59.9141 140.051 59.5392C139.836 59.4321 139.783 59.9141 139.944 60.6103Z" fill="black"/>
<path d="M91.5296 66.4479C91.3689 66.8228 91.6367 68.0546 92.0651 69.1257C92.8149 70.9466 92.9756 71.0537 95.3856 71.0537H97.9027L97.5814 69.1257C97.4207 68.0546 96.9923 66.8764 96.6174 66.4479C95.814 65.4839 91.9044 65.4303 91.5296 66.4479ZM96.6709 67.6261C97.6349 70.0897 97.3671 70.5182 95.1178 70.5182C93.3505 70.5182 92.922 70.3039 92.6542 69.2864C91.6902 66.073 91.6367 66.2337 93.9931 66.2337C95.814 66.2337 96.2425 66.4479 96.6709 67.6261Z" fill="black"/>
<path d="M98.0636 66.1266C97.9029 66.3944 98.0636 67.5727 98.492 68.6973C99.1882 70.7325 99.2418 70.786 101.812 70.786C104.115 70.786 104.437 70.6789 104.276 69.7149C103.794 66.93 102.884 65.966 100.581 65.8053C99.4025 65.6982 98.2242 65.8589 98.0636 66.1266ZM103.098 67.6262C104.062 70.0362 103.794 70.5182 101.545 70.5182C99.7773 70.5182 99.4025 70.304 99.1347 69.2329C98.974 68.5367 98.6527 67.5727 98.492 67.0907C98.2242 66.3944 98.5456 66.2338 100.366 66.2338C102.241 66.2338 102.669 66.448 103.098 67.6262Z" fill="black"/>
<path d="M131.696 71.9106C129.982 73.5708 130.25 75.4989 132.553 77.5875C134.695 79.5691 136.516 79.944 138.176 78.8729C140.693 77.2126 139.676 73.0353 136.302 71.3215C134.159 70.1968 133.249 70.3039 131.696 71.9106ZM135.927 71.6428C138.39 72.9282 139.729 76.0344 138.551 77.8018C137.266 79.7298 133.142 78.6051 131.803 75.9273C130.678 73.8386 130.732 73.4102 132.017 72.1248C133.249 70.8931 134.266 70.7859 135.927 71.6428Z" fill="black"/>
<path d="M160.027 74.642C159.652 74.7491 159.331 75.4453 159.331 76.1951C159.331 77.8018 161.741 79.5156 162.972 78.7658C164.365 77.8553 164.311 77.052 162.865 75.606C161.526 74.2671 161.205 74.16 160.027 74.642ZM162.597 75.9273C163.615 76.9449 163.669 77.1055 162.865 77.9089C162.062 78.7122 161.901 78.7122 160.884 77.6411C160.187 76.9984 159.866 76.1415 160.027 75.6595C160.509 74.4813 161.259 74.5884 162.597 75.9273Z" fill="black"/>
<path d="M117.825 80.426C118.254 81.9256 120.342 89.0485 122.431 96.3857C124.573 103.669 126.394 109.507 126.555 109.4C126.876 109.078 118.093 78.9265 117.504 78.2838C117.236 78.016 117.343 78.98 117.825 80.426Z" fill="black"/>
<path d="M122.109 80.5331C123.181 80.8009 124.519 82.1398 124.519 82.9431C124.519 83.1574 123.77 83.3716 122.859 83.3716C121.36 83.3716 121.199 83.5322 121.52 84.5498C121.735 85.246 122.002 86.4778 122.217 87.2812C122.377 88.138 123.073 89.0485 123.77 89.3698C125.109 89.9589 126.662 89.6376 126.662 88.7272C126.662 88.4058 126.287 88.4058 125.591 88.8343C124.359 89.5841 123.288 88.8343 122.699 86.7456C122.377 85.7816 122.591 85.5674 123.823 85.3531C125.269 85.1389 125.216 85.1389 123.609 85.0318C121.413 84.9783 121.253 83.9071 123.448 83.9071C125.162 83.9071 125.483 83.0502 124.519 81.1758C124.145 80.5331 123.448 80.1582 122.484 80.2118C121.413 80.2653 121.306 80.3189 122.109 80.5331Z" fill="black"/>
<path d="M81.6748 82.0327C81.6748 82.9431 88.3157 105.169 88.7977 105.704C89.1726 106.24 93.2964 106.401 106.096 106.401C115.361 106.401 122.913 106.294 122.913 106.133C122.913 105.972 117.397 86.7992 116.165 82.6754C115.897 81.8185 114.612 81.7649 98.7591 81.7649C89.3869 81.7649 81.6748 81.872 81.6748 82.0327ZM103.097 89.5305C105.561 91.9941 107.435 94.2434 107.221 94.4577C106.793 94.8325 97.7416 86.1565 97.7416 85.4067C97.7416 84.3892 98.8662 85.246 103.097 89.5305ZM111.398 93.5472C115.79 97.9388 119.217 101.741 118.95 101.955C118.575 102.33 102.615 86.7456 102.562 85.8887C102.508 84.8712 103.954 86.1029 111.398 93.5472Z" fill="black"/>
<path d="M124.359 91.7799C124.145 91.9406 123.984 92.369 123.984 92.6903C123.984 93.0117 124.198 92.9046 124.519 92.4761C125.323 91.1908 127.947 92.4226 128.161 94.1363C128.375 96.1715 126.929 96.5464 125.269 94.8861C124.198 93.815 123.93 93.7079 124.091 94.4577C124.305 95.5824 126.769 96.8677 127.893 96.4393C129.179 95.9572 129.339 94.1899 128.161 92.7439C127.197 91.5121 125.162 90.9766 124.359 91.7799Z" fill="black"/>
<path d="M125.966 98.6886C125.216 99.4919 126.394 100.509 128.055 100.509C130.304 100.509 130.572 101.955 128.43 102.277C127.037 102.491 127.037 102.491 128.697 102.598C129.769 102.598 130.411 102.919 130.411 103.401C130.411 103.83 130.625 104.312 130.947 104.526C131.375 104.794 130.143 99.8132 129.501 98.7421C129.233 98.3137 126.448 98.2066 125.966 98.6886ZM129.34 99.4383C129.34 99.7061 128.751 99.9739 128.001 99.9739C127.251 99.9739 126.662 99.7061 126.662 99.4383C126.662 99.117 127.251 98.9028 128.001 98.9028C128.751 98.9028 129.34 99.117 129.34 99.4383Z" fill="black"/>
<path d="M127.894 105.865C128.001 106.936 128.322 107.204 129.608 107.311C131.054 107.418 131.054 107.365 129.929 107.043C129.233 106.829 128.43 106.186 128.215 105.597C127.787 104.687 127.787 104.687 127.894 105.865Z" fill="black"/>
<path d="M249.894 54.7728C249.894 55.3619 250.054 55.5226 250.215 55.0941C250.376 54.7192 250.322 54.2372 250.162 54.0766C250.001 53.8623 249.84 54.1837 249.894 54.7728Z" fill="black"/>
<path d="M253.322 56.5937C253.161 56.8614 253.215 57.1292 253.536 57.1292C253.804 57.1292 254.232 56.8614 254.393 56.5937C254.553 56.2723 254.5 56.0581 254.179 56.0581C253.911 56.0581 253.482 56.2723 253.322 56.5937Z" fill="black"/>
<path d="M247.966 58.2003C247.109 58.5752 247.055 58.6823 247.805 58.6823C248.287 58.7359 248.876 58.4681 249.037 58.2003C249.412 57.6112 249.412 57.6112 247.966 58.2003Z" fill="black"/>
<path d="M251.447 59.5391C251.447 59.8069 251.715 60.4496 251.982 60.878C252.25 61.3065 252.518 61.4136 252.518 61.1458C252.518 60.8245 252.25 60.2354 251.982 59.8069C251.715 59.3785 251.447 59.2178 251.447 59.5391Z" fill="black"/>
<path d="M49.8626 62.3777C50.1304 62.5919 51.0944 63.3417 51.9513 64.0915L53.5579 65.4304L52.0048 63.663C51.0944 62.7526 50.1839 61.9492 49.8626 61.9492C49.5412 61.9492 49.5412 62.1099 49.8626 62.3777Z" fill="black"/>
<path d="M55.4326 68.001C55.4326 68.1081 56.1824 68.8579 57.1464 69.7684C58.7531 71.2679 58.7531 70.6788 57.1464 68.7508C56.4502 67.9475 55.4326 67.519 55.4326 68.001Z" fill="black"/>
<path d="M201.105 70.6788C197.945 73.0888 196.338 73.8922 195.481 73.5173C193.071 72.6068 190.982 78.2838 192.857 80.5867C193.767 81.6042 194.089 81.7113 195.695 81.2829L197.463 80.7473L197.249 83.6929C197.034 86.3707 197.088 86.7456 198.105 87.1205C198.962 87.3882 199.337 88.2451 199.766 90.6552C200.301 93.7078 200.408 93.815 202.069 93.9756C203.622 94.1363 203.836 94.297 203.675 95.5823C203.461 97.6174 201.533 98.3672 196.659 98.3672C194.356 98.3672 191.732 98.6885 190.768 99.0634C186.484 100.884 182.146 108.436 178.825 119.95C176.683 127.448 176.629 127.984 178.183 129.001L179.414 129.805L178.183 134.035C176.576 139.766 171.756 149.406 168.596 153.101C165.222 157.172 164.151 157.868 162.277 157.386C160.831 156.957 160.509 156.208 155.582 141.801C152.262 132.107 150.012 126.323 149.37 125.841C148.566 125.252 144.817 125.145 129.982 125.252C113.326 125.413 111.452 125.52 110.916 126.323C110.488 127.02 111.773 131.411 116.647 146.407C120.128 156.957 122.913 166.008 122.913 166.49C122.913 166.972 123.127 167.508 123.395 167.722C123.716 167.883 123.341 169.329 122.592 171.043C119.807 177.309 118.95 182.45 118.896 192.626C118.896 205.854 120.931 214.316 126.448 224.009L128.858 228.187L127.626 231.186C126.93 232.792 126.394 234.399 126.394 234.774C126.394 236.059 120.771 243.45 120.021 243.182C119.11 242.861 115.736 243.664 111.613 245.271L108.614 246.396L109.31 248.163C110.167 250.198 110.22 250.466 109.578 250.466C109.31 250.466 108.774 249.663 108.453 248.645L107.864 246.824L104.918 248.484C99.7768 251.43 96.0279 254.643 96.2421 255.982C96.4028 257.16 96.4564 257.16 110.916 257.321C127.358 257.482 127.358 257.482 128.269 253.411C129.018 250.252 128.965 245.646 128.161 245.646C127.09 245.646 133.142 239.808 135.445 238.63L137.534 237.559L139.194 238.791C143.05 241.629 146.478 243.718 150.387 245.699C152.636 246.878 154.511 248.056 154.511 248.377C154.511 248.699 153.172 250.252 151.565 251.805C146.852 256.304 147.709 257.696 154.939 257.321C160.134 257 163.133 255.875 165.329 253.251L166.615 251.698L171.435 252.662C180.86 254.59 195.481 254.911 205.55 253.411C206.942 253.197 208.067 253.144 208.067 253.251C208.067 253.358 206.728 259.838 205.121 267.657C203.515 275.423 202.176 282.546 202.176 283.456C202.176 285.759 204.264 288.651 206.46 289.401C207.853 289.883 218.242 290.044 247.163 289.99C268.531 289.937 282.509 289.776 278.225 289.615C269.495 289.24 268.156 288.812 266.603 285.599C265.8 283.831 265.961 282.974 271.531 255.5C274.69 239.915 277.636 226.634 278.064 225.937C278.653 224.973 279.243 224.759 281.385 224.759C283.152 224.759 284.223 225.027 284.812 225.67C285.455 226.419 286.098 232.203 287.865 253.947C290.596 287.473 290.543 285.973 288.936 287.687C288.24 288.437 287.276 289.026 286.847 289.08C286.312 289.08 286.258 289.24 286.633 289.347C287.704 289.829 289.525 288.491 290.275 286.723C290.864 285.277 290.65 280.993 288.615 256.893C287.329 241.415 286.258 228.24 286.258 227.544C286.258 226.901 285.776 225.884 285.187 225.295C284.277 224.384 283.42 224.224 278.6 224.224C273.78 224.224 272.977 224.116 272.173 223.152C271.691 222.563 270.941 222.081 270.459 222.081C269.817 222.081 269.763 221.439 269.977 218.707C270.192 216.244 270.084 215.119 269.495 214.369C268.799 213.405 268.853 213.084 270.245 210.781C272.709 206.818 276.351 198.731 278.171 193.161C282.938 178.54 284.063 164.134 281.706 147.478C279.243 129.858 274.958 119.254 267.246 111.488C260.177 104.365 254.125 101.955 243.414 101.955C238.54 102.009 236.559 102.223 233.827 103.134L230.4 104.312L229.007 103.027C226.972 101.099 223.812 99.6525 219.367 98.5814C216.636 97.9388 215.243 97.2961 214.708 96.4928C213.529 94.6718 212.565 86.8527 213.369 85.3531C213.851 84.4427 213.851 83.5322 213.422 81.4971C213.047 79.8904 212.94 77.3197 213.155 75.1775C213.476 72.2855 213.369 71.3215 212.673 70.2504C211.494 68.483 209.138 68.483 207.156 70.1968L205.657 71.5357L204.586 70.1968L203.515 68.8579L201.105 70.6788ZM205.014 80.908C205.282 83.7464 205.228 85.3531 204.853 85.7816C204.05 86.7991 201.426 87.2811 199.498 86.8527L197.891 86.4778V82.0862C197.891 78.016 197.998 77.5875 199.123 77.052C199.766 76.7306 201.265 76.5164 202.443 76.57L204.586 76.6771L205.014 80.908ZM208.87 79.944C208.87 81.1222 208.602 81.5507 207.692 81.6578C206.728 81.8184 206.46 81.6042 206.46 80.5867C206.46 79.1942 207.424 77.9089 208.335 78.1766C208.602 78.2838 208.87 79.0871 208.87 79.944ZM212.726 90.6016C213.583 96.5999 214.119 97.671 216.743 98.4743C217.868 98.7957 218.778 99.2241 218.778 99.3848C218.778 100.027 214.172 102.598 211.869 103.187C210.102 103.669 208.924 103.669 207.103 103.187C204.318 102.491 201.051 100.938 200.141 99.8132C199.605 99.1705 199.766 99.0099 201.051 98.7421C203.033 98.3136 204.318 97.0283 204.318 95.4216C204.318 94.5112 204.693 94.0827 205.817 93.815C208.281 93.2258 209.138 92.0476 209.138 89.2627C209.138 86.692 209.888 85.3531 211.28 85.6209C211.816 85.728 212.244 87.1205 212.726 90.6016ZM200.837 100.991C206.781 105.169 212.298 105.062 218.082 100.67C219.474 99.599 220.17 99.4383 221.563 99.7061C226.544 100.831 231.738 105.383 235.113 111.756L237.255 115.773V125.788C237.255 131.251 237.148 135.91 236.987 136.017C236.826 136.178 232.756 135.481 227.882 134.517C223.009 133.553 218.135 132.589 216.957 132.429C214.708 132 214.761 132.268 215.886 126.752C216.529 123.538 215.672 125.252 214.868 128.84C214.119 132.054 214.119 132.268 215.083 132.482C216.422 132.857 216.368 135.053 214.708 154.012C214.226 159.528 213.797 159.742 203.675 160.064C193.392 160.438 190.768 160.01 185.198 157.279C182.788 156.1 180.432 155.136 179.95 155.136C179.468 155.136 179.147 154.976 179.254 154.708C183.485 146.514 185.573 140.141 185.573 135.589C185.573 133.928 185.734 133.714 186.591 133.982C187.394 134.196 187.662 133.928 187.93 132.589C188.09 131.679 188.198 130.126 188.198 129.215C188.144 127.93 188.037 128.144 187.716 130.126C187.448 131.572 187.126 132.857 186.966 133.018C186.859 133.179 184.663 132.107 182.092 130.715L177.486 128.091L177.808 126.002C178.29 122.682 181.771 112.345 183.752 108.382C187.341 101.206 190.018 98.9563 195.053 98.9028C197.463 98.9028 198.266 99.2241 200.837 100.991ZM252.786 103.509C265.639 106.615 274.583 117.647 279.028 135.91C282.242 149.245 283.206 167.936 281.224 178.969C279.35 189.305 275.226 201.034 270.674 209.014C268.746 212.388 268.21 212.923 267.3 212.655C266.657 212.441 265.961 211.959 265.746 211.584C265.425 210.995 262.801 210.835 252.518 210.835C244.806 210.835 239.611 211.049 239.397 211.37C239.236 211.638 238.005 212.334 236.719 212.923C235.434 213.459 234.041 214.53 233.613 215.226C232.863 216.351 232.649 217.047 231.846 220.85C231.685 221.653 231.203 222.081 230.56 222.081C229.971 222.081 229.221 222.563 228.846 223.152C228.257 224.063 227.561 224.224 224.134 224.224C217.171 224.277 213.529 226.901 212.351 232.632C211.976 234.346 210.959 239.487 209.995 244.039L208.281 252.287L206.407 252.715C202.39 253.572 189.858 254.108 183.538 253.626C175.773 253.09 167.364 251.644 167.364 250.841C167.364 250.573 168.596 248.377 170.149 245.967C174.541 239.166 173.952 236.595 167.418 233.649C164.526 232.364 164.258 232.096 163.562 229.74C163.187 228.294 162.919 226.794 162.973 226.312C163.08 225.83 162.384 222.938 161.527 219.939L159.867 214.53L162.491 210.674C163.883 208.532 166.133 204.89 167.364 202.533C170.685 196.428 171.917 194.982 175.023 193.482C177.486 192.358 178.879 192.144 186.109 191.822C199.23 191.287 214.868 188.823 218.939 186.681C219.581 186.306 222.098 184.057 224.508 181.7C229.703 176.612 231.096 173.935 232.97 165.473C234.738 157.493 235.38 151.816 235.38 143.568C235.38 136.767 235.434 136.499 236.451 136.767C237.041 136.927 237.523 136.82 237.523 136.606C237.523 136.338 237.79 133.286 238.058 129.805C238.861 118.986 237.576 113.309 232.917 107.15L231.096 104.74L233.077 103.937C237.415 102.116 246.199 101.902 252.786 103.509ZM149.316 126.645C149.959 127.341 162.544 163.009 162.544 164.08C162.544 164.187 153.708 164.241 142.836 164.241H123.181L117.075 145.871C113.541 135.267 111.077 127.073 111.291 126.591C111.613 125.788 113.326 125.681 130.036 125.681C146.96 125.681 148.513 125.734 149.316 126.645ZM185.091 135.642C184.663 142.711 179.896 154.708 177.219 155.351C176.469 155.565 173.845 157.654 171.435 159.956C167.579 163.652 166.722 164.241 165.061 164.241C163.348 164.241 163.08 164.027 162.544 162.42L161.955 160.546L166.4 156.1C171.863 150.638 175.13 145.068 177.915 136.338L179.95 130.019L182.628 131.572C185.252 133.071 185.252 133.125 185.091 135.642ZM225.472 134.571C229.81 135.374 233.238 136.338 233.559 136.767C234.095 137.356 234.256 137.356 234.523 136.82C234.684 136.445 234.738 140.676 234.577 146.3C234.363 156.743 233.559 162.474 231.149 170.507C228.418 179.665 222.473 184.003 216.743 180.95C214.761 179.879 206.889 173.292 207.21 172.971C207.317 172.863 209.406 173.024 211.869 173.345C219.153 174.363 224.562 172.917 226.704 169.543C228.097 167.24 230.292 160.653 231.364 155.618C232.542 149.995 233.774 141.533 233.72 139.498C233.613 137.249 233.506 137.891 232.435 146.032C230.667 159.046 227.454 168.847 224.134 171.31C218.564 175.381 200.944 172.114 184.288 163.92C181.075 162.313 178.825 161.563 177.379 161.563C174.594 161.563 169.239 163.223 170.149 163.812C170.685 164.134 170.685 164.241 170.203 164.241C167.846 164.241 170.042 161.135 174.916 157.493C178.022 155.19 180.057 155.136 183.86 157.225C189.59 160.438 191.357 160.76 201.64 160.599C211.334 160.492 213.262 160.117 214.386 158.35C214.761 157.707 215.404 152.298 215.94 145.229C216.475 137.517 217.011 133.179 217.386 133.179C217.707 133.179 221.349 133.821 225.472 134.571ZM163.08 158.296C163.08 159.153 161.58 159.367 161.259 158.564C161.045 158.082 161.313 157.814 162.009 157.814C162.598 157.814 163.08 158.028 163.08 158.296ZM181.557 163.116L183.699 164.134L177.701 164.187C171.702 164.241 170.256 163.759 173.148 162.741C175.505 161.884 179.254 162.045 181.557 163.116ZM187.983 166.383L191.197 167.883L157.992 167.936C123.288 167.99 123.449 167.99 123.449 165.741C123.449 164.83 124.948 164.776 154.136 164.83L184.77 164.884L187.983 166.383ZM128.911 169.757C123.931 175.059 125.537 186.199 133.731 203.39L136.945 210.138L133.303 218.493C131.268 223.099 129.393 226.794 129.072 226.687C128.161 226.419 125.109 220.957 123.395 216.511C120.289 208.425 119.485 203.658 119.485 192.626C119.485 182.182 119.967 179.451 122.913 171.578L124.038 168.525H127.037H130.036L128.911 169.757ZM175.13 168.954C174.809 169.222 170.738 170.828 166.025 172.542C161.313 174.256 156.6 176.237 155.528 176.88C151.833 179.183 149.584 182.504 145.728 191.34C139.837 204.783 138.337 207.943 138.069 207.3C137.855 206.657 147.227 185.288 149.37 181.7C150.708 179.397 153.386 176.934 156.118 175.434C156.867 175.059 161.098 173.345 165.49 171.685C172.988 168.847 176.308 167.883 175.13 168.954ZM238.594 213.673C238.594 214.101 238.005 214.691 237.308 215.012C235.648 215.762 234.523 217.475 234.095 220.1C233.827 221.332 233.452 222.081 233.077 221.921C232.381 221.706 232.381 221.439 232.917 218.225C233.452 215.333 238.594 211.156 238.594 213.673ZM268.424 214.155C269.12 214.798 269.656 215.922 269.656 216.672C269.656 219.457 268.96 222.081 268.264 222.081C267.728 222.081 267.621 221.439 267.889 219.457C268.156 217.047 268.049 216.672 266.71 215.44C265.372 214.155 265.264 212.977 266.55 212.977C266.925 212.977 267.728 213.512 268.424 214.155ZM238.915 215.922C240.147 217.101 262.962 217.101 264.675 215.922C267.621 213.887 265.425 218.118 261.194 222.724L259.802 224.224H248.769C238.433 224.224 237.683 224.17 236.826 223.152C236.344 222.563 235.541 222.081 235.059 222.081C234.416 222.081 234.256 221.76 234.523 220.85C234.684 220.207 234.845 219.296 234.845 218.814C234.845 218.065 237.255 215.119 237.897 215.119C238.005 215.119 238.487 215.494 238.915 215.922ZM158.795 216.619C158.795 216.833 157.403 218.707 155.743 220.742C154.029 222.724 152.101 225.027 151.458 225.777C150.869 226.526 150.173 227.008 149.959 226.794C149.744 226.634 151.405 224.331 153.654 221.76C155.903 219.136 157.724 216.833 157.724 216.619C157.724 216.404 157.992 216.19 158.26 216.19C158.581 216.19 158.795 216.404 158.795 216.619ZM267.514 218.172C267.514 220.689 266.925 222.081 265.854 222.081C265.318 222.081 264.568 222.563 264.14 223.206C263.658 223.849 262.908 224.224 262.265 224.116C261.248 223.956 261.408 223.581 263.872 220.314C265.318 218.332 266.764 216.726 267.032 216.726C267.3 216.726 267.514 217.368 267.514 218.172ZM277.422 225.67C276.351 228.24 265.372 283.028 265.639 284.527C265.8 285.438 266.55 286.884 267.246 287.634C267.996 288.437 268.585 289.187 268.585 289.347C268.585 289.455 254.66 289.508 237.683 289.455C212.03 289.294 206.514 289.187 205.603 288.544C203.997 287.473 202.711 285.117 202.711 283.296C202.765 280.136 213.262 230.704 214.279 228.99C214.868 228.026 216.368 226.687 217.653 225.991L220.01 224.759H248.93C276.243 224.759 277.797 224.813 277.422 225.67ZM163.187 230.168C163.937 232.418 163.99 233.382 163.455 235.792L162.866 238.684H160.67C158.742 238.684 158.367 238.416 156.707 236.113C155.743 234.72 154.939 233.328 154.993 233.06C155.046 232.525 161.42 227.49 162.062 227.437C162.223 227.437 162.705 228.669 163.187 230.168ZM149.905 232.043C151.78 234.881 151.94 234.988 152.904 234.131C153.815 233.328 153.975 233.382 155.796 235.792C157.885 238.523 157.938 238.577 157.242 240.397C156.439 242.593 156.064 244.575 156.492 244.468C157.403 244.253 161.473 245.217 161.848 245.753C162.169 246.342 161.045 246.235 157.082 245.325C155.957 245.057 155.582 245.164 155.582 245.807C155.582 246.289 155.368 246.771 155.1 246.985C153.975 247.681 138.444 238.469 138.444 237.131C138.444 236.863 139.73 235.684 141.283 234.506C142.782 233.328 144.764 231.614 145.621 230.704C146.531 229.793 147.388 229.044 147.549 229.044C147.763 229.044 148.834 230.382 149.905 232.043ZM130.357 236.863C131.696 237.666 132.928 238.416 133.035 238.523C133.356 238.791 126.715 245.539 125.484 246.235C124.252 246.878 122.003 245.967 121.574 244.628C121.36 243.879 122.11 242.433 124.091 239.541C125.644 237.345 127.144 235.524 127.412 235.47C127.679 235.47 129.018 236.113 130.357 236.863ZM171.649 238.362C171.649 239.166 163.83 251.537 162.598 252.662C161.473 253.733 160.134 254.215 156.974 254.697C154.725 255.018 152.315 255.286 151.672 255.286C149.37 255.232 151.994 254.375 156.385 253.733C158.688 253.411 161.098 252.769 161.741 252.394C162.33 252.019 164.633 248.645 166.829 244.896C170.203 239.219 171.649 237.238 171.649 238.362ZM113.701 246.985C114.772 249.288 114.398 250.359 113.273 248.324C112.148 246.235 111.988 245.646 112.63 245.646C112.898 245.646 113.38 246.235 113.701 246.985ZM158.153 247.574C159.867 248.056 159.599 248.966 157.885 248.538C156.171 248.109 154.939 247.253 156.171 247.253C156.546 247.253 157.456 247.413 158.153 247.574ZM126.126 254.215C126.126 254.536 121.199 254.75 112.47 254.75C103.74 254.75 98.8128 254.536 98.8128 254.215C98.8128 253.893 103.74 253.679 112.47 253.679C121.199 253.679 126.126 253.893 126.126 254.215Z" fill="black"/>
<path d="M219.313 188.288C219.313 188.555 220.224 188.877 221.349 189.091C223.812 189.466 228.364 191.608 230.828 193.482C231.846 194.232 233.399 195.946 234.309 197.339C235.166 198.677 235.916 199.534 235.916 199.213C235.916 198.249 232.863 194.393 230.989 193C227.668 190.537 219.313 187.163 219.313 188.288Z" fill="black"/>
<path d="M215.939 193.59C217.385 196.428 217.921 198.303 218.242 201.516L218.724 205.747L218.563 201.73C218.456 198.677 218.028 196.91 216.903 194.393C216.1 192.518 215.082 190.751 214.707 190.43C214.332 190.108 214.868 191.554 215.939 193.59Z" fill="black"/>
<path d="M133.356 143.568C131.857 145.818 134.052 148.817 136.516 147.853C137.801 147.371 138.176 145.175 137.159 143.622C136.034 141.908 134.427 141.908 133.356 143.568Z" fill="black"/>
<path d="M272.923 237.987C271.691 243.236 270.406 248.109 270.031 248.859L269.335 250.198L241.539 250.466C226.222 250.627 217.868 250.787 222.955 250.894L232.167 251.001L231.846 252.447C231.631 253.304 231.257 254.483 231.042 255.179C230.4 256.893 230.453 257.214 231.417 258.178C232.06 258.874 233.452 259.035 237.844 259.035C244.11 259.035 245.288 258.66 245.77 256.518C245.984 255.661 246.413 254.108 246.681 252.983L247.216 251.001H258.088C268.264 251.001 269.013 250.948 269.924 249.93C270.834 248.913 275.869 229.204 275.333 228.669C275.226 228.562 274.101 232.739 272.923 237.987ZM246.199 251.323C246.627 251.698 245.235 256.786 244.485 257.75C243.949 258.339 242.45 258.499 238.058 258.499C232.167 258.499 230.721 258.017 231.31 256.304C231.471 255.875 231.846 254.536 232.167 253.251L232.756 251.001H239.343C242.932 251.001 246.038 251.162 246.199 251.323Z" fill="black"/>
<path d="M220.01 284.581C227.882 284.688 240.736 284.688 248.662 284.581C256.535 284.527 250.054 284.474 234.309 284.474C218.564 284.474 212.083 284.527 220.01 284.581Z" fill="black"/>
<path d="M36.2595 70.7324C26.3517 73.9458 21.5852 85.4067 26.191 94.8861C32.2964 107.365 50.7196 107.258 56.8785 94.7255C58.1639 92.1012 58.3781 91.0301 58.3781 87.1205C58.3781 83.3716 58.1639 82.0863 57.0928 79.8905C55.379 76.5165 52.1121 73.196 48.7916 71.5893C45.5247 70.0362 39.6336 69.6613 36.2595 70.7324ZM47.1849 71.6429C50.9338 73.0353 54.5221 76.2487 56.3965 79.8905C58.3781 83.5858 58.4317 90.3874 56.6108 94.1364C55.0576 97.2961 51.6836 100.67 48.5238 102.223C44.9891 103.991 38.0269 103.991 34.4386 102.223C31.2253 100.617 28.0119 97.4033 26.4053 94.1899C24.6379 90.5481 24.6379 83.5858 26.4588 80.1583C30.6362 72.1249 39.098 68.6438 47.1849 71.6429Z" fill="black"/>
<path d="M37.4913 81.1222C28.9759 86.21 29.0294 86.1029 33.0997 92.7974C35.349 96.5463 36.2595 97.6174 37.3306 97.7246C38.241 97.8317 40.8653 96.5999 45.3104 94.0292C48.9522 91.887 52.112 89.9054 52.3262 89.5841C53.1831 88.3523 52.6476 86.3707 50.5053 82.6754C47.6669 77.7482 46.9706 76.9449 45.5782 76.9449C44.9355 76.9984 41.3473 78.8729 37.4913 81.1222ZM47.0778 78.2838C48.6309 79.8369 52.2727 87.1205 52.112 88.2987C52.0049 89.2092 50.2911 90.4945 45.2569 93.3865C41.5615 95.5288 38.0804 97.2426 37.4913 97.189C36.3666 97.0283 34.7064 94.779 32.1357 90.0661C30.9039 87.7632 30.6897 86.9063 31.1181 86.1565C31.7608 85.1389 44.5071 77.4804 45.5782 77.4804C45.9531 77.4804 46.5958 77.8553 47.0778 78.2838Z" fill="black"/>
<path d="M43.3828 84.4427L41.8833 87.6025L38.0808 87.8167L34.2783 87.9774L38.1343 88.0845L42.0439 88.1916L43.7042 84.9247C44.561 83.1038 45.2573 81.5507 45.0966 81.4435C44.9895 81.3364 44.2397 82.6753 43.3828 84.4427Z" fill="black"/>
<path d="M62.3949 75.7666C63.0375 76.7306 63.7338 77.4269 63.8944 77.2126C64.0551 77.052 63.5195 76.2486 62.6627 75.4453L61.1631 73.9993L62.3949 75.7666Z" fill="black"/>
<path d="M66.6797 80.9616C66.6797 81.2294 67.3224 82.1934 68.0721 83.1038C68.8219 83.9607 69.1968 84.2285 68.8755 83.6394C68.1257 82.0327 66.7332 80.3725 66.6797 80.9616Z" fill="black"/>
<path d="M161.259 83.8536C160.723 84.7105 161.526 86.0494 162.812 86.3707C164.579 86.7992 167.525 86.4243 167.739 85.728C168.114 84.4963 166.239 83.3716 163.883 83.3716C162.598 83.3716 161.419 83.5858 161.259 83.8536Z" fill="black"/>
<path d="M71.5527 87.9238C72.4096 89.9054 73.3736 91.405 73.7485 91.405C74.0163 91.405 73.695 90.6016 73.0523 89.6376C71.6598 87.6025 71.285 87.1741 71.5527 87.9238Z" fill="black"/>
<path d="M75.7837 95.0468C75.7837 95.9572 77.3904 99.0635 77.7117 98.7421C77.8724 98.5815 77.4975 97.5639 76.9084 96.3857C76.3193 95.261 75.8372 94.6719 75.7837 95.0468Z" fill="black"/>
<path d="M36.4738 116.148C36.3132 116.523 36.0989 117.54 35.9383 118.344C35.7241 119.2 35.0814 120.057 34.3852 120.272C33.4212 120.646 32.832 120.432 31.4396 119.093L29.7258 117.433L27.8513 118.397C25.8162 119.522 25.7091 119.897 26.566 122.414C27.5836 125.359 25.4949 126.431 21.6389 124.877C20.9962 124.663 20.4071 125.092 19.6037 126.538L18.4255 128.519L20.1393 130.287C21.5853 131.786 21.7995 132.268 21.3175 133.232C20.9962 133.982 19.9786 134.678 18.6933 135.053C16.7653 135.589 16.6046 135.749 16.4439 137.784C16.2833 139.98 16.2833 139.98 18.6933 140.623C21.9602 141.426 22.3886 142.872 20.0857 145.229L18.3184 147.05L19.5502 148.924C20.8355 151.066 20.8355 151.066 23.2455 150.263C24.7451 149.727 25.1735 149.781 26.0304 150.691C26.9409 151.548 26.9944 151.977 26.5124 153.208C25.6556 155.511 25.8162 156.047 27.8513 157.225L29.7794 158.35L31.2789 156.636C33.314 154.333 35.2956 154.762 35.9918 157.654C36.4203 159.474 36.6881 159.689 38.5625 160.01C40.2228 160.331 41.1332 160.117 42.4721 159.314C43.4361 158.725 44.1323 158.082 43.9717 157.921C43.811 157.814 43.329 157.975 42.847 158.35C41.7759 159.26 41.5616 158.939 41.883 157.118C42.3114 154.815 44.4001 154.601 46.4888 156.69L48.2026 158.35L50.077 157.225C51.0946 156.582 52.005 156.047 52.1122 155.94C52.1657 155.886 51.8979 154.869 51.4695 153.637C50.7733 151.655 50.7733 151.388 51.6837 150.584C52.5406 149.834 52.9691 149.781 54.4151 150.263C56.9322 151.12 57.2535 151.013 58.3246 148.978L59.3422 147.05L57.682 145.336C55.6468 143.247 55.8075 141.373 58.0569 140.891C61.3238 140.141 61.3238 140.194 61.3238 137.677C61.3238 135.321 61.3238 135.321 59.128 134.999C57.4677 134.732 56.8251 134.303 56.4502 133.232C55.9682 132 56.1288 131.679 57.5749 130.34C59.128 128.948 59.2351 128.68 58.646 127.287C57.682 124.931 56.9857 124.556 54.7364 125.252C53.0762 125.788 52.5942 125.734 51.7373 124.931C50.7733 124.074 50.7733 123.806 51.4159 121.878C52.1657 119.736 52.1657 119.736 50.4519 118.718C48.2561 117.326 47.8277 117.38 46.3281 118.986C45.4712 119.897 44.5608 120.325 43.6503 120.218C42.5257 120.111 42.2043 119.682 41.8294 117.754C41.3474 115.505 41.3474 115.505 38.991 115.505C37.5985 115.505 36.581 115.773 36.4738 116.148ZM41.2939 118.129C41.5616 119.897 41.9365 120.379 43.2754 120.861C44.775 121.343 45.0963 121.236 46.6495 119.736C48.3632 118.076 48.4704 118.022 49.8093 118.933C51.2553 119.897 51.4159 120.593 50.6126 122.789C50.1306 124.02 50.2377 124.449 51.2017 125.467C52.2728 126.591 52.4335 126.645 54.5222 125.895C56.8251 125.092 56.8251 125.092 58.164 127.502C58.646 128.305 58.4318 128.787 57.1464 130.179C55.8611 131.465 55.5933 132.161 55.8075 133.339C56.0217 134.571 56.5037 134.892 58.4853 135.374C60.7882 135.963 60.8418 136.071 60.6811 137.945C60.5204 139.712 60.3598 139.873 58.3246 140.301C56.3966 140.676 56.0217 140.944 55.754 142.337C55.4862 143.676 55.754 144.158 57.0929 145.389C58.7531 146.889 58.7531 146.889 57.8962 148.656C57.2535 149.834 56.718 150.316 56.1288 150.102C53.5582 149.085 52.6477 149.138 51.4159 150.316C50.2377 151.441 50.1841 151.602 50.8804 153.53C51.5766 155.511 51.523 155.618 50.3448 156.422C48.5239 157.6 47.667 157.493 46.6495 155.94C45.0428 153.53 41.8294 154.494 41.2939 157.546C40.9725 159.314 40.8119 159.421 38.8839 159.421C36.9023 159.421 36.7952 159.314 36.4738 157.332C35.9918 154.226 33.6889 153.637 31.2789 155.993C29.8865 157.332 29.6722 157.386 28.1191 156.743C26.7267 156.154 26.5124 155.833 26.7267 154.762C26.8873 154.119 27.2087 152.994 27.3693 152.298C27.53 151.495 27.3158 150.745 26.566 150.102C25.602 149.245 25.1736 149.192 23.192 149.674C21.9066 149.995 20.8355 150.102 20.7284 149.834C20.6749 149.62 20.2464 148.924 19.818 148.388C19.1753 147.478 19.2824 147.21 20.7284 145.657C22.0673 144.318 22.2815 143.729 21.9602 142.39C21.6924 141.051 21.264 140.676 19.2288 140.194C16.9259 139.605 16.8188 139.498 16.9795 137.838C17.1402 136.338 17.4079 136.017 19.3895 135.428C21.2104 134.839 21.6924 134.41 22.0138 133.018C22.2815 131.625 22.1209 131.197 20.6749 130.019L19.0146 128.626L20.0857 126.913C21.1033 125.199 21.1033 125.199 23.2455 125.949C25.2271 126.645 25.3878 126.591 26.5124 125.413C27.5836 124.288 27.6371 123.967 27.048 122.146C26.4053 120.325 26.4589 120.111 27.6371 119.2C29.4045 117.862 29.9936 117.915 31.4396 119.79C32.5107 121.182 32.8856 121.343 34.278 120.968C35.6169 120.593 35.9918 120.164 36.3667 118.29C36.8487 116.148 36.9558 116.041 38.9374 116.041C40.8654 116.041 40.9725 116.148 41.2939 118.129Z" fill="black"/>
<path d="M34.278 127.502C31.9216 128.519 28.8153 132.268 28.1191 134.892C26.1911 141.908 31.6002 148.978 38.8303 148.924C45.7925 148.87 50.559 143.622 49.9699 136.606C49.4879 130.876 44.8285 126.752 38.8838 126.752C37.2236 126.805 35.1885 127.127 34.278 127.502ZM42.9541 127.877C44.9892 128.626 47.2921 130.876 48.5774 133.393C50.9339 137.945 48.8988 144.425 44.293 146.942C41.2403 148.656 39.2052 148.87 35.9383 147.96C26.8873 145.336 25.5484 132.804 33.8496 128.412C36.0989 127.234 40.5441 126.966 42.9541 127.877Z" fill="black"/>
<path d="M84.8888 118.451C85.103 119.522 85.4779 120.593 85.6922 120.754C86.2277 121.289 85.4244 117.487 84.8888 116.898C84.621 116.63 84.621 117.326 84.8888 118.451Z" fill="black"/>
<path d="M86.6021 125.681C86.6021 126.43 86.8163 127.609 87.0305 128.359C87.3518 129.43 87.4589 129.483 87.4589 128.626C87.4589 128.037 87.2447 126.805 87.0305 125.948C86.6556 124.502 86.6021 124.502 86.6021 125.681Z" fill="black"/>
<path d="M87.9408 135.16C88.3692 137.838 88.637 138.106 88.637 135.696C88.637 134.625 88.4228 133.661 88.155 133.446C87.8336 133.286 87.7801 133.982 87.9408 135.16Z" fill="black"/>
<path d="M88.7983 143.622C88.7983 145.068 88.9055 145.657 89.0126 144.8C89.1197 143.997 89.1197 142.819 89.0126 142.122C88.9055 141.48 88.7983 142.122 88.7983 143.622Z" fill="black"/>
<path d="M88.37 151.923C88.1557 153.155 88.1022 154.28 88.2629 154.387C88.4235 154.547 88.6913 153.69 88.9055 152.459C89.1197 151.227 89.1733 150.102 89.0126 149.995C88.852 149.834 88.5842 150.691 88.37 151.923Z" fill="black"/>
<path d="M11.6235 154.601C11.6235 155.618 11.7306 156.047 11.8913 155.511C11.9984 155.029 11.9984 154.172 11.8913 153.637C11.7306 153.155 11.6235 153.583 11.6235 154.601Z" fill="black"/>
<path d="M56.2362 155.618C56.5575 155.833 57.7358 156.208 58.914 156.368C61.4311 156.743 60.3065 155.993 57.5751 155.458C56.504 155.244 55.9684 155.297 56.2362 155.618Z" fill="black"/>
<path d="M7.39305 158.189C7.87505 158.296 8.73195 158.296 9.2675 158.189C9.74951 158.028 9.32106 157.921 8.3035 157.921C7.28594 157.921 6.85749 158.028 7.39305 158.189Z" fill="black"/>
<path d="M13.8198 158.189C14.3018 158.296 15.1587 158.296 15.6943 158.189C16.1763 158.028 15.7478 157.921 14.7303 157.921C13.7127 157.921 13.2842 158.028 13.8198 158.189Z" fill="black"/>
<path d="M64.0551 157.975C64.9656 158.725 68.2861 160.546 68.2861 160.331C68.2861 159.956 64.8049 157.814 64.2694 157.814C64.0016 157.814 63.948 157.868 64.0551 157.975Z" fill="black"/>
<path d="M87.3517 159.26C87.2446 159.796 86.9232 160.813 86.7626 161.563C86.4948 162.42 86.5484 162.741 86.9232 162.367C87.191 162.045 87.5659 161.028 87.7266 160.064C88.1015 158.243 87.8337 157.707 87.3517 159.26Z" fill="black"/>
<path d="M11.6235 161.028C11.6235 162.045 11.7306 162.474 11.8913 161.938C11.9984 161.456 11.9984 160.599 11.8913 160.064C11.7306 159.582 11.6235 160.01 11.6235 161.028Z" fill="black"/>
<path d="M51.6836 161.563C51.6836 163.063 50.2376 163.491 49.0058 162.367C47.4527 160.974 45.6854 162.152 45.8996 164.402C46.0603 166.008 45.9532 166.115 44.2394 166.115C41.9365 166.115 40.8118 167.936 42.2042 169.489C43.436 170.882 43.3289 171.15 41.4545 171.846C40.1156 172.274 39.8478 172.649 40.0085 173.827C40.1156 174.791 40.544 175.273 41.4009 175.381C43.0611 175.648 43.4896 176.88 42.3114 178.166C40.9189 179.665 42.0436 181.432 44.3465 181.218C45.9532 181.111 46.0603 181.218 45.8996 182.825C45.6854 185.074 47.4527 186.252 49.0058 184.86C50.2376 183.735 51.6836 184.164 51.6836 185.663C51.6836 186.467 52.0585 186.734 53.2368 186.734C54.415 186.734 54.8434 186.413 55.1112 185.396C55.4861 183.842 56.2894 183.682 57.6283 184.914C59.1279 186.252 60.8952 185.021 60.681 182.825C60.5204 181.218 60.6275 181.111 62.0735 181.218C62.9839 181.272 64.0015 181.058 64.3764 180.736C65.3404 179.933 65.2333 178.326 64.1622 177.737C62.9839 177.041 63.6266 175.595 65.1797 175.381C66.0366 175.273 66.4651 174.791 66.5722 173.827C66.7328 172.649 66.4651 172.274 65.1262 171.846C63.1981 171.15 63.091 170.828 64.537 169.329C65.501 168.311 65.501 168.097 64.7513 167.026C64.1622 166.169 63.6266 165.901 62.6626 166.169C60.8417 166.651 60.199 166.062 60.7881 164.509C61.2166 163.384 61.1095 163.063 59.9848 162.313C58.6995 161.51 58.5923 161.51 57.6819 162.634C56.7714 163.759 56.6643 163.759 55.8074 162.902C55.3254 162.42 54.897 161.67 54.897 161.242C54.897 160.76 54.3079 160.492 53.2903 160.492C52.0585 160.492 51.6836 160.706 51.6836 161.563ZM54.6828 162.313C55.1112 163.973 56.7179 164.402 57.8961 163.116C59.0743 161.831 60.4668 162.741 60.0384 164.562C59.6635 166.062 60.8952 167.133 62.609 166.705C64.2693 166.276 64.9119 167.776 63.6801 169.115C62.609 170.346 63.1446 172.167 64.6977 172.381C66.3044 172.596 66.3044 174.631 64.6977 174.845C63.1446 175.059 62.609 176.88 63.6801 178.112C64.9119 179.451 64.2693 180.95 62.609 180.522C60.7881 180.04 59.717 181.111 60.0384 182.932C60.4132 184.806 59.1279 185.503 57.8426 184.057C56.7179 182.825 55.0577 183.253 54.6828 184.914C54.2543 186.627 52.4334 186.627 52.005 184.914C51.5765 183.253 49.8627 182.825 48.7381 184.057C47.4527 185.503 46.1674 184.806 46.5423 182.932C46.8636 181.111 45.7925 180.04 43.9716 180.522C42.3114 180.95 41.6687 179.451 42.9005 178.112C44.0787 176.827 43.6503 175.327 42.0436 174.952C40.2227 174.524 40.2227 172.703 42.0436 172.274C43.7038 171.899 44.0251 170.4 42.7934 169.007C41.6687 167.776 42.5791 166.33 44.1858 166.758C45.6318 167.133 46.9707 165.955 46.5423 164.669C46.3816 164.134 46.5423 163.277 46.9172 162.849C47.4527 162.152 47.7205 162.206 48.7381 163.17C50.1305 164.509 51.5765 164.134 52.005 162.313C52.4334 160.599 54.2543 160.599 54.6828 162.313Z" fill="black"/>
<path d="M50.8265 167.454C50.2373 167.669 49.0591 168.633 48.3093 169.597C45.7922 172.596 46.7027 177.737 50.0767 179.504C55.8607 182.504 61.859 176.934 59.2883 170.989C57.7887 167.669 54.0934 166.115 50.8265 167.454ZM56.3963 168.525C60.1452 170.828 60.413 175.541 56.9854 178.433C54.5218 180.468 51.5762 180.308 49.2198 177.951C47.7202 176.452 47.3989 175.702 47.3989 173.881C47.3989 171.096 48.0951 169.811 50.2373 168.525C52.4331 167.187 54.2005 167.187 56.3963 168.525Z" fill="black"/>
<path d="M36.4735 165.259C35.2417 167.561 35.4024 168.043 36.7413 165.901C37.3304 164.937 37.7053 164.027 37.5446 163.866C37.4375 163.705 36.902 164.348 36.4735 165.259Z" fill="black"/>
<path d="M6.42898 167.454C4.50097 169.597 7.0181 173.024 9.64234 171.846C11.3561 171.043 11.7846 169.329 10.767 167.722C9.69589 166.115 7.76788 166.008 6.42898 167.454ZM10.1243 167.776C11.3561 168.954 11.1955 169.971 9.64234 170.989C8.357 171.846 8.19633 171.846 7.23232 170.935C6.64321 170.4 6.16121 169.65 6.16121 169.275C6.16121 168.365 7.66077 166.919 8.57122 166.919C8.94611 166.919 9.69589 167.294 10.1243 167.776Z" fill="black"/>
<path d="M84.6205 168.258C84.1921 169.382 83.9243 170.4 84.0314 170.561C84.1921 170.668 84.6741 169.864 85.1561 168.793C85.5846 167.669 85.8523 166.651 85.7452 166.49C85.5846 166.383 85.1025 167.187 84.6205 168.258Z" fill="black"/>
<path d="M34.3314 173.131C34.1172 174.202 34.0636 175.166 34.1707 175.274C34.3314 175.434 34.5992 174.684 34.7599 173.56C34.9741 172.489 35.0276 171.525 34.9205 171.417C34.7599 171.257 34.4921 172.007 34.3314 173.131Z" fill="black"/>
<path d="M35.1348 181.7C35.4561 182.825 35.831 183.896 35.9917 184.057C36.4737 184.539 35.5097 180.576 35.0277 180.094C34.8135 179.826 34.867 180.522 35.1348 181.7Z" fill="black"/>
<path d="M76.3197 182.557L75.0879 184.324L76.5875 182.878C77.4443 182.075 77.9799 181.272 77.8192 181.111C77.6586 180.897 76.9623 181.593 76.3197 182.557Z" fill="black"/>
<path d="M70.4281 188.395C68.5536 190.055 68.5536 190.055 70.2674 188.877C71.2314 188.288 72.1419 187.538 72.3025 187.27C72.8381 186.413 72.4096 186.681 70.4281 188.395Z" fill="black"/>
<path d="M39.0977 188.877C39.9546 189.734 40.8651 190.483 41.1328 190.483C41.4006 190.483 40.8651 189.734 40.0082 188.877C39.0977 187.966 38.1873 187.27 37.973 187.27C37.7588 187.27 38.2408 187.966 39.0977 188.877Z" fill="black"/>
<path d="M16.3367 191.715C6.80379 195.357 1.71599 200.712 0.269978 208.532C-1.55092 218.707 6.10757 232.364 15.1585 235.042C17.997 235.899 18.479 236.648 19.0681 241.522C19.6036 245.914 20.9425 248.27 25.2806 252.447C26.8337 253.947 28.119 255.5 28.119 255.929C28.119 257.375 25.9232 260.106 23.9417 261.124C21.6388 262.302 21.1568 263.105 21.1568 265.515C21.1568 268.568 26.9408 278.208 31.0646 282.064C32.4571 283.349 32.7784 283.403 40.3298 283.51C46.9171 283.617 48.3096 283.51 49.1129 282.76C51.4158 280.671 49.3272 277.779 45.4711 277.779C43.436 277.779 42.7398 277.512 41.508 276.173C40.062 274.62 36.688 266.961 36.688 265.194C36.688 264.765 37.7055 263.748 38.9909 262.998C40.2227 262.195 42.7398 260.16 44.5607 258.499C48.8452 254.483 50.6661 253.84 55.6468 254.75C61.0023 255.714 63.2517 256.678 63.9479 258.392C64.2157 259.196 65.2333 263.587 66.0901 268.139C68.1788 278.743 68.6073 280.136 70.1068 281.903C71.2315 283.189 71.8206 283.403 75.1946 283.563C79.3185 283.831 80.6038 283.296 80.6038 281.314C80.6038 279.333 79.1042 277.833 76.8013 277.458C75.1411 277.19 74.6055 276.815 74.2842 275.691C73.6951 273.602 73.9629 261.659 74.6591 259.945L75.2482 258.446L78.4616 260.16C80.1753 261.07 82.5854 262.623 83.71 263.641C85.6916 265.301 85.7987 265.622 86.1736 269.157C86.5485 273.709 87.7803 276.923 89.6012 278.315C91.2079 279.6 92.0648 279.654 93.1359 278.529C94.4212 277.297 94.1534 274.994 92.6003 272.638C91.1543 270.496 91.1543 270.549 92.1183 264.123C92.4396 262.034 92.3325 261.873 88.6907 258.178C83.5494 252.929 83.5494 252.608 87.1912 242.968C88.8514 238.684 90.4581 233.649 90.833 231.721C91.315 229.311 92.0112 227.651 93.0823 226.419C95.7066 223.313 96.2421 221.331 96.5099 213.512C96.9383 202.319 95.653 200.766 91.3685 207.246L89.0121 210.835H85.638C83.8171 210.835 81.9427 210.995 81.4607 211.156C80.6038 211.477 77.5511 208.639 75.9444 205.907C74.0164 202.801 72.0349 203.765 71.66 207.996C71.3386 211.156 73.3737 221.653 74.7662 224.116C75.3018 225.08 75.7838 225.991 75.7838 226.098C75.7838 226.205 74.3913 226.794 72.7311 227.437C70.696 228.24 67.911 228.722 64.7513 228.883C60.1454 229.151 59.5563 229.044 54.0936 227.169C44.7214 223.956 37.9198 223.956 26.6195 227.169C20.1928 229.044 17.1401 228.187 12.2129 223.152C8.83892 219.725 6.91091 216.244 5.89334 211.799C5.14356 208.585 5.14356 208.532 5.41134 211.102C5.9469 216.565 10.7134 223.849 15.587 226.687C19.1216 228.776 21.6388 229.151 24.6915 228.24C26.1375 227.812 27.3693 227.437 27.4228 227.437C27.4228 227.437 27.4228 228.615 27.4228 230.008C27.3157 233.007 28.4404 235.042 30.8504 236.274C33.0462 237.452 38.9909 238.684 42.3649 238.684C46.4887 238.684 49.5414 239.862 54.415 243.236C61.4843 248.27 63.9479 248.591 68.7144 245.11C73.6951 241.522 75.4089 234.935 72.4633 231.025C71.6064 230.008 70.9637 228.99 70.9637 228.829C70.9637 228.722 71.8742 228.294 72.9989 227.972C74.07 227.598 75.1946 227.116 75.4624 226.848C75.7302 226.634 76.5871 226.848 77.3369 227.383C80.2825 229.472 86.7627 230.222 89.869 228.829C91.1007 228.24 91.1007 229.579 89.7083 234.024L88.6372 237.505L84.9418 237.72C82.264 237.827 80.9251 238.202 80.1218 238.898C78.7293 240.183 78.6758 242.807 80.0147 244.575C80.818 245.592 80.9787 246.449 80.7645 248.645C80.4967 251.162 80.5502 251.483 81.9427 252.394C82.746 252.929 84.0849 254.108 84.8347 255.018C85.5845 255.875 87.5125 257.803 89.0656 259.249C91.7434 261.766 91.9041 262.088 91.6363 263.855C90.5652 270.121 90.6187 270.871 91.797 272.477C94.3677 275.959 93.5108 279.761 90.5116 278.422C89.8154 278.101 88.8514 277.137 88.423 276.333C87.5661 274.62 86.4949 269.371 86.4949 266.693C86.4949 265.14 86.0665 264.605 83.3887 262.623C78.9436 259.356 75.4089 257.589 74.7126 258.285C73.8558 259.142 72.9453 267.925 73.2666 271.995C73.6415 276.333 74.3378 277.779 75.998 277.779C77.9796 277.779 80.1753 279.815 79.9611 281.475C79.8005 282.76 79.5862 282.867 76.6407 283.028C72.8382 283.242 70.9102 282.546 69.7319 280.511C69.2499 279.707 67.911 274.245 66.6793 268.461C65.501 262.623 64.3764 257.589 64.2157 257.321C63.573 256.303 59.5028 254.857 55.379 254.161C50.2376 253.304 48.9523 253.786 44.4 258.017C42.5791 259.731 39.1515 262.195 36.7951 263.587C29.2437 267.979 28.9224 269.21 33.5817 274.352C35.6169 276.494 36.6344 277.244 37.7591 277.244C38.5624 277.244 39.8478 277.726 40.6511 278.369C44.2394 281.153 40.544 283.831 34.3315 282.921C32.0822 282.546 31.6537 282.225 28.7081 278.476C24.7986 273.441 21.6923 267.55 21.6923 265.194C21.6923 263.694 22.0672 263.159 24.3701 261.498C27.5299 259.249 28.8688 257.321 28.5475 255.607C28.3333 254.536 28.601 254.268 30.3684 253.733C32.3499 253.144 34.5457 250.68 34.5457 249.073C34.5457 247.681 32.5106 246.128 29.9935 245.485L27.3157 244.843L27.4764 241.469C27.637 238.362 27.5299 238.041 26.0839 236.541C24.3166 234.774 23.299 234.613 20.6748 235.524C19.443 235.952 18.5861 235.952 17.7827 235.577C17.1401 235.256 15.3192 234.453 13.7661 233.81C10.2849 232.364 5.4649 227.33 3.32266 222.938C-2.62204 210.727 1.12687 199.534 13.1769 193.697C18.3719 191.18 23.0312 190.001 23.9417 190.912C24.9592 191.929 23.0848 193.375 18.0505 195.518C10.2849 198.838 6.53602 202.212 5.89334 206.55C5.67912 208.05 5.73268 208.157 6.05401 207.086C7.7678 202.105 10.2314 199.856 17.997 196.214C24.1559 193.322 25.4948 192.144 24.3166 190.698C23.3526 189.573 21.3174 189.841 16.3367 191.715ZM95.9208 205.8C96.135 206.871 96.135 210.62 96.0279 214.101C95.7601 219.832 95.5994 220.849 94.207 223.527C93.0288 225.884 92.1183 226.848 90.2974 227.812C86.2807 229.9 80.4967 229.258 77.1762 226.366C74.9804 224.384 74.4984 223.26 73.106 216.351C71.7671 209.603 71.7671 207.032 72.9989 205.425L74.0164 204.247L76.1587 207.139C79.5327 211.691 79.6398 211.745 85.0489 211.477L89.7618 211.263L90.7794 209.228C91.9576 206.925 94.4212 203.872 95.0639 203.872C95.3317 203.872 95.7066 204.729 95.9208 205.8ZM36.9022 267.979C38.1875 272.049 39.6871 275.048 41.4009 276.815C42.5256 278.047 43.2218 278.315 45.3105 278.315C48.0418 278.315 49.5414 279.279 49.5414 280.993C49.5414 282.439 47.9347 283.135 44.7749 283.135H42.0971L42.4185 281.368C42.6327 279.815 42.4185 279.386 40.9724 278.154C40.0084 277.297 38.616 276.708 37.7591 276.708C35.3491 276.708 30.3684 270.442 31.1182 268.407C31.4395 267.604 34.9206 264.926 35.6169 264.926C35.8311 264.926 36.3666 266.318 36.9022 267.979Z" fill="black"/>
<path d="M62.6628 192.358C60.5206 193.375 61.8059 193.375 64.0553 192.358C65.0728 191.929 65.5013 191.608 65.0728 191.608C64.6444 191.608 63.5733 191.983 62.6628 192.358Z" fill="black"/>
<path d="M44.7212 192.626C44.7212 192.84 45.6852 193.268 46.917 193.59C49.4877 194.232 49.2734 193.804 46.5956 192.84C45.5781 192.518 44.7212 192.411 44.7212 192.626Z" fill="black"/>
<path d="M53.558 194.232C52.8618 194.554 53.2902 194.607 54.8969 194.393C56.2358 194.232 57.414 194.018 57.5211 193.911C58.0031 193.482 54.5756 193.804 53.558 194.232Z" fill="black"/>
<path d="M280.903 253.893V279.279L276.351 281.85C273.833 283.242 271.905 284.474 272.013 284.581C272.12 284.688 274.315 283.671 276.833 282.225L281.438 279.654V254.054C281.438 240.023 281.331 228.508 281.171 228.508C281.01 228.508 280.903 239.915 280.903 253.893Z" fill="black"/>
<path d="M101.276 282.064C102.187 282.974 110.113 284.742 115.683 285.331C121.092 285.92 133.57 285.224 136.784 284.153C137.908 283.778 137.748 283.724 136.034 283.938C121.038 285.706 112.951 285.331 103.418 282.385C101.972 281.957 101.008 281.796 101.276 282.064Z" fill="black"/>
</svg>
