<svg width="20" height="21" viewBox="0 0 20 21" fill="none" xmlns="http://www.w3.org/2000/svg">
<path d="M10.0001 7.275V11.3M8.9584 2.54167C9.54173 2.05 10.4834 2.05 11.0501 2.54167L12.3667 3.66667C12.6167 3.875 13.0917 4.05 13.4251 4.05H14.8417C15.7251 4.05 16.4501 4.775 16.4501 5.65834V7.075C16.4501 7.40834 16.6251 7.875 16.8334 8.125L17.9584 9.44167C18.4501 10.025 18.4501 10.9667 17.9584 11.5333L16.8334 12.85C16.6251 13.1 16.4501 13.5667 16.4501 13.9V15.3167C16.4501 16.2 15.7251 16.925 14.8417 16.925H13.4251C13.0917 16.925 12.6251 17.1 12.3751 17.3083L11.0584 18.4333C10.4751 18.925 9.5334 18.925 8.96673 18.4333L7.65007 17.3083C7.40007 17.1 6.92507 16.925 6.60007 16.925H5.14173C4.2584 16.925 3.5334 16.2 3.5334 15.3167V13.8917C3.5334 13.5667 3.36673 13.0917 3.1584 12.85L2.0334 11.525C1.55007 10.95 1.55007 10.0167 2.0334 9.44167L3.1584 8.11667C3.36673 7.86667 3.5334 7.4 3.5334 7.075V5.66667C3.5334 4.78334 4.2584 4.05834 5.14173 4.05834H6.5834C6.91673 4.05834 7.3834 3.88334 7.6334 3.675L8.9584 2.54167Z" stroke="black" stroke-width="1.5" stroke-linecap="round" stroke-linejoin="round"/>
<path d="M9.99561 13.8333H10.0031" stroke="black" stroke-width="2" stroke-linecap="round" stroke-linejoin="round"/>
</svg>
