<svg width="20" height="20" viewBox="0 0 20 20" fill="none" xmlns="http://www.w3.org/2000/svg">
<path d="M10 11.1917C10.3415 11.1917 10.6796 11.1244 10.995 10.9938C11.3104 10.8631 11.5971 10.6716 11.8385 10.4301C12.0799 10.1887 12.2714 9.90209 12.4021 9.58664C12.5328 9.2712 12.6 8.9331 12.6 8.59167C12.6 8.25023 12.5328 7.91214 12.4021 7.59669C12.2714 7.28124 12.0799 6.99462 11.8385 6.75319C11.5971 6.51176 11.3104 6.32024 10.995 6.18958C10.6796 6.05892 10.3415 5.99167 10 5.99167C9.31046 5.99167 8.64914 6.26559 8.16155 6.75319C7.67395 7.24078 7.40002 7.9021 7.40002 8.59167C7.40002 9.28123 7.67395 9.94255 8.16155 10.4301C8.64914 10.9177 9.31046 11.1917 10 11.1917Z" stroke="black" stroke-width="1.5"/>
<path d="M3.01663 7.075C4.65829 -0.141667 15.35 -0.133334 16.9833 7.08333C17.9416 11.3167 15.3083 14.9 13 17.1167C12.1934 17.8946 11.1164 18.3293 9.99579 18.3293C8.87517 18.3293 7.79823 17.8946 6.99163 17.1167C4.69163 14.9 2.05829 11.3083 3.01663 7.075Z" stroke="black" stroke-width="1.5"/>
</svg>
