<svg width="311" height="235" viewBox="0 0 311 235" fill="none" xmlns="http://www.w3.org/2000/svg">
<path d="M52.5088 0.333405C49.6177 1.25856 47.4783 2.70413 45.3388 5.01703C42.3321 8.37073 41.3491 10.9727 41.3491 15.4251C41.2913 22.9998 46.6688 29.3024 54.417 30.6902L56.5564 31.0949V40.8669C56.5564 49.8294 56.4986 50.6389 55.5156 50.9859C53.0292 51.7375 52.9136 55.7273 55.3421 56.9994C56.8455 57.8089 59.2162 56.9416 59.7366 55.3804C60.0836 54.1661 60.3149 54.1661 89.573 54.1661H119.005V86.1997V118.176L115.131 119.216C110.563 120.431 109.753 120.951 109.753 122.628C109.753 123.264 110.794 127.369 112.066 131.648C113.338 135.927 114.379 139.512 114.379 139.57C114.379 139.685 111.43 139.743 107.787 139.743H101.253L100.848 137.373C100.328 134.019 98.9981 131.764 96.8586 130.492C95.3552 129.567 93.9675 129.335 88.9948 129.335C83.6751 129.335 82.8078 129.162 81.7092 128.179C80.5527 127.08 79.6854 126.965 72.3997 126.965C68.0052 126.965 63.7842 126.965 63.0325 127.022C60.8353 127.022 58.8693 129.509 58.8693 132.226C58.8693 133.961 59.2162 134.944 60.3149 135.985C61.7026 137.373 61.9339 137.43 70.8964 137.43C79.2228 137.43 80.2636 137.315 81.5935 136.274C82.8078 135.349 83.9064 135.118 87.8962 135.118C90.9029 135.118 93.1002 135.407 93.6784 135.811C94.4301 136.39 95.6444 143.039 98.9402 163.508C102.757 187.447 103.393 190.685 104.722 192.593L106.168 194.79L103.335 199.358C99.8654 204.967 99.5763 207.511 102.178 210.402L103.855 212.31L110.852 212.484C117.27 212.657 117.848 212.773 117.848 213.814C117.848 214.392 117.443 214.912 116.981 214.912C116.518 214.912 115.131 215.895 113.858 217.11C109.464 221.273 109.522 227.46 113.916 231.739L116.171 233.936L113.107 234.167C111.43 234.283 115.246 234.341 121.607 234.341C127.967 234.341 131.379 234.225 129.239 234.052L125.249 233.705L127.1 232.375C129.124 230.814 131.09 227.055 131.147 224.569C131.147 222.372 129.644 219.018 127.851 217.11C126.522 215.722 126.406 215.317 126.984 214.045L127.678 212.6H147.338C164.048 212.6 166.997 212.715 166.997 213.409C166.997 213.872 166.014 214.797 164.8 215.491C158.44 219.076 157.803 228.096 163.586 232.375L165.378 233.705L161.678 234.052C159.712 234.225 163.239 234.341 169.599 234.341C175.96 234.341 179.66 234.283 177.81 234.167L174.399 233.936L176.769 231.392C179.487 228.443 179.949 226.94 179.603 222.95C179.371 220.868 178.793 219.48 177.463 217.746C176.018 216.011 175.671 215.086 175.902 213.987C176.249 212.6 176.364 212.6 182.841 212.6C188.102 212.6 189.664 212.426 190.358 211.674C191.63 210.402 191.514 208.783 190.011 207.742C188.854 206.933 183.824 206.817 147.222 206.817C124.382 206.817 105.705 206.644 105.705 206.355C105.705 206.123 106.862 204.158 108.192 202.018L110.678 198.086L149.882 198.144C178.504 198.144 189.317 197.971 189.895 197.508C190.994 196.583 190.936 194.154 189.779 192.882C188.912 191.899 189.085 190.164 192.613 169.464C195.908 150.036 196.602 147.029 197.585 146.277C199.262 145.121 199.204 141.825 197.527 140.668C196.487 139.917 194.347 139.743 186.252 139.743C176.654 139.743 176.307 139.685 177.29 138.703C177.868 138.124 179.718 135.175 181.453 132.111L184.575 126.618L188.276 126.271C193.249 125.75 196.949 123.958 197.99 121.471C199.147 118.754 199.031 117.482 197.47 115.747C196.429 114.475 195.677 114.186 193.422 114.186C191.977 114.186 190.011 114.359 189.085 114.533C187.813 114.822 185.616 113.897 177.752 109.676C172.433 106.842 167.518 104.472 166.939 104.472C166.072 104.472 144.793 110.485 120.624 117.539C119.641 117.829 119.583 116.036 119.583 85.7372V53.5879H90.0356H60.4883L58.8115 51.911L57.1346 50.2342V40.6357V31.0371L58.7536 30.6902C66.5597 29.0712 71.3589 23.925 71.995 16.5815C72.8045 7.7925 66.444 0.564697 57.4816 0.0442963C55.5734 -0.0713501 53.3183 0.0442963 52.5088 0.333405ZM61.1244 1.31639C65.3454 2.53065 69.4508 6.63605 70.6651 10.8571C71.8215 14.6156 71.8215 16.2346 70.7807 19.6461C68.9304 25.8331 63.3216 29.8807 56.7299 29.8807C52.3354 29.8807 49.9646 28.9555 46.8422 26.1222C43.5463 23.1733 42.1008 19.9352 42.1008 15.5407C42.1008 8.48637 45.628 3.62929 52.451 1.20074C55.2265 0.159943 57.4816 0.217758 61.1244 1.31639ZM58.5802 52.4314C60.7196 54.8021 57.1924 58.0402 54.9374 55.7851C53.8966 54.7443 54.07 52.6049 55.2843 51.911C56.7299 51.0437 57.4237 51.1593 58.5802 52.4314ZM176.885 110.023C181.973 112.798 186.021 115.111 185.963 115.227C185.847 115.342 183.939 116.152 181.742 117.077C178.099 118.696 177.637 118.754 176.422 117.944C173.82 116.21 170.12 119.216 171.218 122.05C171.392 122.512 172.259 123.38 173.126 123.9C174.514 124.825 174.803 124.825 176.191 124.073C177.232 123.495 177.81 122.628 177.984 121.24C178.273 119.448 178.562 119.159 182.262 117.655C187.004 115.747 188.392 115.631 188.392 117.193C188.392 117.771 185.847 122.801 182.783 128.237C178.041 136.679 176.885 138.298 175.266 138.992C173.762 139.57 170.524 139.743 161.331 139.628L149.361 139.454L157.63 137.141C162.14 135.869 165.841 134.655 165.841 134.424C165.841 134.192 165.494 134.077 165.147 134.25C164.742 134.366 160.348 135.638 155.317 137.083L146.297 139.743H130.743H115.188L112.644 131.07C110.678 124.247 110.273 122.223 110.852 121.645C111.546 120.951 164.569 105.223 166.592 105.108C167.171 105.05 171.797 107.305 176.885 110.023ZM196.313 115.342C196.66 115.574 197.296 116.499 197.585 117.366C198.568 119.968 197.065 122.801 194.058 124.073C190.994 125.403 185.5 126.213 185.5 125.346C185.5 125.056 186.426 123.206 187.582 121.24C188.738 119.274 189.49 117.308 189.317 116.788C189.143 116.325 189.085 115.689 189.317 115.4C189.664 114.764 195.33 114.706 196.313 115.342ZM176.538 118.927C176.711 119.216 176.654 119.505 176.422 119.505C176.133 119.505 175.382 119.91 174.745 120.431C173.589 121.356 173.994 121.356 176.538 120.315C177.116 120.084 177.405 120.315 177.405 121.067C177.405 123.726 173.242 124.652 172.143 122.165C171.218 120.199 172.317 118.349 174.514 118.349C175.439 118.349 176.364 118.58 176.538 118.927ZM80.8996 128.352C81.9983 129.22 83.1547 131.243 83.1547 132.458C83.1547 132.92 82.4608 134.077 81.6513 135.06L80.1479 136.852H71.2433C62.5121 136.852 62.223 136.794 60.8931 135.407C59.9679 134.539 59.4475 133.325 59.4475 132.226C59.4475 131.128 59.9679 129.913 60.8931 129.046C62.223 127.658 62.5121 127.601 71.1276 127.601C77.1412 127.658 80.2636 127.832 80.8996 128.352ZM96.3382 131.07C97.379 131.706 98.5933 133.094 99.0559 134.077C99.5763 135.118 101.889 147.954 104.26 162.525L108.539 189.066L110.273 190.858L112.066 192.651L150.633 192.94C186.483 193.229 189.201 193.287 189.779 194.212C190.242 194.964 190.242 195.542 189.779 196.236C189.201 197.219 186.657 197.277 150.113 197.277H111.141L108.77 195.715C104.376 192.824 104.318 192.651 99.5763 163.335C97.2056 148.648 95.2974 136.563 95.2974 136.447C95.2974 136.39 94.8927 135.927 94.3723 135.464C93.6784 134.771 92.2328 134.539 88.4166 134.539H83.386L83.4438 132.226V129.913H88.937C93.3893 129.913 94.777 130.145 96.3382 131.07ZM197.527 141.594C197.932 141.998 198.221 142.808 198.221 143.502C198.221 144.196 197.932 145.005 197.527 145.41C197.007 145.93 185.558 146.104 149.593 146.104H102.41L102.005 144.311C101.831 143.328 101.658 142.114 101.658 141.709C101.658 140.611 196.429 140.495 197.527 141.594ZM192.034 169.059C190.011 181.086 188.218 191.263 188.102 191.61C187.929 192.188 179.949 192.362 151.038 192.362C111.488 192.362 111.719 192.362 109.869 189.413C109.175 188.314 102.814 151.134 102.814 148.301C102.814 147.318 104.665 147.26 149.246 147.26H195.677L192.034 169.059ZM108.307 196.178C109.117 196.698 109.753 197.334 109.753 197.624C109.753 197.913 108.654 199.879 107.324 201.96C105.474 204.967 105.069 206.008 105.532 206.76C106.052 207.569 110.042 207.685 147.627 207.858C188.334 207.974 190.704 208.089 190.704 209.766C190.704 209.998 190.3 210.634 189.779 211.096C188.97 211.906 184.344 212.021 147.685 212.021C119.005 212.021 105.879 211.848 104.607 211.385C102.583 210.691 101.08 208.321 101.08 205.892C101.08 204.678 106.052 195.311 106.746 195.253C106.804 195.253 107.556 195.658 108.307 196.178ZM126.232 213.872C124.44 219.77 122.069 225.031 121.144 225.205C118.947 225.61 118.426 224.338 118.426 218.324V212.6H122.532C126.464 212.6 126.579 212.657 126.232 213.872ZM175.671 212.715C175.671 212.831 174.688 215.606 173.473 218.96C171.334 224.8 171.16 225.031 169.541 225.031H167.865L167.691 218.787L167.518 212.6H171.623C173.82 212.6 175.671 212.657 175.671 212.715ZM117.848 217.572C117.848 218.787 117.386 220.29 116.692 221.099C115.304 222.834 115.246 224.742 116.403 226.997C117.328 228.906 118.311 229.368 121.086 229.368C124.845 229.368 127.158 225.205 125.307 221.793C124.671 220.579 125.596 216.647 126.522 216.647C126.811 216.647 127.562 217.457 128.314 218.44C132.13 223.817 130.049 230.814 123.92 233.127C117.848 235.497 111.488 231.103 111.488 224.569C111.488 221.273 112.529 219.076 114.957 216.994C117.386 214.97 117.848 215.086 117.848 217.572ZM166.997 217.688C166.997 219.191 166.592 220.29 165.841 220.984C165.089 221.678 164.684 222.776 164.684 224.28C164.684 229.195 170.467 231.334 173.647 227.518C175.208 225.667 175.208 225.321 174.225 221.273C173.994 220.463 174.167 219.076 174.514 218.151C175.092 216.532 175.15 216.532 176.364 217.572C177.984 219.076 179.14 221.909 179.14 224.569C179.082 230.004 173.705 234.514 168.327 233.705C164.511 233.127 160.926 229.599 160.348 225.783C159.827 222.314 161.504 218.324 164.222 216.647C166.824 215.086 166.997 215.144 166.997 217.688Z" fill="black"/>
<path d="M54.7066 8.25515C53.1454 9.23813 52.5093 10.1055 52.5093 11.0306C52.5093 12.7653 53.4345 13.517 57.0195 14.5578C59.1011 15.1938 60.084 15.8299 60.3732 16.6972C61.1827 19.2992 56.4412 21.1495 53.897 19.1836C52.2202 17.9115 51.4107 18.2006 53.0297 19.4727C53.7814 20.1087 54.7066 20.6291 55.1691 20.6291C55.5739 20.6291 56.2099 21.0917 56.4991 21.6121C57.0773 22.5951 57.0773 22.5951 57.1351 21.6121C57.1351 21.0339 57.5977 20.6291 58.1759 20.6291C59.7949 20.6291 61.2983 18.6632 61.067 16.755C60.8936 15.3673 60.431 14.9626 57.482 13.9217C53.4345 12.4762 52.5671 11.3197 54.244 9.64289C55.5161 8.37079 57.1929 8.1395 58.9854 9.12248C59.6215 9.46942 60.2575 9.58506 60.431 9.4116C60.6044 9.23813 60.0262 8.77555 59.1011 8.37079C58.1759 7.96604 57.3086 7.50346 57.1351 7.27217C56.9616 7.04088 55.863 7.50346 54.7066 8.25515Z" fill="black"/>
<path d="M146.471 118.696C139.474 120.72 132.767 122.685 131.495 123.032C130.28 123.379 129.413 123.784 129.587 123.958C129.991 124.305 158.96 116.094 159.77 115.4C160.637 114.59 159.943 114.764 146.471 118.696Z" fill="black"/>
<path d="M141.324 130.665C130.223 133.845 121.434 136.621 121.78 136.736C122.359 136.91 162.372 125.461 162.892 124.998C163.586 124.305 160.059 125.23 141.324 130.665Z" fill="black"/>
<path d="M142.77 159.171C131.148 165.012 134.212 182.532 147.107 184.035C150.981 184.498 154.508 183.457 157.283 180.913C164.28 174.61 163.066 163.508 154.913 159.287C150.807 157.148 146.991 157.09 142.77 159.171ZM155.086 160.212C159.018 162.525 160.868 165.59 161.1 170.331C161.273 173.743 161.1 174.494 159.538 177.154C154.739 185.249 143.406 185.596 138.202 177.79C136.814 175.709 136.641 174.841 136.641 170.909C136.641 166.862 136.814 166.168 138.375 163.913C142.192 158.42 149.304 156.801 155.086 160.212Z" fill="black"/>
<path d="M147.453 166.573C146.528 168.134 145.834 168.539 143.868 168.886L141.382 169.29L143.232 171.199C144.909 172.875 145.082 173.396 144.736 175.246C144.273 177.617 144.331 177.675 146.933 176.403C148.725 175.535 149.014 175.535 150.691 176.403C153.12 177.675 153.178 177.617 152.773 174.957C152.426 172.933 152.599 172.413 153.929 171.025C155.259 169.637 155.375 169.348 154.565 169.001C154.045 168.828 153.004 168.654 152.252 168.654C151.327 168.654 150.749 168.134 150.229 166.92C149.188 164.433 148.783 164.376 147.453 166.573ZM152.021 169.233C154.103 169.233 154.508 169.984 153.12 171.256C152.426 171.892 151.963 173.049 151.963 174.263C151.963 176.171 151.963 176.171 150.344 175.362C149.014 174.668 148.552 174.668 147.338 175.362C145.314 176.46 145.198 176.403 145.487 174.379C145.661 173.107 145.372 172.239 144.446 171.256L143.117 169.811L144.967 169.464C146.239 169.175 147.106 168.539 147.742 167.267L148.667 165.474L149.535 167.382C150.229 168.828 150.807 169.233 152.021 169.233Z" fill="black"/>
<path d="M213.66 2.01025C212.793 2.99324 212.677 5.88435 212.677 32.0779V61.1048H182.668H152.658L150.865 59.4279L149.073 57.7511V47.69V37.571L152.426 36.6459C161.273 34.1595 165.494 24.6767 161.389 16.5237C156.821 7.5612 145.314 5.88435 138.26 13.2278C135.716 15.8876 134.617 18.7788 134.617 23.0576C134.617 29.6494 138.607 34.8534 145.199 36.6459L148.495 37.571V47.8056V58.098L147.049 59.0232C143.811 61.1626 146.471 66.251 149.998 64.6898C150.75 64.285 151.559 63.5911 151.733 63.1286C152.022 62.3769 155.896 62.2612 182.379 62.2612H212.677V110.427C212.677 165.937 212.041 160.559 218.633 160.559C220.715 160.559 222.565 160.791 222.739 161.022C222.912 161.311 223.201 162.641 223.432 163.913C223.779 166.11 223.722 166.342 222.565 166.342C221.929 166.342 221.351 166.573 221.351 166.92C221.351 167.672 237.946 167.672 238.408 166.92C238.64 166.573 238.119 166.342 237.194 166.342C235.691 166.342 235.691 166.284 236.038 163.913C236.269 162.641 236.558 161.311 236.732 161.022C237.079 160.444 286.517 160.386 286.864 160.964C287.037 161.253 287.326 162.525 287.558 163.855C287.904 166.11 287.847 166.342 286.748 166.342C286.054 166.342 285.534 166.573 285.534 166.92C285.534 167.267 288.83 167.498 294.207 167.498C299.585 167.498 302.88 167.267 302.88 166.92C302.88 166.573 302.129 166.342 301.204 166.342H299.527L300.221 163.566L300.915 160.848L304.904 160.675C311.727 160.386 310.976 170.042 310.976 80.7644C310.976 6.05783 310.918 2.81976 309.935 1.95244C308.952 1.02727 304.789 0.969452 261.711 0.969452C216.783 0.969452 214.528 1.02727 213.66 2.01025ZM309.472 2.47284C310.282 3.28235 310.397 5.65308 310.282 21.959L310.108 40.5778L299.295 40.7513L288.425 40.8669V30.1698V19.4726H274.837H261.248V30.1698V40.8669H257.201H253.153L253.038 27.9725L252.864 15.1359L238.582 14.9625L224.242 14.8468L224.126 27.6834L223.953 40.5778H218.749H213.545L213.371 21.959C213.256 5.65308 213.371 3.28235 214.181 2.47284C214.99 1.66331 219.905 1.54768 261.827 1.54768C303.748 1.54768 308.663 1.66331 309.472 2.47284ZM154.855 10.7993C159.307 13.0543 162.372 18.2005 162.372 23.2889C162.372 26.0644 160.175 30.8058 157.977 32.8874C152.889 37.6289 144.505 37.5132 139.301 32.5983C130.165 23.925 137.393 8.0816 149.882 9.41153C151.444 9.58499 153.699 10.221 154.855 10.7993ZM251.997 17.4488V19.4726H238.408H224.82V17.8536C224.82 16.9284 224.994 16.0033 225.225 15.8298C225.398 15.5985 231.528 15.4251 238.813 15.4251H251.997V17.4488ZM251.997 30.4589V40.8669L238.582 40.7513L225.109 40.5778L224.936 30.2854L224.82 20.0509H238.408H251.997V30.4589ZM287.5 20.5713C287.731 20.8604 287.673 21.4964 287.5 22.0168C287.211 22.8263 285.534 22.942 274.779 22.942H262.405V21.4964V20.0509H274.779C281.602 20.0509 287.326 20.2822 287.5 20.5713ZM287.268 32.1936V40.8669H274.837H262.405V32.1936V23.5202H274.837H287.268V32.1936ZM310.397 60.8157V80.1862H308.142H305.829L305.656 71.455L305.482 62.7238L303.632 61.047C301.84 59.4857 301.724 59.1388 301.724 55.6695C301.724 53.2409 301.955 51.8532 302.476 51.6797C302.823 51.5063 301.608 51.3906 299.7 51.3906C297.792 51.3906 296.578 51.5063 296.983 51.6797C297.445 51.8532 297.676 53.2409 297.676 55.6695C297.676 59.1388 297.561 59.4857 295.826 61.047L293.918 62.7238L293.745 71.455L293.571 80.1862H291.027H288.483L288.309 71.455L288.136 62.7238L286.285 61.047C284.493 59.4857 284.377 59.1388 284.377 55.6695C284.377 53.2409 284.609 51.8532 285.129 51.6797C285.476 51.5063 284.262 51.3906 282.354 51.3906C280.445 51.3906 279.231 51.5063 279.636 51.6797C280.098 51.8532 280.33 53.2409 280.33 55.6695C280.33 59.1388 280.214 59.4857 278.479 61.047L276.571 62.7238L276.398 71.455L276.224 80.1862H273.68H271.136L270.962 71.455L270.789 62.7238L268.939 61.047C267.146 59.4857 267.031 59.1388 267.031 55.6695C267.031 53.2409 267.262 51.8532 267.782 51.6797C268.129 51.5063 266.915 51.3906 265.007 51.3906C263.099 51.3906 261.884 51.5063 262.289 51.6797C262.752 51.8532 262.983 53.2409 262.983 55.6695C262.983 59.1388 262.867 59.4857 261.133 61.047L259.225 62.7238L259.051 71.455L258.878 80.1862H236.038H213.256V71.2237V62.2612H219.616C224.242 62.2612 226.034 62.4925 226.381 63.0129C227.538 64.9789 231.181 64.0537 231.181 61.7408C231.181 59.5436 228 58.5028 226.555 60.2374C225.977 60.9313 224.415 61.1048 219.558 61.1048H213.256V51.275V41.4452H261.827H310.397V60.8157ZM266.337 56.2477C266.51 59.9483 266.626 60.4109 267.898 60.9891C269.459 61.7408 270.673 65.2102 270.384 68.2169L270.211 70.0673L265.18 70.2407L260.092 70.4142V66.5979C260.092 63.5911 260.323 62.6082 261.248 61.683C261.884 61.047 262.694 60.5266 262.983 60.5266C263.33 60.5266 263.561 58.8497 263.561 56.5946C263.561 52.4314 263.793 51.6797 265.296 51.9688C265.932 52.1423 266.221 53.1253 266.337 56.2477ZM283.683 56.3055C283.799 59.8327 284.03 60.5266 284.956 60.8157C286.632 61.3361 287.384 63.1286 287.442 66.7714V70.0673L282.469 70.2407L277.439 70.4142V66.5979C277.439 63.5911 277.67 62.6082 278.595 61.683C279.231 61.047 280.041 60.5266 280.33 60.5266C280.677 60.5266 280.908 58.8497 280.908 56.5946C280.908 52.4314 281.139 51.6797 282.643 51.9688C283.279 52.1423 283.568 53.1253 283.683 56.3055ZM301.03 56.3055C301.146 59.8327 301.377 60.5266 302.302 60.8157C303.921 61.3361 304.442 62.6082 304.673 66.5979L304.904 70.0673H299.7H294.496L294.323 68.2169C294.034 65.2102 295.248 61.7408 296.867 60.9891C298.139 60.4109 298.255 60.0061 298.255 56.479C298.255 52.3736 298.544 51.7375 299.989 51.9688C300.625 52.1423 300.915 53.1253 301.03 56.3055ZM151.097 61.683C151.097 62.3769 150.576 63.3599 149.94 63.7646C148.899 64.4585 148.552 64.4007 147.454 63.649C146.76 63.1864 146.182 62.2612 146.182 61.683C146.182 61.1048 146.76 60.1796 147.454 59.717C148.552 58.9653 148.899 58.9075 149.94 59.6014C150.576 60.0061 151.097 60.9891 151.097 61.683ZM270.384 75.676L270.558 80.1862H265.296H260.092V75.5604V70.8768L265.18 71.0502L270.211 71.2237L270.384 75.676ZM287.442 75.7339L287.558 80.1862H282.527H277.439V75.5604V70.8768L282.411 71.0502L287.384 71.2237L287.442 75.7339ZM304.789 75.7339L304.904 80.1862H299.874H294.785V75.5604V70.8768L299.758 71.0502L304.731 71.2237L304.789 75.7339ZM310.397 100.713V120.084H280.619H250.84V111.989C250.84 103.315 250.32 101.118 247.949 99.8458C246.966 99.3254 246.793 98.6315 246.793 95.5091C246.793 93.1384 247.024 91.7507 247.544 91.5772C247.891 91.4037 246.677 91.2881 244.769 91.2881C242.861 91.2881 241.647 91.4037 242.051 91.5772C242.514 91.7507 242.745 93.1384 242.745 95.5669C242.745 99.0363 242.63 99.441 241.01 100.829L239.276 102.274V111.179V120.084H236.385H233.494V111.989C233.494 103.315 232.973 101.118 230.602 99.8458C229.619 99.3254 229.446 98.6315 229.446 95.5091C229.446 93.1384 229.677 91.7507 230.198 91.5772C230.545 91.4037 229.33 91.2881 227.422 91.2881C225.514 91.2881 224.3 91.4037 224.705 91.5772C225.167 91.7507 225.398 93.1384 225.398 95.5669C225.398 99.0363 225.283 99.441 223.664 100.829L221.929 102.274V111.179V120.084H217.592H213.256V100.713V81.3426H261.827H310.397V100.713ZM228.868 95.6248C228.868 99.2676 228.983 99.5567 230.718 101.06C232.511 102.506 232.626 102.853 232.626 106.264V109.965L227.596 110.138L222.507 110.369V106.611C222.507 103.142 222.681 102.679 224.242 101.176C225.803 99.7302 225.977 99.2098 225.977 96.0295C225.977 92.2132 226.208 91.7507 227.827 91.7507C228.752 91.7507 228.868 92.2711 228.868 95.6248ZM246.214 95.6248C246.214 99.2676 246.33 99.5567 248.065 101.06C249.857 102.506 249.973 102.853 249.973 106.264V109.965L244.942 110.138L239.854 110.312V106.611C239.854 103.72 240.085 102.679 241.01 101.696C241.704 101.002 242.456 100.424 242.745 100.424C243.092 100.424 243.323 98.6315 243.323 96.4921C243.323 92.2132 243.497 91.7507 245.174 91.7507C246.099 91.7507 246.214 92.2711 246.214 95.6248ZM232.915 115.458V120.084H227.711H222.507V115.458V110.832H227.711H232.915V115.458ZM250.262 115.458V120.084H245.058H239.854V115.458V110.832H245.058H250.262V115.458ZM244.48 140.322V159.981H229.793C217.188 159.981 214.933 159.865 214.181 159.056C213.371 158.304 213.256 155.702 213.256 139.801C213.256 129.682 213.429 121.24 213.66 121.067C213.834 120.835 220.888 120.662 229.273 120.662H244.48V140.322ZM276.282 140.322V159.981H260.67H245.058V140.726C245.058 130.087 245.232 121.24 245.463 121.067C245.636 120.835 252.691 120.662 261.075 120.662H276.282V140.322ZM310.282 139.57C310.397 155.876 310.282 158.246 309.472 159.056C308.721 159.865 306.465 159.981 292.993 159.981H277.439V140.322V120.662L293.802 120.778L310.108 120.951L310.282 139.57ZM235.517 162.988C235.286 164.376 234.997 165.648 234.823 165.879C234.708 166.168 232.395 166.342 229.735 166.342C227.075 166.342 224.762 166.168 224.647 165.879C224.473 165.648 224.184 164.376 223.953 162.988L223.548 160.559H229.735H235.922L235.517 162.988ZM299.989 161.253C299.989 161.658 299.7 162.988 299.353 164.144L298.775 166.342H293.918C291.258 166.342 288.945 166.11 288.772 165.879C288.598 165.59 288.309 164.26 288.078 162.988L287.673 160.559H293.86C298.37 160.559 299.989 160.733 299.989 161.253Z" fill="black"/>
<path d="M145.082 17.5644C145.025 18.7209 144.736 18.8943 142.48 18.8943C141.035 18.8943 139.763 19.1256 139.589 19.3569C139.416 19.646 139.531 20.7447 139.821 21.8433C140.11 22.9419 140.63 24.9079 140.977 26.2956L141.613 28.782L148.667 28.6085L155.722 28.435L156.473 26.1222C156.878 24.8501 157.399 22.7106 157.572 21.3807L157.919 18.8943H155.201C152.831 18.8943 152.542 18.7787 152.484 17.5644V16.2923L151.963 17.5644C151.501 18.7209 150.98 18.8943 148.552 18.8943C146.065 18.8943 145.661 18.7209 145.429 17.5644L145.198 16.2923L145.082 17.5644ZM145.082 20.7447L145.198 22.0746L145.429 20.7447C145.661 19.646 146.065 19.4726 148.552 19.4726C150.98 19.4726 151.501 19.646 151.963 20.7447L152.484 22.0746V20.7447C152.542 19.646 152.831 19.4726 154.854 19.4726C156.127 19.4726 157.167 19.7617 157.167 20.0508C157.167 20.3977 156.763 22.3637 156.242 24.3875L155.317 28.1459H148.725H142.191L141.555 25.9487C141.266 24.7922 140.804 22.8263 140.63 21.612L140.225 19.4726H142.654C144.678 19.4726 145.025 19.646 145.082 20.7447Z" fill="black"/>
<path d="M223.664 140.321C223.664 140.668 225.63 140.9 228.348 140.9C231.297 140.9 232.858 140.668 232.627 140.321C232.453 139.974 230.314 139.743 227.943 139.743C225.457 139.743 223.664 139.974 223.664 140.321Z" fill="black"/>
<path d="M256.045 140.321C256.045 140.668 257.953 140.9 260.671 140.9C263.388 140.9 265.297 140.668 265.297 140.321C265.297 139.974 263.388 139.743 260.671 139.743C257.953 139.743 256.045 139.974 256.045 140.321Z" fill="black"/>
<path d="M289.003 140.321C289.003 140.668 290.911 140.9 293.629 140.9C296.346 140.9 298.255 140.668 298.255 140.321C298.255 139.974 296.346 139.743 293.629 139.743C290.911 139.743 289.003 139.974 289.003 140.321Z" fill="black"/>
<path d="M188.45 34.7377C188.045 35.2002 187.814 36.8771 187.929 38.6696L188.103 41.7342L191.514 41.9077C193.885 42.0233 195.099 41.8498 195.388 41.3294C196.14 40.173 196.024 35.4315 195.215 34.622C194.232 33.639 189.259 33.7547 188.45 34.7377ZM195.215 37.0506C195.33 37.9179 195.273 39.3056 195.041 40.1152C194.752 41.3872 194.463 41.5029 191.688 41.3294L188.681 41.156L188.507 38.9009C188.218 35.3737 188.565 35.0268 191.977 35.2002C194.868 35.3737 195.041 35.4894 195.215 37.0506Z" fill="black"/>
<path d="M135.311 64.4007L135.195 83.0774L153.294 82.9617L171.334 82.7883L153.583 82.6726L135.774 82.4992L135.6 64.1116L135.484 45.7819L135.311 64.4007Z" fill="black"/>
<path d="M18.1048 55.5538C14.1729 56.5368 12.3226 57.8667 11.224 60.5844C9.54713 64.7476 10.1832 67.3496 14.4042 73.6523C17.9314 78.9141 18.047 80.1862 15.0403 80.1862C11.4553 80.1862 6.77165 81.8631 4.74786 83.8868C3.3023 85.3324 2.72408 86.7201 1.62545 91.1725C-1.67043 105.339 0.179892 118.869 5.96214 122.628L7.69681 123.784L7.52334 141.42C7.4077 151.192 7.69681 172.529 8.21721 188.892C8.73761 205.256 9.14237 219.885 9.14237 221.389C9.14237 223.759 9.31584 224.164 10.2988 224.164C11.3396 224.164 11.4553 224.569 11.4553 229.079V233.936L5.84649 234.167C2.72408 234.225 16.0811 234.341 35.4516 234.341C54.8799 234.341 67.2539 234.225 63.0907 234.167C55.9207 233.994 55.4003 233.878 55.4003 232.837C55.4003 231.623 52.9139 230.12 48.9242 228.848C46.7848 228.154 44.0671 225.263 44.8188 224.511C44.9923 224.338 45.6861 224.164 46.2644 224.164C46.8426 224.164 47.3052 223.759 47.3052 223.123C47.3052 222.603 47.7099 218.208 48.1725 213.409C49.7915 196.294 50.4854 179.467 49.7337 173.801C48.7507 166.746 45.397 153.91 39.4991 135.06C39.2679 134.424 39.6148 134.019 40.3665 133.788C42.1012 133.325 42.4481 131.764 41.0603 130.318C39.9617 129.104 39.9039 128.294 39.7883 116.152C39.7883 107.594 39.9617 103.315 40.3665 103.315C40.6556 103.315 40.9447 103.546 40.9447 103.836C40.9447 105.108 49.2133 113.087 51.1215 113.723C52.9718 114.359 53.55 114.244 57.0193 112.567C60.1418 111.063 62.4547 109.097 68.5838 102.968C72.747 98.7472 76.2164 94.9309 76.2164 94.4105C76.2164 93.8901 77.1415 93.1384 78.2402 92.6759C81.0156 91.5194 83.1551 89.2065 83.1551 87.414C83.1551 85.6215 81.8252 84.9855 79.6279 85.795C78.2402 86.3154 77.8932 86.2576 77.1994 85.1589C76.332 83.9447 76.332 83.9447 75.0599 85.1011C74.3661 85.7372 73.3831 86.9514 72.9205 87.8188C72.4001 88.6283 71.5328 89.4956 71.0702 89.6113C70.5498 89.7847 66.5022 92.3289 62.1077 95.3935L54.0704 100.887L50.5432 97.0704C45.9753 92.1555 37.8801 85.1011 34.6999 83.2508C33.37 82.4413 31.1149 81.5739 29.785 81.2848C28.4551 80.9957 26.7782 80.6488 26.0843 80.4753C24.4075 80.0706 24.3497 78.4515 25.9109 78.4515C27.819 78.4515 28.3972 75.9652 28.0503 68.9108C27.7612 63.8803 27.8768 62.3191 28.5707 61.4517C29.8428 59.6592 29.6115 56.7103 28.1081 55.6695C26.5469 54.5709 22.2681 54.513 18.1048 55.5538ZM24.5231 63.1864C26.836 63.5333 26.9517 63.649 27.2986 66.1932C27.819 70.1829 27.7034 75.5026 27.0673 76.7747C26.7204 77.3529 25.9109 77.8733 25.3327 77.8733C24.3497 77.8733 24.1762 78.2781 24.1762 80.4175C24.1762 83.0773 23.598 83.6555 20.996 83.6555C18.2783 83.6555 17.8157 83.1351 17.8157 80.0706C17.8157 78.1046 17.4688 76.659 16.6015 75.5026C15.9654 74.5774 15.5028 73.3632 15.6763 72.7849C15.7919 72.2645 15.5028 71.0503 15.0403 70.1829C14.1151 68.217 14.5199 67.5231 16.0811 68.5061C17.7001 69.4891 17.7001 69.4891 17.064 66.5979C16.3124 63.1864 17.1797 62.03 20.0708 62.4925C21.2273 62.666 23.251 63.0129 24.5231 63.1864ZM17.2375 82.1522C17.2375 83.7134 18.1627 84.2338 20.996 84.2338C23.6558 84.2338 24.7544 83.7134 24.7544 82.4413C24.7544 81.0535 26.3156 80.9957 30.3632 82.21C34.2951 83.3664 39.2679 87.1249 47.4208 95.1044L54.186 101.696L62.6859 95.8561L71.2437 90.016L73.4409 92.1555L75.5803 94.2371L73.9035 96.3187C70.6654 100.482 59.6213 110.659 57.0772 111.873C51.931 114.359 49.0977 113.087 43.142 105.512L39.4991 100.887L39.21 113.203L38.9209 125.577L36.3189 125.346C34.8733 125.288 33.3121 124.883 32.8496 124.478C32.387 124.073 27.1251 120.893 21.1694 117.482L10.2988 111.179L10.5879 105.975C10.7614 101.87 10.7036 101.291 10.2988 103.315C10.0097 104.761 9.77842 107.189 9.77842 108.808L9.72059 111.699L20.996 118.233C28.6864 122.744 32.2713 125.114 32.2135 125.75C32.2135 126.329 31.8666 127.543 31.5196 128.526L30.8258 130.376L18.9722 126.675C7.9281 123.206 7.00294 122.801 5.03698 120.662C1.10505 116.383 -0.34051 107.478 1.27852 97.2438C2.43497 89.6113 3.59142 85.9106 5.32609 84.2338C7.11858 82.6147 12.1491 80.8223 15.0981 80.7644C16.9484 80.7644 17.2375 80.9379 17.2375 82.1522ZM77.315 87.7031C77.5463 87.7031 78.2402 87.2984 78.8762 86.8358C80.3218 85.7372 81.9408 85.7372 82.3456 86.8358C82.9238 88.2813 80.9 90.5942 78.1245 91.8663L75.5225 93.0228L74.1348 91.6929C72.3423 90.016 72.4001 89.5534 74.6552 86.8358L76.5055 84.5229L76.679 86.1419C76.7946 87.0092 77.0837 87.7031 77.315 87.7031ZM20.8803 127.89C31.4618 131.128 35.1625 132.573 35.1625 133.498C35.1625 134.366 9.08455 133.498 8.15939 132.573C8.04374 132.458 8.10157 130.492 8.33286 128.179C8.62197 124.999 8.91108 124.131 9.54713 124.363C9.95188 124.536 15.0981 126.155 20.8803 127.89ZM39.1522 126.791C39.3257 126.965 38.9787 127.485 38.4005 127.948C37.1284 128.873 37.1284 128.873 39.6726 130.145C41.6964 131.186 41.8699 131.648 40.8291 132.689C39.8461 133.672 37.7645 133.556 35.5672 132.458C32.1557 130.723 31.7509 130.087 32.4448 127.774L33.0809 125.75L35.9142 126.097C37.5332 126.271 38.9209 126.56 39.1522 126.791ZM24.2918 134.366L38.574 134.713L40.3087 140.264C43.3154 149.978 46.2065 160.097 47.7678 166.631C49.0977 172.355 49.2711 174.032 49.2133 183.11C49.0977 191.784 48.346 204.042 46.9004 219.654L46.5535 223.586H41.176H35.7407V201.093V178.6L30.768 166.515C25.8531 154.546 24.7544 152.349 24.7544 154.488C24.7544 156.107 20.1865 216.878 19.7817 220.521L19.4926 223.586H14.5777H9.72059V218.208C9.72059 215.317 9.31584 200.919 8.85326 186.29C8.39068 171.661 7.98592 153.736 7.98592 146.451C7.98592 134.135 8.04374 133.267 9.02672 133.672C9.54713 133.903 16.428 134.192 24.2918 134.366ZM30.768 168.192L35.1625 179.063V201.729C35.1046 221.793 35.2203 224.453 36.0298 224.627C36.7237 224.8 36.8971 225.725 36.8971 229.426V233.994H33.4278C30.3054 233.994 29.9584 233.878 29.9584 232.78C29.9584 231.912 29.1489 231.276 26.6626 230.178C19.4926 226.997 19.2035 226.708 20.0708 222.892C20.4177 221.504 21.0538 214.681 21.5742 207.685C22.0368 200.688 23.0776 186.522 23.8871 176.171C24.6966 165.821 25.3327 157.148 25.3327 156.801C25.3327 155.471 26.6047 158.131 30.768 168.192Z" fill="black"/>
<path d="M110.332 77.295C110.332 84.9854 110.563 89.4377 110.91 89.4377C111.257 89.4377 111.488 84.9854 111.488 77.295C111.488 69.6047 111.257 65.1523 110.91 65.1523C110.563 65.1523 110.332 69.6047 110.332 77.295Z" fill="black"/>
<path d="M175.671 82.8459C175.671 84.9276 175.844 86.5466 176.133 86.4309C178.042 85.5636 182.61 83.0194 182.61 82.7881C182.61 82.4412 176.712 79.0297 176.133 79.0297C175.844 79.0297 175.671 80.7643 175.671 82.8459ZM179.256 81.4004L181.684 82.6147L179.372 84.0024C178.157 84.7541 176.943 85.3901 176.712 85.3901C176.423 85.3901 176.249 84.2337 176.249 82.7881C176.249 81.3426 176.365 80.1861 176.538 80.1861C176.712 80.1861 177.926 80.7643 179.256 81.4004Z" fill="black"/>
<path d="M79.281 234.399C81.4204 234.514 84.8319 234.514 86.7979 234.399C88.7639 234.283 87.0292 234.225 82.866 234.225C78.7606 234.225 77.1416 234.283 79.281 234.399Z" fill="black"/>
</svg>
