<svg width="36" height="36" viewBox="0 0 36 36" fill="none" xmlns="http://www.w3.org/2000/svg">
<rect x="0.733398" y="0.733398" width="34.4" height="34.4" rx="11.4667" fill="#E3F5FF"/>
<rect x="0.733398" y="0.733398" width="34.4" height="34.4" rx="11.4667" fill="#E3F5FF"/>
<path fill-rule="evenodd" clip-rule="evenodd" d="M10.7662 15.7833C10.7662 15.7833 10.7662 14.3257 11.3297 12.9935C11.3297 12.9935 11.8737 11.7072 12.8653 10.7157C12.8653 10.7157 13.8568 9.72416 15.1431 9.18012C15.1431 9.18012 16.4753 8.61663 17.9329 8.61663C17.9329 8.61663 19.3905 8.61663 20.7227 9.18012C20.7227 9.18012 22.0089 9.72415 23.0005 10.7157C23.0005 10.7157 23.992 11.7073 24.5361 12.9935C24.5361 12.9935 25.0995 14.3257 25.0995 15.7833V20.0833C25.0995 20.0833 25.0995 21.5409 24.5361 22.8731C24.5361 22.8731 23.992 24.1593 23.0005 25.1509C23.0005 25.1509 22.0089 26.1424 20.7227 26.6865C20.7227 26.6865 19.3905 27.25 17.9329 27.25C17.9329 27.25 16.4753 27.25 15.1431 26.6865C15.1431 26.6865 13.8568 26.1425 12.8653 25.1509C12.8653 25.1509 11.8737 24.1594 11.3297 22.8731C11.3297 22.8731 10.7662 21.5409 10.7662 20.0833V15.7833ZM12.1995 15.7833V20.0833C12.1995 20.0833 12.1995 22.4581 13.8788 24.1374C13.8788 24.1374 15.5581 25.8166 17.9329 25.8166C17.9329 25.8166 20.3077 25.8166 21.987 24.1374C21.987 24.1374 23.6662 22.4581 23.6662 20.0833V15.7833C23.6662 15.7833 23.6662 13.4085 21.987 11.7292C21.987 11.7292 20.3077 10.05 17.9329 10.05C17.9329 10.05 15.5581 10.05 13.8788 11.7292C13.8788 11.7292 12.1995 13.4085 12.1995 15.7833Z" fill="#1C1C1C"/>
<path d="M24.3829 19.3666H26.5329C26.9287 19.3666 27.2495 19.0458 27.2495 18.65C27.2495 18.2542 26.9287 17.9333 26.5329 17.9333H24.3829C23.9871 17.9333 23.6662 18.2542 23.6662 18.65C23.6662 19.0458 23.9871 19.3666 24.3829 19.3666Z" fill="#1C1C1C"/>
<path d="M9.33288 19.3666H11.4829C11.8787 19.3666 12.1995 19.0458 12.1995 18.65C12.1995 18.2542 11.8787 17.9333 11.4829 17.9333H9.33288C8.93707 17.9333 8.61621 18.2542 8.61621 18.65C8.61621 19.0458 8.93707 19.3666 9.33288 19.3666Z" fill="#1C1C1C"/>
<path d="M9.33288 22.2333H11.6441C12.0399 22.2333 12.3608 21.9124 12.3608 21.5166C12.3608 21.1208 12.0399 20.8 11.6441 20.8H9.33288C8.93707 20.8 8.61621 21.1208 8.61621 21.5166C8.61621 21.9124 8.93707 22.2333 9.33288 22.2333Z" fill="#1C1C1C"/>
<path d="M9.33288 16.5H26.5329C26.9287 16.5 27.2495 16.1791 27.2495 15.7833C27.2495 15.3875 26.9287 15.0666 26.5329 15.0666H9.33288C8.93707 15.0666 8.61621 15.3875 8.61621 15.7833C8.61621 16.1791 8.93707 16.5 9.33288 16.5Z" fill="#1C1C1C"/>
<path d="M17.2162 18.65V26.5333C17.2162 26.9291 17.5371 27.25 17.9329 27.25C18.3287 27.25 18.6495 26.9291 18.6495 26.5333V18.65C18.6495 18.2542 18.3287 17.9333 17.9329 17.9333C17.5371 17.9333 17.2162 18.2542 17.2162 18.65Z" fill="#1C1C1C"/>
<path d="M24.2216 22.2333H26.5329C26.9287 22.2333 27.2496 21.9124 27.2496 21.5166C27.2496 21.1208 26.9287 20.8 26.5329 20.8H24.2216C23.8258 20.8 23.505 21.1208 23.505 21.5166C23.505 21.9124 23.8258 22.2333 24.2216 22.2333Z" fill="#1C1C1C"/>
<path d="M10.9804 9.49466L13.1125 11.5192C13.2457 11.6457 13.4223 11.7162 13.606 11.7162L13.6073 11.7162L13.6245 11.716C13.8145 11.7111 13.9948 11.6309 14.1257 11.493C14.2522 11.3599 14.3227 11.1832 14.3227 10.9996L14.3227 10.9982L14.3224 10.981C14.3175 10.791 14.2373 10.6107 14.0995 10.4799L11.9674 8.45528C11.8342 8.32881 11.6576 8.2583 11.4739 8.2583L11.4554 8.25854C11.2654 8.26345 11.0851 8.34365 10.9542 8.48148C10.8278 8.61466 10.7572 8.79131 10.7572 8.97497L10.7575 8.9935C10.7624 9.1835 10.8426 9.36378 10.9804 9.49466Z" fill="#1C1C1C"/>
<path d="M23.8805 8.45522L21.7574 10.4708C21.6195 10.6017 21.5393 10.782 21.5344 10.972L21.5341 10.9906L21.5343 11.0064C21.5383 11.1845 21.6084 11.3548 21.7311 11.484C21.8619 11.6219 22.0422 11.7021 22.2322 11.707L22.2508 11.7073L22.2666 11.7071C22.4448 11.7031 22.615 11.633 22.7442 11.5103L24.8674 9.49471C25.0052 9.36385 25.0854 9.18358 25.0904 8.99358L25.0906 8.97497L25.0904 8.95914C25.0865 8.78102 25.0164 8.61075 24.8937 8.48154C24.7628 8.34369 24.5826 8.26348 24.3925 8.25854L24.3739 8.2583L24.3581 8.25848C24.18 8.26241 24.0097 8.33255 23.8805 8.45522Z" fill="#1C1C1C"/>
</svg>
