<svg width="220" height="220" viewBox="0 0 220 220" fill="none" xmlns="http://www.w3.org/2000/svg">
<path d="M101.441 0.127426C73.2779 3.00822 50.9625 13.3275 32.0439 32.1601C14.6732 49.4878 4.00993 71.1582 0.570182 96.1824C-0.160764 101.471 -0.203761 118.369 0.527185 123.485C4.18192 148.983 14.2432 169.621 31.6999 187.25C63.7326 219.669 111.588 228.957 153.682 210.898C179.652 199.805 201.839 176.888 212.072 150.745C226.691 113.252 220.456 71.9322 195.475 40.8885C177.975 19.132 153.596 5.28705 125.304 0.944366C120.961 0.299408 105.182 -0.259537 101.441 0.127426ZM123.154 9.58673C141.428 11.9516 159.1 19.605 173.676 31.3862C177.846 34.7829 185.457 42.4363 188.724 46.521C210.911 74.426 217.016 110.629 205.106 144.038C199.474 159.861 190.444 173.319 177.545 185.057C143.578 216.101 91.9815 219.841 53.5853 194.129C46.1039 189.099 36.4296 180.241 30.926 173.362C19.4028 159.044 11.8354 141.286 9.38454 122.84C8.43861 115.746 8.43861 103.664 9.38454 96.8274C12.0503 77.6938 19.9618 59.5921 31.7859 45.4891C44.255 30.6122 59.8629 19.949 78.1795 13.8434C86.6929 10.9626 93.6584 9.67273 105.096 8.72681C108.449 8.46883 117.995 8.89879 123.154 9.58673Z" fill="black"/>
<path d="M156.907 58.9042C155.961 59.2481 154.714 59.7211 154.112 60.0221C153.51 60.3231 137.988 75.6299 119.586 93.9896L86.177 127.355L74.6538 115.875C60.9378 102.159 60.6799 101.987 54.1443 101.987C50.2316 101.987 49.6297 102.116 47.3508 103.277C44.47 104.696 41.6323 107.663 40.1274 110.672C39.2674 112.392 39.0954 113.424 39.0954 116.821C39.0954 123.786 38.6655 123.227 58.96 143.565C79.5555 164.203 79.1685 163.903 85.962 163.903C93.5725 163.903 89.8317 167.127 134.806 122.067C179.523 77.3498 176.642 80.6606 176.685 73.6091C176.685 70.2983 176.513 69.3954 175.567 67.3316C174.02 64.0208 171.827 61.742 168.645 60.0651C166.28 58.7752 165.463 58.6032 162.281 58.4742C160.089 58.3882 157.939 58.5602 156.907 58.9042ZM165.248 68.1055C167.828 70.0404 168.774 73.9101 167.312 76.6189C166.968 77.3068 149.253 95.2795 128.013 116.477C93.7444 150.702 89.2298 155.045 87.8109 155.303C83.8552 156.034 84.4141 156.507 65.4525 137.545C49.1567 121.207 47.9958 119.917 47.6948 118.24C47.3078 115.832 48.0388 113.725 49.8447 112.134C51.5215 110.672 53.3704 110.156 55.5632 110.586C56.9391 110.844 59.089 112.779 70.4831 124.13C79.1685 132.773 84.2421 137.502 85.0161 137.674C85.661 137.846 86.693 137.846 87.3809 137.674C88.1549 137.502 99.764 126.194 123.369 102.632C142.546 83.4984 158.67 67.6325 159.272 67.4175C160.82 66.7726 163.915 67.1596 165.248 68.1055Z" fill="black"/>
<path d="M197.839 106.115C196.463 106.932 195.818 108.909 195.818 112.306C195.818 115.359 195.904 115.703 197.065 116.864C198.742 118.498 201.236 118.584 202.999 117.079C204.117 116.09 204.203 115.789 204.332 112.134C204.504 108.308 204.504 108.222 203.214 106.932C202.182 105.943 201.537 105.642 200.247 105.642C199.344 105.642 198.269 105.857 197.839 106.115Z" fill="black"/>
<path d="M194.615 129.032C193.67 129.849 193.154 130.967 192.423 133.676C191.047 138.62 188.467 145.027 185.672 150.272C181.673 157.84 177.89 163.085 171.741 169.449C156.391 185.401 136.527 194.473 114.039 195.72C108.407 196.064 106.988 196.451 106.171 198.128C105.139 200.063 105.354 201.869 106.773 203.288C108.02 204.491 108.149 204.534 112.362 204.534C114.727 204.534 118.941 204.233 121.736 203.889C151.533 200.02 177.202 182.821 192.165 156.679C196.937 148.381 202.226 134.149 201.624 131.354C201.452 130.709 200.764 129.677 200.033 129.075C198.356 127.656 196.292 127.656 194.615 129.032Z" fill="black"/>
</svg>
