<svg width="20" height="21" viewBox="0 0 20 21" fill="none" xmlns="http://www.w3.org/2000/svg">
<path d="M17.6417 7.23333V12.9333C17.6417 13.8667 17.1417 14.7333 16.3333 15.2083L11.3833 18.0667C10.575 18.5333 9.575 18.5333 8.75834 18.0667L3.80834 15.2083C3.40981 14.9773 3.07912 14.6454 2.84946 14.2461C2.61981 13.8467 2.49929 13.394 2.5 12.9333V7.23333C2.5 6.3 3 5.43333 3.80834 4.95833L8.75834 2.1C9.56667 1.63333 10.5667 1.63333 11.3833 2.1L16.3333 4.95833C17.1417 5.43333 17.6417 6.29167 17.6417 7.23333Z" stroke="black" stroke-width="1.5" stroke-linecap="round" stroke-linejoin="round"/>
<path d="M13.3332 14.3833C13.3332 12.8833 11.8415 11.6667 9.99984 11.6667C8.15817 11.6667 6.6665 12.8833 6.6665 14.3833M9.99984 9.66667C10.5148 9.66667 11.0087 9.46211 11.3728 9.09797C11.7369 8.73384 11.9415 8.23997 11.9415 7.72501C11.9415 7.21004 11.7369 6.71617 11.3728 6.35204C11.0087 5.98791 10.5148 5.78334 9.99984 5.78334C9.48488 5.78334 8.991 5.98791 8.62687 6.35204C8.26274 6.71617 8.05817 7.21004 8.05817 7.72501C8.05817 8.23997 8.26274 8.73384 8.62687 9.09797C8.991 9.46211 9.48488 9.66667 9.99984 9.66667Z" stroke="black" stroke-width="1.5" stroke-linecap="round" stroke-linejoin="round"/>
</svg>
