<svg width="20" height="21" viewBox="0 0 20 21" fill="none" xmlns="http://www.w3.org/2000/svg">
<path d="M2.8418 18.8333C2.8418 15.6083 6.05013 13 10.0001 13C10.8001 13 11.5751 13.1083 12.3001 13.3083M10.0001 10.5C11.1052 10.5 12.165 10.061 12.9464 9.27961C13.7278 8.49821 14.1668 7.4384 14.1668 6.33333C14.1668 5.22826 13.7278 4.16845 12.9464 3.38705C12.165 2.60565 11.1052 2.16666 10.0001 2.16666C8.89506 2.16666 7.83525 2.60565 7.05385 3.38705C6.27245 4.16845 5.83346 5.22826 5.83346 6.33333C5.83346 7.4384 6.27245 8.49821 7.05385 9.27961C7.83525 10.061 8.89506 10.5 10.0001 10.5Z" stroke="black" stroke-width="1.5" stroke-linecap="round" stroke-linejoin="round"/>
<path d="M18.3332 15.5C18.3332 16.125 18.1582 16.7167 17.8498 17.2167C17.6748 17.5167 17.4498 17.7833 17.1915 18C16.6082 18.525 15.8415 18.8333 14.9998 18.8333C14.4253 18.8345 13.8604 18.6861 13.3606 18.4026C12.8609 18.1191 12.4436 17.7104 12.1498 17.2167C11.8326 16.7004 11.6653 16.106 11.6665 15.5C11.6665 14.45 12.1498 13.5083 12.9165 12.9C13.4065 12.5073 13.9975 12.261 14.6214 12.1895C15.2453 12.118 15.8766 12.2243 16.4428 12.496C17.0089 12.7678 17.4867 13.1939 17.8212 13.7254C18.1556 14.2569 18.3331 14.872 18.3332 15.5Z" stroke="black" stroke-width="1.5" stroke-miterlimit="10" stroke-linecap="round" stroke-linejoin="round"/>
<path d="M13.7002 15.5L14.5252 16.325L16.3002 14.6833" stroke="black" stroke-width="1.5" stroke-linecap="round" stroke-linejoin="round"/>
</svg>
