<svg width="19" height="20" viewBox="0 0 19 20" fill="none" xmlns="http://www.w3.org/2000/svg">
<path d="M1 7.43334V5.35001C1 3.27501 2.675 1.60001 4.75 1.60001H6.83333M11.8333 1.60001H13.9167C15.9917 1.60001 17.6667 3.27501 17.6667 5.35001V7.43334M17.6667 13.2667V14.5167C17.6667 16.5917 15.9917 18.2667 13.9167 18.2667H12.6667M6.83333 18.2667H4.75C2.675 18.2667 1 16.5917 1 14.5167V12.4333M15.1667 9.93334H3.5M13.5 7.85001V12.0167C13.5 13.6833 12.6667 14.5167 11 14.5167H7.66667C6 14.5167 5.16667 13.6833 5.16667 12.0167V7.85001C5.16667 6.18334 6 5.35001 7.66667 5.35001H11C12.6667 5.35001 13.5 6.18334 13.5 7.85001Z" stroke="url(#paint0_linear_175_3086)" stroke-width="2" stroke-linecap="round" stroke-linejoin="round"/>
<defs>
<linearGradient id="paint0_linear_175_3086" x1="17.6667" y1="33.0847" x2="-24.8828" y2="19.7364" gradientUnits="userSpaceOnUse">
<stop stop-color="#000000"/>
<stop offset="0.0001" stop-color="#000000"/>
<stop offset="1" stop-color="#000000"/>
</linearGradient>
</defs>
</svg>
