<svg width="20" height="21" viewBox="0 0 20 21" fill="none" xmlns="http://www.w3.org/2000/svg">
<path d="M18.3332 10.5V14.6667C18.3332 17.1667 16.6665 18.8333 14.1665 18.8333H5.83317C3.33317 18.8333 1.6665 17.1667 1.6665 14.6667V10.5C1.6665 8.23333 3.03317 6.65 5.15817 6.38333C5.37484 6.35 5.59984 6.33333 5.83317 6.33333H14.1665C14.3832 6.33333 14.5915 6.34167 14.7915 6.375C16.9415 6.625 18.3332 8.21667 18.3332 10.5Z" stroke="black" stroke-width="1.5" stroke-linecap="round" stroke-linejoin="round"/>
<path d="M18.3333 10.9167H15.8333C14.9167 10.9167 14.1667 11.6667 14.1667 12.5833C14.1667 13.5 14.9167 14.25 15.8333 14.25H18.3333M14.7925 6.375C14.5925 6.34167 14.3842 6.33333 14.1675 6.33333H5.83418C5.60085 6.33333 5.37585 6.35 5.15918 6.38333C5.27585 6.15 5.44251 5.93333 5.64251 5.73333L8.35085 3.01667C8.90086 2.47215 9.64355 2.1667 10.4175 2.1667C11.1915 2.1667 11.9342 2.47215 12.4842 3.01667L13.9425 4.49167C14.4758 5.01667 14.7592 5.68333 14.7925 6.375Z" stroke="black" stroke-width="1.5" stroke-linecap="round" stroke-linejoin="round"/>
</svg>
